<svg xmlns="http://www.w3.org/2000/svg" xml:space="preserve" aria-labelledby="ahrfq40v3y5639zdhmv6rx5pfhq8e8r5" class="h-10 w-40 fill-current text-gray-400" style="fill-rule:evenodd;clip-rule:evenodd;stroke-linejoin:round;stroke-miterlimit:2" viewBox="0 0 2761 991"><path d="M2724.42 544.745c13.995-26.48 13.995-59.245 0-85.725L2534.854 99.249c-14.033-26.212-39.802-42.338-67.541-42.267h-380.805c-27.087.877-51.886 17.156-65.365 42.909l-191.491 362.613c-12.344 26-11.648 57.208 1.842 82.516l190.486 361.33c14.288 25.398 39.722 40.827 66.955 40.616h379.634c27.65-.288 53.174-16.646 66.954-42.908l189.315-359.129-.418-.184Zm-570.957-365.639a155.384 155.384 0 0 1 34.398-3.117h180.275a155.685 155.685 0 0 1 34.398 3.117c16.739 4.493 39.755 15.77 39.755 43.642-.926 17.559-12.695 32.311-28.456 35.666a135.867 135.867 0 0 1-15.316 1.375H2157.48a136.1 136.1 0 0 1-15.316-1.375c-15.793-3.318-27.605-18.079-28.54-35.666-.251-27.872 23.1-39.149 39.839-43.642Zm-86.121 127.259c12.763-4.207 26.008-6.399 39.336-6.51h342.055c13.356.106 26.63 2.298 39.42 6.51 8.871 3.484 33.477 16.411 33.477 41.992-.222 14.023-7.557 26.802-18.998 33.098a82.23 82.23 0 0 1-24.271 5.226h-401.729a82.19 82.19 0 0 1-23.602-5.226c-11.343-6.26-18.634-18.913-18.914-32.823-.335-25.856 24.271-38.783 33.226-42.267Zm260.789 526.271c-10.88 29.797-32.641 49.876-49.296 49.876s-38.247-19.987-48.793-49.876c-.753-2.201 0-3.76 1.841-2.659 14.883 6.941 30.949 10.317 47.12 9.902 16.287.382 32.472-2.927 47.538-9.719 1.757-1.284 2.678.55 1.506 2.476h.084Zm11.299-31.448c0 1.192-1.758 2.475-4.687 3.942-17.74 7.72-36.652 11.702-55.74 11.736-18.994-.198-37.778-4.4-55.322-12.378-1.9-.743-3.54-2.122-4.686-3.942-4.546-8.463-6.566-18.275-5.775-28.056 0-3.85 2.762-6.418 4.519-5.684 19.726 7.322 40.438 10.948 61.264 10.727 21.052.03 41.969-3.686 61.933-11.002 1.841-.734 3.515 1.834 3.431 5.684.082 9.955-1.624 19.831-5.021 29.064l.084-.091Zm1.339-57.395c-20.111 6.28-40.939 9.367-61.85 9.168-20.682.062-41.272-3.024-61.18-9.168-2.15-.975-3.657-3.153-3.933-5.684 0-27.506 26.447-37.775 65.197-37.775s65.783 10.544 65.532 37.775c-.158 2.573-1.66 4.827-3.85 5.776l.084-.092Zm179.271-96.452c-15.74 18.817-37.73 29.953-61.012 30.897-8.515 22.991-27.254 39.635-49.547 44.009-13.732 1.915-27.66-1.318-39.503-9.168-13.559-8.619-36.24-32.915-90.138-32.915-53.899 0-76.58 24.388-90.138 32.915-11.844 7.85-25.771 11.083-39.503 9.168-22.287-4.391-41.019-21.029-49.547-44.009-23.255-.958-45.215-12.094-60.929-30.897-7.783-8.069-25.108-41.442-17.743-48.227 38.667-35.298 110.141-1.1 110.141-1.1 55.237 24.663 71.558 60.42 147.802 60.42 76.245 0 92.565-35.757 147.803-60.42 0 0 71.558-34.29 110.141 1.1 7.365 6.602-10.043 39.975-17.827 48.227Zm-279.871-58.679c16.153-11.552 25.108-17.603 38.75-17.603s22.765 5.959 38.834 17.603c6.28 4.999 10.004 13.007 10.004 21.511 0 7.384-2.808 14.444-7.744 19.472-12.638 7.227-26.883 10.406-41.094 9.169-14.134 1.306-28.316-1.878-40.842-9.169-4.982-5.031-7.819-12.125-7.819-19.547 0-8.46 3.685-16.431 9.911-21.436Zm339.545-82.516c-8.161 5.349-17.632 7.815-27.117 7.06H2356.67c-8.369-.642-10.127 0-14.227-5.043-9.96-11.185-36.491-35.023-64.947-35.023-28.455 0-54.986 23.838-64.946 35.023-4.101 4.584-5.44 4.401-14.228 5.043-7.281.55-27.702 0-27.702 0h-168.224c-9.485.749-18.954-1.717-27.117-7.06-9.39-7.153-14.676-19.222-13.893-31.723 0-16.595 10.713-30.806 28.121-39.699 14.287-5.439 29.317-8.167 44.441-8.069h486.594c15.125-.098 30.155 2.63 44.442 8.069 17.408 9.168 28.121 23.012 28.121 39.699.955 12.458-4.137 24.59-13.391 31.906v-.183Z"/>;fill-rule:nonzero;&quot;/&gt;<path d="M222.32 697.951H71.672V92.831H222.32c52.225 0 102.022 32.64 102.022 112.681v100.853c0 36.674-12.47 70.872-50.216 83.525 36.49 15.494 50.216 45.842 50.216 83.708v111.764c0 80.866-49.797 112.589-102.022 112.589m1.59-479.695c0-19.987-7.449-27.506-19.082-27.506h-26.531v160.174h26.531c11.633 0 19.082-8.16 19.082-27.506V218.256Zm0 246.265c0-18.979-7.449-27.505-19.082-27.505h-26.531v163.749h26.531c11.633 0 19.082-7.243 19.082-27.506V464.521Z"/>;&quot;/&gt;<path d="M470.304 705.285c-58.586 0-103.697-49.968-103.697-121.665V366.418c0-71.88 44.776-122.49 103.697-122.49 58.92 0 101.352 50.61 101.352 122.49v122.583H452.058v108.096c0 14.578 5.775 27.506 19.92 27.506 14.144 0 20.756-12.744 20.756-27.506v-64.179h78.922v50.243c0 71.698-42.348 121.666-101.185 121.666m19.835-353.537c0-14.486-7.448-26.313-19.082-26.313-11.633 0-19.082 11.827-19.082 26.313v88.201h38.164V351.29Z"/>;&quot;/&gt;<path d="M716.53 705.285c-58.586 0-103.696-49.968-103.696-121.665V366.418c0-71.88 44.859-122.49 103.696-122.49 58.836 0 101.185 50.61 101.185 122.49v122.583h-119.43v108.096c0 14.578 5.858 27.506 19.919 27.506 14.06 0 20.756-12.744 20.756-27.506v-64.179h78.755v50.243c0 71.698-41.846 121.666-101.185 121.666m19.919-353.537c0-14.486-7.449-26.313-19.082-26.313-11.634 0-19.082 11.827-19.082 26.313v88.201h38.164V351.29Z"/>;fill-rule:nonzero;&quot;/&gt;<path d="M986.107 697.951V353.949c0-14.394-8.37-25.305-18.245-25.305-9.876 0-18.162 10.911-18.162 25.305v344.002h-88.046V92.831h87.962V289.77c12.387-26.405 33.478-45.842 61.264-45.842 38.164 0 62.184 35.482 62.184 88.109v365.914h-86.957Z"/>;fill-rule:nonzero;&quot;/&gt;<path d="M1121.27 251.904h87.962V697.95h-87.962z"/>;fill-rule:nonzero;&quot;/&gt;<path d="M1385.83 698.042h-72.228l-73.734-446.138h85.368l20.756 193.547 6.612 76.281 6.611-76.281 20.756-193.547h79.593l-73.734 446.138Z"/>;fill-rule:nonzero;&quot;/&gt;<path d="M1584.77 705.285c-58.585 0-103.696-49.968-103.696-121.665V366.418c.084-71.88 44.692-122.49 103.696-122.49s101.186 50.793 101.186 122.765v122.308h-119.431v108.188c0 14.578 5.859 27.505 19.919 27.505 14.061 0 20.756-12.744 20.756-27.505V533.01h78.756v50.151c0 71.698-42.265 121.666-101.186 121.666m19.919-353.537c0-14.486-7.365-26.313-19.082-26.313s-19.082 11.827-19.082 26.313v88.201h38.164V351.29Z"/>;fill-rule:nonzero;&quot;/&gt;<path d="M69.495 785.326h60.176v32.182h-29.209v31.539h25.61v31.723h-25.61v63.446H69.495v-158.89Z"/>;fill-rule:nonzero;&quot;/&gt;<path d="M146.745 785.326h62.686v32.182h-31.636v30.806h28.121v31.723h-28.121v31.447h32.306v32.365h-63.356V785.326Z"/>;fill-rule:nonzero;&quot;/&gt;<path d="M227.844 785.326h28.958c35.151 0 53.982 26.314 53.982 75.457v7.701c0 49.143-18.831 75.457-53.982 75.457h-28.958V785.326Zm31.05 31.265v96.085c11.382 0 20.254-9.168 20.254-44.008v-8.16c-.419-35.024-8.788-43.826-20.254-43.826v-.091Z"/>;fill-rule:nonzero;&quot;/&gt;<path d="M324.426 785.326h63.105v32.182h-32.055v30.806h28.121v31.723h-28.121v31.447h32.055v32.365h-63.105V785.326Z"/>;fill-rule:nonzero;&quot;/&gt;<path d="M405.525 785.326h31.05c13.004-.893 25.812 3.927 35.57 13.386 8.578 10.361 12.986 24.087 12.219 38.049v2.292c1.095 16.205-5.174 32-16.739 42.175l19.25 62.713h-33.477l-14.647-51.619h-2.511v51.619h-30.715V785.326Zm32.222 78.391c8.871 0 15.316-6.143 15.316-22.463v-3.392c0-16.962-6.612-22.188-15.484-22.188h-.836v48.043h1.004Z"/>;fill-rule:nonzero;&quot;/&gt;<path d="M521.44 784.868h35.57l27.535 159.073h-31.134l-3.933-28.514h-21.677l-3.934 28.514h-30.213l27.786-159.073Zm24.188 101.495-6.863-49.877-7.03 49.877h13.893Z"/>;fill-rule:nonzero;&quot;/&gt;<path d="M597.685 785.326h31.05v126.158h27.452v32.365h-58.586l.084-158.523Z"/>;fill-rule:nonzero;&quot;/&gt;<path d="M709.834 868.759v-7.885c0-55.744 22.514-77.29 47.789-77.29 6.503-.259 12.967 1.22 18.831 4.309v34.199c-4.656-3.468-10.108-5.438-15.734-5.685-10.378 0-19.249 9.169-19.249 45.293v5.684c0 37.407 8.369 45.109 20.086 45.109 5.524-.386 10.862-2.346 15.483-5.684v32.639c-6.467 4.305-13.946 6.441-21.509 6.143-25.443.184-45.697-23.196-45.697-76.832Z"/>;fill-rule:nonzero;&quot;/&gt;<path d="M795.202 785.326h31.05c13.004-.893 25.812 3.927 35.57 13.386 8.578 10.361 12.986 24.087 12.219 38.049v2.292c1.094 16.205-5.174 32-16.739 42.175l19.25 62.713h-33.478l-14.646-51.619h-2.511v51.619h-30.715V785.326Zm31.887 78.391c8.872 0 15.316-6.143 15.316-22.463v-3.392c0-16.962-6.612-22.188-15.483-22.188h-.837v48.043h1.004Z"/>;fill-rule:nonzero;&quot;/&gt;<path d="M890.947 785.326h62.687v32.182h-31.637v30.806h28.121v31.723h-28.121v31.447h32.306v32.365h-63.272l-.084-158.523Z"/>;fill-rule:nonzero;&quot;/&gt;<path d="M972.046 785.326h28.958c35.151 0 53.982 26.314 53.982 75.457v7.701c0 49.143-18.831 75.457-53.982 75.457h-28.958V785.326Zm31.05 31.265v96.085c11.383 0 20.254-9.168 20.254-44.008v-8.16c.251-35.024-8.871-43.826-20.254-43.826v-.091Z"/>;fill-rule:nonzero;&quot;/&gt;<path d="M1073.23 785.326h31.05v158.615h-31.05z"/>;fill-rule:nonzero;&quot;/&gt;<path d="M1139.77 817.783h-18.998v-32.457h69.047v32.365h-18.999v126.158h-31.05V817.783Z"/>;fill-rule:nonzero;&quot;/&gt;<path d="M1245.05 896.632V785.326h31.051v113.781c0 11.369 3.515 15.861 8.871 15.861 5.357 0 8.872-4.492 8.872-15.861V785.326h31.05v111.03c0 34.657-17.157 50.06-40.089 50.06s-39.755-14.853-39.755-49.784Z"/>;fill-rule:nonzero;&quot;/&gt;<path d="M1344.15 785.326h29.795l22.514 71.606v-71.606h29.795v158.615h-28.289l-24.02-75.457v75.457h-29.795V785.326Z"/>;fill-rule:nonzero;&quot;/&gt;<path d="M1446.59 785.326h31.05v158.615h-31.05z"/>;fill-rule:nonzero;&quot;/&gt;<path d="M1495.55 869.676v-9.993c0-51.619 16.739-77.291 42.767-77.291 26.029 0 42.6 25.58 42.6 77.291v9.993c0 51.435-16.738 77.29-42.6 77.29-25.861 0-42.767-25.855-42.767-77.29Zm53.731 0v-10.635c0-37.133-4.101-45.843-10.964-45.843-6.862 0-11.131 8.344-11.131 45.843v10.635c0 37.408 4.352 45.843 11.131 45.843 6.78 0 11.048-8.252 11.048-45.659l-.084-.184Z"/>;fill-rule:nonzero;&quot;/&gt;<path d="M1598.83 785.326h29.795l22.513 71.606v-71.606h29.795v158.615h-28.372l-24.02-75.457v75.457h-29.795l.084-158.615Z"/></svg>