<?xml version="1.0" encoding="UTF-8" standalone="no"?>
<svg
   xml:space="preserve"
   aria-labelledby="a1dv9iufho2tyomufg3qhtq6dfysd03d"
   class="h-9 w-40 fill-current text-gray-400"
   style="clip-rule:evenodd;fill-rule:evenodd;stroke-linejoin:round;stroke-miterlimit:2"
   viewBox="0 0 2761 991"
   version="1.1"
   id="svg1"
   sodipodi:docname="elk-ridge-electric.svg"
   width="2761"
   height="991"
   inkscape:version="1.3 (0e150ed, 2023-07-21)"
   xmlns:inkscape="http://www.inkscape.org/namespaces/inkscape"
   xmlns:sodipodi="http://sodipodi.sourceforge.net/DTD/sodipodi-0.dtd"
   xmlns="http://www.w3.org/2000/svg"
   xmlns:svg="http://www.w3.org/2000/svg"><defs
     id="defs1" /><sodipodi:namedview
     id="namedview1"
     pagecolor="#505050"
     bordercolor="#ffffff"
     borderopacity="1"
     inkscape:showpageshadow="0"
     inkscape:pageopacity="0"
     inkscape:pagecheckerboard="1"
     inkscape:deskcolor="#505050"
     inkscape:zoom="0.22683824"
     inkscape:cx="1360"
     inkscape:cy="147.68233"
     inkscape:window-width="1392"
     inkscape:window-height="1212"
     inkscape:window-x="2240"
     inkscape:window-y="25"
     inkscape:window-maximized="0"
     inkscape:current-layer="svg1" /><path
     d="m 198.20971,560.09994 c -12.384,1.44 -25.056,2.016 -46.944,2.016 H 76.961712 v -48.384 h 62.207998 c 19.872,0 29.664,0.576 43.2,2.016 v -53.28 c -17.28,1.728 -24.192,2.016 -43.2,2.016 H 76.961712 v -42.336 h 74.879998 c 19.296,0 29.664,0.576 42.912,2.016 v -53.856 c -13.536,1.44 -23.328,2.016 -42.912,2.016 H 59.969712 c -22.464,0 -30.528,-0.288 -42.336,-0.864 1.728,14.112 2.304,24.192 2.304,42.048 v 157.248 c 0,19.872 -0.576,30.528 -2.304,42.048 12.384,-0.576 20.448,-0.864 42.336,-0.864 h 90.719998 c 24.768,0 35.136,0.576 47.52,2.016 z m 15.264,-187.776 c 1.728,10.944 2.304,23.04 2.304,43.488 v 152.64 c 0,20.736 -0.576,30.528 -2.304,43.488 h 60.192 c -1.728,-15.264 -2.304,-26.208 -2.304,-43.488 v -152.64 c 0,-19.584 0.576,-31.392 2.304,-43.488 h -60.192 z m 78.912,0 c 1.44,10.656 2.304,23.904 2.304,43.488 v 152.64 c 0,19.008 -0.576,30.528 -2.304,43.488 h 58.752 c -2.016,-11.52 -2.304,-18.432 -2.304,-42.048 v -11.52 l 21.6,-20.736 21.888,35.712 c 8.352,13.824 14.688,26.496 19.008,38.592 h 73.44 c -8.064,-9.792 -9.216,-11.52 -26.784,-36.864 l -48.096,-70.272 41.76,-40.32 c 15.552,-15.264 19.008,-18.432 30.24,-28.224 h -76.608 c -5.472,8.352 -11.808,15.84 -25.056,29.088 l -31.68,31.392 v -80.928 c 0,-19.296 0.576,-31.68 2.304,-43.488 z m 499.104,241.01 c -7.2,-15.264 -10.656,-22.464 -13.824,-30.528 -12.96,-31.104 -16.992,-40.896 -21.312,-50.112 -9.216,-20.448 -15.84,-27.072 -30.528,-31.68 14.112,-4.608 20.16,-7.776 27.36,-14.4 11.232,-10.656 16.992,-26.784 16.992,-47.232 0,-41.472 -27.072,-65.664 -73.728,-65.664 h -74.88 c -19.584,0 -30.24,-0.288 -42.912,-0.864 1.728,13.824 2.304,24.48 2.304,42.336 v 154.944 c 0,21.312 -0.576,29.952 -2.304,43.2 h 61.92 c -1.728,-13.248 -2.304,-23.904 -2.304,-43.488 v -47.232 h 29.376 c 9.216,0 16.416,2.304 22.464,7.776 7.2,6.336 10.656,12.96 19.872,38.016 8.928,23.904 12.384,35.712 14.112,44.928 z m -153.216,-139.968 v -51.264 h 45.216 c 17.856,0 27.072,8.352 27.072,24.48 0,16.416 -10.368,26.784 -27.36,26.784 h -44.928 z m 163.872,-99.648 v 43.2 h 58.464 v -43.2 z m -0.864,63.936 c 1.728,12.96 2.304,24.768 2.304,43.488 v 88.704 c 0,18.432 -0.576,29.376 -2.304,43.488 h 60.192 c -1.44,-12.384 -2.304,-27.936 -2.304,-43.488 v -88.704 c 0,-20.16 0.576,-31.68 2.304,-43.488 z m 213.69599,175.68 h 56.736 c -1.728,-14.112 -2.304,-25.92 -2.304,-45.216 v -149.184 c 0,-19.296 0.576,-33.12 2.304,-45.216 h -59.04 c 1.728,12.672 2.304,25.056 2.304,45.216 v 23.904 c 0,4.032 0,6.624 0.288,10.944 -19.00799,-15.264 -35.71199,-21.312 -59.03999,-21.312 -23.616,0 -43.776,7.776 -58.464,22.464 -16.128,16.416 -24.768,40.32 -24.768,70.272 0,58.176 31.68,93.312 84.096,93.312 24.192,0 38.88,-5.184 58.17599,-20.736 -0.288,2.592 -0.288,4.608 -0.288,6.336 z m -45.21599,-136.8 c 26.208,0 44.63999,20.16 44.63999,48.096 0,28.512 -18.71999,49.824 -44.35199,49.824 -10.656,0 -21.024,-4.032 -27.936,-10.944 -8.64,-8.352 -13.248,-21.6 -13.248,-38.016 0,-30.24 15.84,-48.96 40.896,-48.96 z m 117.79199,159.264 c 20.16,22.176 46.08,31.968 85.248,31.968 28.8,0 52.992,-6.048 68.544,-16.992 20.16,-14.112 29.952,-37.44 29.952,-72 v -101.088 c 0,-16.992 0.576,-27.072 2.304,-40.032 h -56.448 v 12.384 c -15.552,-11.808 -31.104,-16.704 -52.416,-16.704 -49.248,0 -81.792,33.696 -81.792,84.96 0,52.416 31.68,85.248 81.792,85.248 22.176,0 37.728,-5.76 52.416,-19.008 -0.576,15.264 -3.168,23.904 -9.216,30.816 -6.912,8.352 -19.296,12.672 -35.136,12.672 -19.008,0 -33.696,-6.624 -43.776,-19.584 z m 50.112,-117.216 c 0,-26.784 14.976,-44.352 38.016,-44.352 23.328,0 40.32,18.432 40.32,44.064 0,25.632 -16.992,43.776 -40.608,43.776 -22.752,0 -37.728,-16.992 -37.728,-43.488 z m 330.048,23.04 c -0.288,-2.88 -0.288,-4.608 -0.288,-5.76 -0.864,-16.416 -2.016,-28.512 -4.32,-37.728 -10.08,-42.912 -41.472,-67.392 -86.4,-67.392 -55.008,0 -91.584,37.728 -91.584,94.752 0,28.512 9.216,52.992 26.208,70.272 16.416,16.416 38.592,24.48 66.816,24.48 28.512,0 51.552,-8.352 67.968,-24.48 8.064,-8.064 12.384,-14.688 19.008,-29.664 l -50.112,-14.112 c -2.304,7.488 -4.32,10.656 -8.64,14.688 -7.488,6.912 -17.568,10.656 -29.088,10.656 -22.752,0 -36.288,-12.384 -39.168,-35.712 z m -128.736,-39.744 c 4.896,-19.008 17.28,-28.224 37.728,-28.224 19.872,0 32.256,9.792 36.288,28.224 z m 407.806,58.222 c -12.384,1.44 -25.056,2.016 -46.944,2.016 h -74.304 v -48.384 h 62.208 c 19.872,0 29.664,0.576 43.2,2.016 v -53.28 c -17.28,1.728 -24.192,2.016 -43.2,2.016 h -62.208 v -42.336 h 74.88 c 19.296,0 29.664,0.576 42.912,2.016 v -53.856 c -13.536,1.44 -23.328,2.016 -42.912,2.016 h -91.872 c -22.464,0 -30.528,-0.288 -42.336,-0.864 1.728,14.112 2.304,24.192 2.304,42.048 v 157.248 c 0,19.872 -0.576,30.528 -2.304,42.048 12.384,-0.576 20.448,-0.864 42.336,-0.864 h 90.72 c 24.768,0 35.136,0.576 47.52,2.016 z m 15.27,-187.776 c 1.728,10.944 2.304,23.04 2.304,43.488 v 152.64 c 0,20.736 -0.576,30.528 -2.304,43.488 h 60.192 c -1.728,-15.264 -2.304,-26.208 -2.304,-43.488 v -152.64 c 0,-19.584 0.576,-31.392 2.304,-43.488 z m 254.01,167.904 c -0.288,-2.88 -0.288,-4.608 -0.288,-5.76 -0.864,-16.416 -2.016,-28.512 -4.32,-37.728 -10.08,-42.912 -41.472,-67.392 -86.4,-67.392 -55.008,0 -91.584,37.728 -91.584,94.752 0,28.512 9.216,52.992 26.208,70.272 16.416,16.416 38.592,24.48 66.816,24.48 28.512,0 51.552,-8.352 67.968,-24.48 8.064,-8.064 12.384,-14.688 19.008,-29.664 l -50.112,-14.112 c -2.304,7.488 -4.32,10.656 -8.64,14.688 -7.488,6.912 -17.568,10.656 -29.088,10.656 -22.752,0 -36.288,-12.384 -39.168,-35.712 z m -128.736,-39.744 c 4.896,-19.008 17.28,-28.224 37.728,-28.224 19.872,0 32.256,9.792 36.288,28.224 z m 309.886,-10.944 c -9.504,-38.304 -40.32,-60.192 -84.672,-60.192 -56.16,0 -92.448,36.864 -92.448,94.464 0,28.224 9.216,53.568 25.92,69.984 15.84,16.128 39.456,24.768 67.104,24.768 33.408,0 59.616,-11.808 74.016,-33.12 5.472,-8.352 8.928,-16.128 12.096,-28.512 l -52.992,-8.352 c -1.152,6.624 -2.592,9.504 -5.184,13.248 -5.76,8.064 -16.128,12.672 -27.36,12.672 -23.04,0 -37.728,-20.16 -37.728,-51.264 0,-31.68 13.824,-50.112 37.152,-50.112 10.368,0 18.432,3.456 24.192,10.08 3.744,4.32 5.472,8.352 8.064,16.992 z m 35.72,-53.28 h -10.368 c -10.08,0 -17.28,-0.576 -25.632,-1.728 v 48.096 c 8.352,-1.152 15.84,-1.728 25.056,-1.728 h 10.944 v 88.128 c 0,19.584 4.032,29.376 14.976,37.728 9.216,6.912 22.752,10.08 42.336,10.08 15.552,0 26.784,-1.728 39.744,-5.76 l -4.32,-43.776 c -7.2,3.744 -12.672,5.184 -20.16,5.184 -5.472,0 -10.08,-1.152 -13.248,-3.168 -3.744,-2.592 -5.184,-6.624 -5.184,-14.688 v -73.728 h 12.096 c 10.368,0 17.856,0.576 26.496,1.728 v -47.808 c -8.928,1.152 -15.552,1.44 -28.224,1.44 h -10.368 v -6.048 c 0,-13.824 0.864,-27.648 2.304,-39.456 h -58.752 c 1.728,13.536 2.304,25.056 2.304,39.456 z m 247.1,0 c -13.536,-2.88 -19.296,-3.456 -28.512,-3.456 -26.208,0 -43.488,7.776 -57.6,26.208 v -22.752 h -57.312 c 1.728,12.384 2.304,22.464 2.304,43.488 v 88.704 c 0,18.72 -0.576,29.088 -2.304,43.488 h 59.616 c -1.728,-13.824 -2.304,-24.768 -2.304,-43.2 v -44.928 c 1.152,-12.672 3.168,-18.72 8.64,-25.632 8.352,-10.368 19.584,-15.552 34.272,-15.552 8.928,0 16.128,1.44 29.376,5.472 z m 6.62,-63.936 v 43.2 h 58.464 v -43.2 z m -0.864,63.936 c 1.728,12.96 2.304,24.768 2.304,43.488 v 88.704 c 0,18.432 -0.576,29.376 -2.304,43.488 h 60.192 c -1.44,-12.384 -2.304,-27.936 -2.304,-43.488 v -88.704 c 0,-20.16 0.576,-31.68 2.304,-43.488 z m 248.834,53.28 c -9.504,-38.304 -40.32,-60.192 -84.672,-60.192 -56.16,0 -92.448,36.864 -92.448,94.464 0,28.224 9.216,53.568 25.92,69.984 15.84,16.128 39.456,24.768 67.104,24.768 33.408,0 59.616,-11.808 74.016,-33.12 5.472,-8.352 8.928,-16.128 12.096,-28.512 l -52.992,-8.352 c -1.152,6.624 -2.592,9.504 -5.184,13.248 -5.76,8.064 -16.128,12.672 -27.36,12.672 -23.04,0 -37.728,-20.16 -37.728,-51.264 0,-31.68 13.824,-50.112 37.152,-50.112 10.368,0 18.432,3.456 24.192,10.08 3.744,4.32 5.472,8.352 8.064,16.992 z"
     style="fill-rule:nonzero"
     id="path1" /></svg>
