<?xml version="1.0" encoding="UTF-8" standalone="no"?>
<svg
   xml:space="preserve"
   aria-labelledby="ac3iaffly9f7ug8tvg8pgukx4ebdf7qu"
   class="h-10 w-40 fill-current text-gray-400"
   style="clip-rule:evenodd;fill-rule:evenodd;stroke-linejoin:round;stroke-miterlimit:2"
   viewBox="0 0 2761 991"
   version="1.1"
   id="svg14"
   sodipodi:docname="hammonds.svg"
   width="2761"
   height="991"
   inkscape:version="1.3 (0e150ed, 2023-07-21)"
   xmlns:inkscape="http://www.inkscape.org/namespaces/inkscape"
   xmlns:sodipodi="http://sodipodi.sourceforge.net/DTD/sodipodi-0.dtd"
   xmlns="http://www.w3.org/2000/svg"
   xmlns:svg="http://www.w3.org/2000/svg"><defs
     id="defs14" /><sodipodi:namedview
     id="namedview14"
     pagecolor="#505050"
     bordercolor="#ffffff"
     borderopacity="1"
     inkscape:showpageshadow="0"
     inkscape:pageopacity="0"
     inkscape:pagecheckerboard="1"
     inkscape:deskcolor="#505050"
     inkscape:zoom="0.28002881"
     inkscape:cx="1528.4142"
     inkscape:cy="328.53763"
     inkscape:window-width="1280"
     inkscape:window-height="1387"
     inkscape:window-x="3008"
     inkscape:window-y="25"
     inkscape:window-maximized="0"
     inkscape:current-layer="svg14" /><path
     d="m 429.77069,270.66357 c -11.74259,1.06751 -22.63116,4.16328 -32.66572,9.28732 a 153.49089,153.49089 0 0 0 -28.50246,18.89487 c 21.35016,19.85564 32.02522,44.62182 32.02522,74.29853 0,21.35014 -4.43015,40.19165 -13.29046,56.52451 -8.86031,16.33287 -20.70964,29.99696 -35.548,40.99229 -14.83835,10.99533 -31.91847,19.26851 -51.24035,24.81954 -19.32189,5.55105 -39.44441,8.32657 -60.36755,8.32657 -9.82107,0 -20.12252,-0.74726 -30.90434,-2.24177 -10.78183,-1.49451 -20.44277,-3.09577 -28.98283,-4.80378 -4.69703,0.6405 -9.98119,1.44113 -15.85248,2.40189 -5.87129,0.96076 -13.39722,1.44113 -22.57779,1.44113 -8.96706,0 -15.21198,-1.01413 -18.73475,-3.0424 -3.52277,-2.02826 -5.28416,-4.1099 -5.28416,-6.24491 0,-2.34852 0.90738,-3.94978 2.72214,-4.80378 1.81476,-0.85401 4.96391,-1.28102 9.44744,-1.28102 4.27003,0 10.78183,0.85401 19.53539,2.56203 8.75356,1.70801 19.00163,3.41602 30.74421,5.12403 12.16959,-2.13502 23.00479,-7.41917 32.50561,-15.85249 9.50081,-8.4333 18.30775,-18.68138 26.4208,-30.74421 8.11306,-12.06283 16.01261,-25.24655 23.69867,-39.55115 a 740.95023,740.95023 0 0 1 24.65942,-42.43342 303.80927,303.80927 0 0 1 29.14295,-39.23089 c 10.67508,-12.16959 22.95141,-22.09741 36.82901,-29.78346 -8.54006,-7.47255 -18.78813,-13.0236 -30.74422,-16.65312 -11.95608,-3.62953 -23.69866,-5.44428 -35.22774,-5.44428 -16.86662,0 -33.03936,2.77551 -48.51821,8.32655 -15.47886,5.55104 -29.03621,13.4506 -40.67204,23.69867 -11.63583,10.24807 -20.92314,22.57778 -27.86194,36.98912 -6.9388,14.41136 -10.4082,30.47734 -10.4082,48.19797 0,5.76453 0.74726,11.42233 2.24177,16.97336 1.49451,5.55104 3.73627,10.56832 6.72529,15.05186 a 33.206153,33.206153 0 0 0 11.68921,10.72845 c 4.80378,2.66877 10.4082,4.00315 16.81324,4.00315 10.03457,0 18.84151,-2.8289 26.42081,-8.48668 7.57931,-5.65779 13.93097,-12.97022 19.05501,-21.93728 5.12404,-8.96706 9.02044,-18.94825 11.68921,-29.94358 2.66877,-10.99533 4.1099,-21.83053 4.3234,-32.50561 h 3.84303 c -0.6405,17.29363 -3.20253,32.29211 -7.68606,44.99544 -4.48353,12.70334 -10.35481,23.27166 -17.61387,31.70498 -7.25905,8.43331 -15.47886,14.73159 -24.65942,18.89487 a 69.017691,69.017691 0 0 1 -28.8227,6.24493 c -7.68606,0 -14.57148,-1.49452 -20.65627,-4.48354 A 47.837676,47.837676 0 0 1 147.94873,429.6688 c -4.27003,-5.01728 -7.57931,-10.78182 -9.92782,-17.29361 -2.34852,-6.5118 -3.52278,-13.39722 -3.52278,-20.65628 0,-11.31557 2.02827,-22.25752 6.0848,-32.82585 a 115.02393,115.02393 0 0 1 16.65311,-29.4632 c 7.04555,-9.07382 15.31873,-17.29362 24.81955,-24.65943 a 169.70032,169.70032 0 0 1 30.58408,-18.89488 173.93699,173.93699 0 0 1 33.94675,-12.16958 c 11.74257,-2.88227 23.27165,-4.3234 34.58723,-4.3234 8.11307,0 15.53224,0.37362 22.25753,1.12088 6.7253,0.74725 13.18372,1.97489 19.37526,3.6829 6.19155,1.70801 12.27634,4.00315 18.25438,6.88542 5.97804,2.88227 12.27634,6.45842 18.89488,10.72845 a 141.61153,141.61153 0 0 1 33.62649,-15.53223 226.86868,226.86868 0 0 1 36.1885,-8.16643 z m -54.76314,78.78205 c 0,-8.11306 -0.854,-16.11937 -2.56201,-24.01891 a 47.170485,47.170485 0 0 0 -10.56832,-21.13665 c -11.52908,12.38308 -21.29678,24.92629 -29.30308,37.62963 a 609.51338,609.51338 0 0 0 -21.93728,37.62964 1103.9961,1103.9961 0 0 1 -20.01576,35.86825 198.65646,198.65646 0 0 1 -23.53854,32.34547 c -8.96706,10.03458 -19.74889,19.00163 -32.34548,26.90119 -12.59659,7.89956 -28.28895,14.41135 -47.07708,19.53539 v 0.6405 c 2.56202,0.6405 8.54006,1.65464 17.93413,3.0424 9.39406,1.38776 20.49614,2.08164 33.30623,2.08164 19.42863,0.2135 37.41614,-4.05653 53.9625,-12.81009 a 145.23105,145.23105 0 0 0 43.07393,-34.58724 c 12.16958,-14.3046 21.72377,-30.47734 28.66257,-48.51822 6.93879,-18.04087 10.40819,-36.24187 10.40819,-54.603 z m 8.00631,151.15905 a 3677.0693,3677.0693 0 0 1 33.14611,-56.04413 c 11.20883,-18.57464 22.36428,-37.46952 33.46636,-56.68465 l 36.50875,-1.28101 -42.27329,59.56692 0.6405,0.6405 c 8.11306,-10.03457 15.31873,-18.09425 21.61702,-24.17904 6.2983,-6.08479 11.79597,-11.04871 16.493,-14.89173 4.69703,-3.84303 8.64681,-6.77868 11.84933,-8.80694 3.20252,-2.02827 5.55104,-3.78965 7.04555,-5.28416 2.34852,-2.34851 4.5369,-4.21666 6.56516,-5.60442 2.02827,-1.38776 4.43016,-2.45527 7.20568,-3.20251 2.77552,-0.74726 6.13817,-1.22764 10.08795,-1.44114 a 840.89561,840.89561 0 0 1 14.89173,-0.6405 183.07085,183.07085 0 0 0 -11.20883,18.09425 41.993073,41.993073 0 0 0 -5.12404,20.33601 c 0,9.18056 4.59028,13.77085 13.77085,13.77085 2.98902,0 5.92466,-0.6405 8.80694,-1.92152 2.88226,-1.28101 5.60441,-2.88226 8.16643,-4.80378 2.56201,-1.92151 5.01728,-4.00315 7.3658,-6.24492 2.34851,-2.24177 4.48353,-4.32341 6.40504,-6.24492 l 1.28101,1.60126 a 75.02242,75.02242 0 0 1 -21.13664,18.25438 c -8.11307,4.69703 -16.97338,7.04555 -26.58095,7.04555 -8.54005,0 -15.26535,-2.24176 -20.17588,-6.7253 -4.91054,-4.48353 -7.3658,-11.10208 -7.3658,-19.85564 0,-5.55104 1.60126,-10.78182 4.80378,-15.69235 l -0.6405,-0.64051 a 179.30122,179.30122 0 0 0 -25.62018,20.8164 262.01636,262.01636 0 0 0 -22.57779,24.97967 c -6.93879,8.75356 -13.34384,17.774 -19.21512,27.06131 a 440.89058,440.89058 0 0 0 -15.85249,27.06132 z m 122.97685,-16.01261 c 0,-4.91053 1.76139,-9.12719 5.28417,-12.64996 3.52278,-3.52277 7.73943,-5.28416 12.64996,-5.28416 4.91053,0 9.12719,1.76139 12.64997,5.28416 3.52277,3.52277 5.28415,7.73943 5.28415,12.64996 0,4.91054 -1.76138,9.12719 -5.28415,12.64996 -3.52278,3.52278 -7.73944,5.28417 -12.64997,5.28417 -4.91053,0 -9.12718,-1.76139 -12.64996,-5.28417 -3.52278,-3.52277 -5.28417,-7.73942 -5.28417,-12.64996 z M 814.39362,328.94948 c 0.21349,2.13501 0.42699,4.37677 0.6405,6.7253 0.2135,2.34851 0.32025,4.69703 0.32025,7.04555 0,10.88857 -1.70801,21.45689 -5.12404,31.70496 -3.41602,10.24808 -8.37993,19.37526 -14.89173,27.38157 -6.5118,8.0063 -14.46472,14.41135 -23.85879,19.21514 -9.39406,4.80377 -19.96238,7.20567 -31.70497,7.20567 -7.25904,0 -14.03772,-1.0675 -20.33601,-3.20252 -6.2983,-2.13502 -11.84933,-5.28417 -16.65312,-9.44744 -4.80378,-4.16328 -8.59343,-9.23394 -11.36895,-15.21198 -2.77552,-5.97804 -4.16328,-12.70335 -4.16328,-20.1759 0,-12.16958 2.72214,-23.48516 8.16643,-33.94673 5.44428,-10.46158 12.70334,-20.01577 21.77715,-28.66257 9.07382,-8.64681 19.48201,-16.2795 31.22459,-22.89804 a 237.00333,237.00333 0 0 1 36.34863,-16.65312 243.18486,243.18486 0 0 1 37.62964,-10.24806 c 12.59658,-2.34853 24.12566,-3.52278 34.58724,-3.52278 7.47255,0 14.5181,0.10675 21.13665,0.32025 6.61854,0.2135 13.13033,0.74726 19.53538,1.60126 6.40505,0.85401 12.81009,2.08164 19.21513,3.6829 a 228.14635,228.14635 0 0 1 20.49614,6.24492 228.93364,228.93364 0 0 1 21.13665,-6.56517 c 7.04556,-1.81476 13.6641,-2.72215 19.85564,-2.72215 v 2.56203 c -5.76454,0.854 -11.4757,2.08164 -17.1335,3.68289 a 79.038917,79.038917 0 0 0 -16.17273,6.56518 70.532216,70.532216 0 0 1 20.33602,18.25437 c 5.65778,7.47255 8.48668,16.01261 8.48668,25.62018 0,10.67508 -2.56201,19.74888 -7.68605,27.22144 -5.12404,7.47256 -11.68921,13.55735 -19.69552,18.25438 -8.0063,4.69703 -16.81323,8.16643 -26.4208,10.4082 -9.60757,2.24176 -18.89489,3.57614 -27.86195,4.00315 v 0.6405 c 6.40505,2.77552 12.11621,6.83205 17.13349,12.16958 5.0173,5.33755 7.52593,12.06284 7.52593,20.1759 a 67.453125,67.453125 0 0 1 -3.04239,19.85564 343.5806,343.5806 0 0 1 -6.56518,19.37525 1037.2703,1037.2703 0 0 0 -6.56516,18.09425 c -2.02826,5.76454 -3.0424,11.20883 -3.0424,16.33287 0,6.61855 2.45526,9.92782 7.3658,9.92782 6.19155,0 13.55734,-2.66877 22.0974,-8.0063 8.54006,-5.33755 17.61388,-12.8101 27.22144,-22.41767 a 255.5079,255.5079 0 0 0 13.61072,-14.73159 1037.1102,1037.1102 0 0 0 12.48984,-14.89174 c 3.94977,-4.80378 7.47255,-9.34068 10.56832,-13.61071 3.09578,-4.27003 5.71117,-7.79281 7.84618,-10.56833 l 2.56201,2.24176 c -5.33753,7.47256 -11.63582,15.79912 -18.89487,24.97968 a 387.81544,387.81544 0 0 1 -23.05816,26.58093 c -10.67507,10.88858 -21.13665,19.64215 -31.38472,26.26069 -10.24807,6.61855 -21.02989,9.92782 -32.34547,9.92782 -8.11306,0 -14.5181,-2.24177 -19.21514,-6.7253 -4.69703,-4.48353 -7.04555,-10.46157 -7.04555,-17.93412 0,-6.83205 1.33439,-13.98435 4.00315,-21.45691 2.66878,-7.47255 5.60442,-14.83834 8.80695,-22.0974 3.20251,-7.25905 6.13816,-13.98434 8.80693,-20.17589 2.66877,-6.19154 4.00315,-11.20883 4.00315,-15.05185 0,-4.05653 -0.53375,-7.20567 -1.60126,-9.44744 a 12.419782,12.419782 0 0 0 -4.64366,-5.28416 c -2.02826,-1.28102 -4.43015,-2.18839 -7.20568,-2.72214 -2.77551,-0.53376 -5.87128,-1.01413 -9.2873,-1.44114 l 0.6405,-2.56202 c 3.20252,0.2135 6.40504,0.2135 9.60757,0 a 177.80671,177.80671 0 0 0 11.84933,-1.28101 c 8.96706,-1.28101 16.70649,-4.3234 23.21829,-9.12719 6.51179,-4.80378 11.84933,-10.24807 16.01261,-16.33286 4.16328,-6.0848 7.20567,-12.38309 9.12718,-18.89488 1.92152,-6.5118 2.88228,-12.11622 2.88228,-16.81325 0,-6.83204 -0.96076,-12.59658 -2.88228,-17.29361 -1.92151,-4.69703 -5.33753,-9.39407 -10.24807,-14.09111 -13.87759,10.03458 -25.94043,22.36429 -36.1885,36.98914 a 552.92214,552.92214 0 0 0 -28.98283,46.11632 c -9.07381,16.11937 -18.14763,32.13198 -27.22143,48.03783 -9.07381,15.90586 -19.48202,30.21046 -31.22459,42.9138 a 144.78736,144.78736 0 0 1 -40.83217,30.90435 c -15.47885,7.89955 -34.21361,11.84933 -56.20426,11.84933 -5.97805,0 -12.27634,-0.74726 -18.89488,-2.24177 -6.61855,-1.49451 -12.64997,-3.8964 -18.09426,-7.20567 a 42.843743,42.843743 0 0 1 -13.45058,-12.8101 c -3.52278,-5.23079 -5.28417,-11.4757 -5.28417,-18.73475 0,-5.97804 1.65463,-11.2622 4.96391,-15.85248 3.30927,-4.59029 7.52593,-6.88542 12.64997,-6.88542 4.27002,0 8.11305,1.281 11.52908,3.84301 3.41602,2.56203 5.12403,6.0848 5.12403,10.56833 0,4.27003 -1.06751,7.63268 -3.20252,10.08795 -2.13502,2.45527 -5.23078,3.8964 -9.28732,4.3234 0,11.31558 3.04239,19.32189 9.12719,24.01892 6.0848,4.69703 14.35798,7.04555 24.81955,7.04555 11.95608,0 22.63116,-2.56202 32.02522,-7.68605 9.39407,-5.12404 18.14763,-12.00946 26.26068,-20.65628 8.11306,-8.6468 15.69236,-18.628 22.73791,-29.94358 a 1044.8329,1044.8329 0 0 0 21.13664,-35.548 2390.4593,2390.4593 0 0 1 21.77716,-37.4695 c 7.47255,-12.59659 15.58561,-24.55267 24.33917,-35.86825 a 207.50342,207.50342 0 0 1 28.98282,-30.58409 c 10.56833,-9.07382 22.47104,-16.27949 35.70813,-21.61703 a 89.370387,89.370387 0 0 0 -17.13349,-6.72529 141.9985,141.9985 0 0 0 -17.93412,-3.84303 161.85081,161.85081 0 0 0 -16.65313,-1.60126 339.75759,339.75759 0 0 0 -13.61072,-0.32025 c -16.65311,0 -33.73323,2.77551 -51.24035,8.32655 -17.50712,5.55104 -33.41299,13.39722 -47.71758,23.53854 -14.3046,10.14132 -26.04718,22.31091 -35.22775,36.50875 -9.18057,14.19786 -13.77084,29.94359 -13.77084,47.23721 0,11.52908 3.30927,20.86977 9.92782,28.02207 6.61854,7.1523 15.7991,10.72845 27.54169,10.72845 9.18056,0 17.5605,-2.45526 25.13979,-7.3658 7.57931,-4.91054 14.14448,-11.15545 19.69552,-18.73475 a 92.619613,92.619613 0 0 0 12.97022,-24.97968 c 3.09577,-9.07381 4.64365,-17.88075 4.64365,-26.42081 0,-1.92151 -0.0534,-4.27003 -0.16013,-7.04555 a 263.78775,263.78775 0 0 0 -0.48037,-8.64681 z"
     style="fill-rule:nonzero;stroke-width:3.33596"
     id="path1" /><path
     d="m 1154.8217,417.65934 a 81.317378,81.317378 0 0 1 -15.212,15.05186 c -5.8713,4.48353 -12.3297,6.7253 -19.3753,6.7253 -4.9105,0 -9.1805,-1.06751 -12.81,-3.20252 -3.6296,-2.13502 -6.9388,-5.12404 -9.9279,-8.96707 a 102.94774,102.94774 0 0 1 -12.6499,30.26384 106.52056,106.52056 0 0 1 -21.2968,24.97967 100.54252,100.54252 0 0 1 -27.8619,16.97337 84.299726,84.299726 0 0 1 -32.0252,6.24492 c -11.74261,0 -21.13667,-3.36265 -28.18222,-10.08795 -7.04555,-6.72529 -10.56833,-15.95923 -10.56833,-27.70181 0,-11.31558 2.88228,-22.15078 8.64682,-32.50561 a 97.977162,97.977162 0 0 1 22.41765,-27.22144 114.10987,114.10987 0 0 1 30.42398,-18.57462 c 11.1021,-4.59029 21.9906,-6.88542 32.6657,-6.88542 11.5291,0 20.6029,3.09577 27.2215,9.28731 6.6185,6.19154 10.675,13.66409 12.1695,22.41766 1.0675,6.40504 3.4695,11.52907 7.2057,15.3721 3.7363,3.84302 8.5935,5.76454 14.5714,5.76454 5.7646,0 11.2089,-1.70801 16.3329,-5.12403 5.1241,-3.41603 10.5684,-8.54006 16.3329,-15.37211 z m -148.9173,84.22635 c 5.3376,0 10.6751,-1.81477 16.0126,-5.44429 5.3376,-3.62953 10.4616,-8.32656 15.3722,-14.0911 4.9105,-5.76454 9.4474,-12.27634 13.6107,-19.53539 a 207.08977,207.08977 0 0 0 10.8885,-21.77715 c 3.0958,-7.25905 5.4978,-14.19784 7.2057,-20.81639 1.708,-6.61855 2.562,-12.16959 2.562,-16.65312 0,-5.33754 -1.1208,-9.50081 -3.3626,-12.48984 -2.2418,-2.98902 -5.8179,-4.48353 -10.7285,-4.48353 -5.3375,0 -10.675,1.81476 -16.0126,5.44429 -5.3375,3.62952 -10.4615,8.32656 -15.3721,14.09109 -4.9105,5.76454 -9.4474,12.27634 -13.6107,19.53539 a 207.08977,207.08977 0 0 0 -10.8886,21.77715 c -3.09573,7.25906 -5.49763,14.19786 -7.20564,20.8164 -1.70801,6.61855 -2.56201,12.16958 -2.56201,16.65311 0,5.33754 1.12087,9.50082 3.36265,12.48984 2.24176,2.98902 5.8179,4.48354 10.7284,4.48354 z"
     style="fill-rule:nonzero;stroke-width:3.33596"
     id="path2" /><path
     d="m 1154.1812,445.52129 a 1441.1917,1441.1917 0 0 1 12.9702,-16.33286 c 5.6578,-7.04555 12.1163,-13.98435 19.3753,-20.81639 a 144.71398,144.71398 0 0 1 23.3784,-17.93413 c 8.3265,-5.12404 16.6531,-7.68605 24.9796,-7.68605 7.0457,0 12.3832,1.97488 16.0127,5.92466 3.6295,3.94978 5.4442,8.80694 5.4442,14.57148 0,7.25904 -2.2951,14.67823 -6.8854,22.25752 a 312.49612,312.49612 0 0 1 -15.212,22.73792 558.48653,558.48653 0 0 0 -15.2119,21.77715 c -4.5903,6.9388 -6.8855,13.39722 -6.8855,19.37525 0,2.56203 0.6405,4.64367 1.9216,6.24492 1.281,1.60126 3.416,2.4019 6.405,2.4019 2.989,0 7.953,-2.29514 14.8918,-6.88543 6.9388,-4.59028 16.2794,-13.07697 28.022,-25.46005 a 634.68654,634.68654 0 0 0 25.2999,-28.66257 c 7.6861,-9.28732 13.4507,-16.2795 17.2937,-20.97653 l 3.2025,1.60126 a 4423.5839,4423.5839 0 0 0 -20.4962,24.65943 540.2922,540.2922 0 0 1 -25.9404,29.14295 c -11.1021,11.74258 -20.5496,20.06914 -28.3423,24.97968 -7.7928,4.91053 -15.8525,7.3658 -24.1791,7.3658 -8.113,0 -14.0911,-2.24177 -17.9341,-6.7253 -3.843,-4.48353 -5.7645,-9.60757 -5.7645,-15.37211 0,-7.25905 2.2951,-14.7316 6.8854,-22.41766 a 253.36621,253.36621 0 0 1 15.212,-22.57777 659.35263,659.35263 0 0 0 15.2119,-20.97653 c 4.5904,-6.61855 6.8855,-12.38309 6.8855,-17.29361 0,-2.34852 -0.7472,-4.27004 -2.2418,-5.76454 -1.4945,-1.49452 -3.7363,-2.24177 -6.7252,-2.24177 -4.2701,0 -9.2874,1.97488 -15.0519,5.92467 -5.7645,3.94977 -11.8494,9.0738 -18.2544,15.3721 -6.405,6.29829 -12.9168,13.45059 -19.5354,21.4569 a 524.98013,524.98013 0 0 0 -18.7348,24.01891 393.71008,393.71008 0 0 0 -15.8525,23.21829 c -4.697,7.47256 -8.4333,13.8776 -11.2087,19.21514 l -32.3455,0.96075 c 11.3156,-18.78813 22.6845,-37.41613 34.1068,-55.88401 a 1902.4984,1902.4984 0 0 0 33.7866,-56.84477 l 36.5088,-1.28101 -41.6328,58.28591 z m 329.5396,-55.72389 33.3061,-1.92151 c -1.9215,3.84302 -4.6969,8.48669 -8.3265,13.93097 a 2739.6077,2739.6077 0 0 1 -11.8494,17.61387 1244.5235,1244.5235 0 0 0 -12.9702,19.53539 424.28083,424.28083 0 0 0 -12.0094,19.53539 c -3.6295,6.29829 -6.5652,12.16958 -8.8069,17.61387 -2.2418,5.44428 -3.3626,10.08795 -3.3626,13.93097 0,5.33754 2.6687,8.00631 8.0062,8.00631 5.124,0 12.0628,-2.98902 20.8164,-8.96707 8.7536,-5.97804 17.9342,-13.87759 27.5417,-23.69866 a 299.78944,299.78944 0 0 0 12.3297,-13.13034 c 4.1633,-4.69703 8.1664,-9.3407 12.0095,-13.93097 a 1061.4893,1061.4893 0 0 0 10.5683,-12.8101 c 3.2025,-3.94977 5.7645,-7.20566 7.6861,-9.76769 l 2.2418,1.28101 a 884.20306,884.20306 0 0 1 -19.2152,24.81955 c -7.259,9.07381 -16.0126,18.73476 -26.2607,28.98283 -10.248,10.24807 -20.336,18.628 -30.2639,25.1398 -9.9277,6.51179 -19.8022,9.76769 -29.6233,9.76769 -6.832,0 -12.1162,-1.76139 -15.8524,-5.28416 -3.7363,-3.52278 -5.6045,-7.84618 -5.6045,-12.97022 0,-1.70801 0.1068,-3.30928 0.3203,-4.80378 0.2135,-1.49451 0.5338,-2.66877 0.9607,-3.52278 h -0.6405 a 99.461666,99.461666 0 0 1 -22.4176,18.89489 c -8.3265,5.12403 -17.2937,7.68605 -26.9012,7.68605 -5.124,0 -9.5008,-0.96076 -13.1303,-2.88227 a 24.035597,24.035597 0 0 1 -8.807,-7.84618 35.544661,35.544661 0 0 1 -4.9639,-11.20882 52.014299,52.014299 0 0 1 -1.6013,-12.97022 c 0,-10.46158 2.8823,-20.92315 8.6469,-31.38472 a 118.77021,118.77021 0 0 1 21.7771,-28.34232 113.27255,113.27255 0 0 1 29.3031,-20.49614 c 10.7818,-5.23079 21.0833,-7.84618 30.9043,-7.84618 7.4726,0 13.3439,1.60125 17.6139,4.80378 4.27,3.20252 7.7929,8.21981 10.5683,15.05186 z m -96.0757,81.98457 c 0,6.19155 1.0141,11.58246 3.0424,16.17274 2.0282,4.59028 6.3517,6.88542 12.9702,6.88542 4.4835,-0.2135 9.1806,-2.08164 14.091,-5.60441 4.9106,-3.52278 9.661,-7.95293 14.2513,-13.29046 a 156.44655,156.44655 0 0 0 13.1303,-17.774 171.39165,171.39165 0 0 0 10.8886,-19.69552 c 3.0958,-6.61854 5.551,-12.86346 7.3658,-18.73476 1.8148,-5.87128 2.7222,-10.83519 2.7222,-14.89172 0,-5.76454 -1.0676,-10.24807 -3.2025,-13.4506 -2.1351,-3.20252 -6.2983,-4.80378 -12.4899,-4.80378 -4.9105,0 -9.8744,1.49451 -14.8917,4.48353 -5.0173,2.98903 -9.8211,6.9388 -14.4114,11.84934 a 139.16627,139.16627 0 0 0 -13.1304,16.49298 132.07736,132.07736 0 0 0 -10.7284,18.73476 c -2.989,6.40505 -5.3375,12.54322 -7.0455,18.4145 -1.708,5.87129 -2.562,10.94195 -2.562,15.21198 z"
     style="fill-rule:nonzero;stroke-width:3.33596"
     id="path3" /><path
     d="m 1560.2611,445.52129 a 1441.1917,1441.1917 0 0 1 12.9702,-16.33286 c 5.6578,-7.04555 12.1161,-13.98435 19.3752,-20.81639 a 144.71398,144.71398 0 0 1 23.3784,-17.93413 c 8.3266,-5.12404 16.6531,-7.68605 24.9797,-7.68605 7.0455,0 12.3831,1.97488 16.0126,5.92466 3.6295,3.94978 5.4443,8.80694 5.4443,14.57148 0,7.25904 -2.2952,14.67823 -6.8854,22.25752 a 312.49612,312.49612 0 0 1 -15.212,22.73792 558.48653,558.48653 0 0 0 -15.212,21.77715 c -4.5903,6.9388 -6.8854,13.39722 -6.8854,19.37525 0,2.56203 0.6405,4.64367 1.9215,6.24492 1.281,1.60126 3.416,2.4019 6.405,2.4019 2.989,0 7.9529,-2.29514 14.8917,-6.88543 6.9388,-4.59028 16.2796,-13.07697 28.0221,-25.46005 a 634.68654,634.68654 0 0 0 25.2999,-28.66257 c 7.6861,-9.28732 13.4506,-16.2795 17.2937,-20.97653 l 3.2025,1.60126 a 4423.5839,4423.5839 0 0 0 -20.4962,24.65943 540.2922,540.2922 0 0 1 -25.9404,29.14295 c -11.102,11.74258 -20.5495,20.06914 -28.3423,24.97968 -7.7928,4.91053 -15.8525,7.3658 -24.1791,7.3658 -8.113,0 -14.091,-2.24177 -17.934,-6.7253 -3.8431,-4.48353 -5.7646,-9.60757 -5.7646,-15.37211 0,-7.25905 2.2952,-14.7316 6.8854,-22.41766 a 253.36621,253.36621 0 0 1 15.212,-22.57777 659.35263,659.35263 0 0 0 15.212,-20.97653 c 4.5902,-6.61855 6.8854,-12.38309 6.8854,-17.29361 0,-2.34852 -0.7473,-4.27004 -2.2418,-5.76454 -1.4944,-1.49452 -3.7363,-2.24177 -6.7253,-2.24177 -4.27,0 -9.2872,1.97488 -15.0518,5.92467 -5.7645,3.94977 -11.8493,9.0738 -18.2544,15.3721 -6.405,6.29829 -12.9169,13.45059 -19.5354,21.4569 a 524.98013,524.98013 0 0 0 -18.7347,24.01891 393.71008,393.71008 0 0 0 -15.8525,23.21829 c -4.697,7.47256 -8.4333,13.8776 -11.2088,19.21514 l -32.3456,0.96075 c 11.3156,-18.78813 22.6846,-37.41613 34.107,-55.88401 a 1902.4984,1902.4984 0 0 0 33.7866,-56.84477 l 36.5087,-1.28101 -41.6327,58.28591 z"
     style="fill-rule:nonzero;stroke-width:3.33596"
     id="path4" /><path
     d="m 1872.5069,279.63064 35.8683,-1.92152 a 1689.2304,1689.2304 0 0 1 -24.1791,38.27014 c -9.0737,13.98435 -18.3611,28.23558 -27.8619,42.75368 a 9382.8131,9382.8131 0 0 0 -28.0221,43.07392 1203.5412,1203.5412 0 0 0 -24.4993,39.39102 c -7.1522,12.06284 -12.9168,22.57778 -17.2936,31.54485 -4.3767,8.96706 -6.5651,15.47886 -6.5651,19.53539 0,2.34851 0.5337,4.21665 1.6012,5.60441 1.0675,1.38776 2.7756,2.08164 5.124,2.08164 4.4836,0 10.6218,-2.24176 18.4145,-6.7253 7.7928,-4.48353 16.4931,-11.74258 26.1006,-21.77715 a 459.91222,459.91222 0 0 0 22.7379,-25.1398 c 7.259,-8.64681 15.1586,-18.628 23.6987,-29.94358 l 3.2025,1.60125 c -2.3485,3.20253 -5.1774,6.93881 -8.4867,11.20884 a 657.37107,657.37107 0 0 1 -22.7379,27.70181 c -4.1633,4.80378 -8.2732,9.34069 -12.3297,13.61073 -10.2481,10.67507 -20.0691,19.21513 -29.4632,25.62017 -9.3941,6.40505 -19.4287,9.60757 -30.1037,9.60757 -4.9105,0 -8.9137,-0.80063 -12.0095,-2.4019 -3.0957,-1.60125 -5.551,-3.68289 -7.3658,-6.24491 a 18.848178,18.848178 0 0 1 -3.3627,-8.32656 23.418444,23.418444 0 0 1 0.3203,-8.64681 l -0.6405,-0.64051 a 104.87593,104.87593 0 0 1 -21.7772,17.29363 c -7.8995,4.69703 -16.9733,7.04555 -27.2214,7.04555 -5.124,0 -9.4474,-0.90738 -12.9702,-2.72215 a 24.152355,24.152355 0 0 1 -8.6468,-7.3658 29.840168,29.840168 0 0 1 -4.8038,-10.56833 51.987611,51.987611 0 0 1 -1.4411,-12.3297 c 0,-10.67508 2.7755,-21.29678 8.3266,-31.8651 5.551,-10.56832 12.7033,-20.01576 21.4568,-28.34232 a 113.06905,113.06905 0 0 1 29.143,-20.17589 c 10.675,-5.12404 21.2434,-7.68605 31.705,-7.68605 14.3045,0 23.9121,6.83204 28.8227,20.49614 z m -148.2767,213.28798 c 6.8321,0 13.9309,-3.2559 21.2967,-9.7677 7.3659,-6.51178 14.0911,-14.41134 20.1759,-23.69866 a 151.96969,151.96969 0 0 0 14.8918,-28.98282 c 3.843,-10.03458 5.7645,-18.68138 5.7645,-25.94043 0,-6.19155 -1.6013,-10.72846 -4.8038,-13.61072 -3.2025,-2.88228 -7.259,-4.32341 -12.1696,-4.32341 -6.6185,0 -13.504,3.0424 -20.6562,9.12719 -7.1523,6.08479 -13.7175,13.50397 -19.6956,22.25752 a 136.08384,136.08384 0 0 0 -14.7316,28.18221 c -3.843,10.03456 -5.7645,19.00162 -5.7645,26.90118 0,5.12404 1.1743,9.71432 3.5228,13.77085 2.3485,4.05653 6.4051,6.08479 12.1696,6.08479 z m 187.0272,-48.35808 c 0,-4.05654 0.5338,-8.00631 1.6013,-11.84934 a 32.338803,32.338803 0 0 1 4.9639,-10.40819 25.026378,25.026378 0 0 1 8.3266,-7.36581 c 3.3093,-1.81476 7.2056,-2.72214 11.6892,-2.72214 4.27,0 8.1665,1.22763 11.6892,3.6829 3.5228,2.45526 5.2841,6.03142 5.2841,10.72845 0,5.76454 -2.0816,10.19469 -6.2448,13.29046 -4.1634,3.09578 -8.9138,4.75041 -14.2513,4.96392 -1.0675,2.98902 -1.7613,5.97804 -2.0816,8.96705 a 84.112913,84.112913 0 0 0 -0.4804,8.96707 c 0,7.25905 1.7614,13.39722 5.2842,18.4145 a 39.330976,39.330976 0 0 0 13.4506,12.00946 c 5.4442,2.98902 11.4757,5.17742 18.0942,6.56518 6.6185,1.38776 12.9168,2.08164 18.8949,2.08164 10.6751,0 19.909,-1.92152 27.7018,-5.76455 a 62.085564,62.085564 0 0 0 20.0158,-15.53223 c 5.551,-6.5118 10.0879,-13.93097 13.6107,-22.25753 a 150.64198,150.64198 0 0 0 8.3265,-26.26068 222.90555,222.90555 0 0 0 4.3235,-27.70182 c 0.854,-9.28731 1.4945,-17.9875 1.9215,-26.10056 0.6405,-14.7316 2.6687,-28.71595 6.0847,-41.95304 3.4161,-13.2371 8.4867,-24.81955 15.212,-34.74736 6.7254,-9.92782 15.1587,-17.774 25.3,-23.53855 10.1413,-5.76454 22.2575,-8.6468 36.3486,-8.6468 5.978,0 11.796,0.58712 17.4537,1.76138 5.6578,1.17426 10.6217,3.14914 14.8918,5.92467 4.27,2.77552 7.7394,6.24492 10.4082,10.4082 2.6687,4.16328 4.0031,9.34068 4.0031,15.53223 0,5.12403 -1.0141,9.44744 -3.0424,12.97021 -2.0283,3.52278 -4.697,6.2983 -8.0063,8.32656 -3.3092,2.02827 -7.1522,3.52278 -11.529,4.48354 a 63.306526,63.306526 0 0 1 -13.6107,1.44112 c 2.9889,-4.91053 5.284,-9.71431 6.8853,-14.41134 1.6014,-4.69703 2.4019,-10.03457 2.4019,-16.01261 0,-8.11306 -2.1884,-14.57148 -6.5652,-19.37527 -4.3768,-4.80377 -10.0879,-7.20566 -17.1334,-7.20566 -8.3266,0 -15.212,2.02826 -20.6563,6.08479 -5.4443,4.05652 -9.9812,9.55419 -13.6107,16.49298 -3.6295,6.9388 -6.405,15.05186 -8.3265,24.33917 a 369.43763,369.43763 0 0 0 -4.8038,29.46321 714.87302,714.87302 0 0 0 -3.2026,31.86509 738.81855,738.81855 0 0 1 -3.2025,32.02523 c -1.0675,9.18056 -3.5228,19.10838 -7.3658,29.78345 -3.843,10.67508 -9.7143,20.65628 -17.6139,29.94359 -7.8995,9.28731 -18.201,17.02674 -30.9043,23.21829 -12.7033,6.19153 -28.449,9.28731 -47.2372,9.28731 -9.1806,0 -18.2544,-1.22763 -27.2214,-3.6829 -8.9671,-2.45527 -16.92,-6.24492 -23.8588,-11.36896 a 59.493523,59.493523 0 0 1 -16.8132,-19.21513 c -4.2701,-7.68606 -6.4052,-16.65311 -6.4052,-26.90118 z m 322.8143,-54.76314 33.3062,-1.92151 c -1.9215,3.84302 -4.697,8.48669 -8.3265,13.93097 a 2739.6077,2739.6077 0 0 1 -11.8494,17.61387 1244.5235,1244.5235 0 0 0 -12.9702,19.53539 424.28083,424.28083 0 0 0 -12.0094,19.53539 c -3.6296,6.29829 -6.5652,12.16958 -8.807,17.61387 -2.2417,5.44428 -3.3626,10.08795 -3.3626,13.93097 0,5.33754 2.6688,8.00631 8.0063,8.00631 5.124,0 12.0628,-2.98902 20.8164,-8.96707 8.7536,-5.97804 17.9342,-13.87759 27.5417,-23.69866 a 299.78944,299.78944 0 0 0 12.3297,-13.13034 c 4.1632,-4.69703 8.1664,-9.3407 12.0094,-13.93097 a 1061.4893,1061.4893 0 0 0 10.5684,-12.8101 c 3.2025,-3.94977 5.7645,-7.20566 7.686,-9.76769 l 2.2418,1.28101 a 884.20306,884.20306 0 0 1 -19.2152,24.81955 c -7.259,9.07381 -16.0125,18.73476 -26.2606,28.98283 -10.2481,10.24807 -20.336,18.628 -30.2639,25.1398 -9.9277,6.51179 -19.8022,9.76769 -29.6233,9.76769 -6.8321,0 -12.1162,-1.76139 -15.8525,-5.28416 -3.7362,-3.52278 -5.6044,-7.84618 -5.6044,-12.97022 0,-1.70801 0.1067,-3.30928 0.3203,-4.80378 0.2135,-1.49451 0.5337,-2.66877 0.9607,-3.52278 h -0.6405 a 99.461666,99.461666 0 0 1 -22.4176,18.89489 c -8.3266,5.12403 -17.2937,7.68605 -26.9012,7.68605 -5.1241,0 -9.5009,-0.96076 -13.1304,-2.88227 a 24.035597,24.035597 0 0 1 -8.8069,-7.84618 35.544661,35.544661 0 0 1 -4.9639,-11.20882 52.014299,52.014299 0 0 1 -1.6013,-12.97022 c 0,-10.46158 2.8823,-20.92315 8.6469,-31.38472 a 118.77021,118.77021 0 0 1 21.7771,-28.34232 113.27255,113.27255 0 0 1 29.3031,-20.49614 c 10.7818,-5.23079 21.0833,-7.84618 30.9043,-7.84618 7.4725,0 13.3438,1.60125 17.6139,4.80378 4.27,3.20252 7.7928,8.21981 10.5683,15.05186 z m -96.0756,81.98457 c 0,6.19155 1.0141,11.58246 3.0423,16.17274 2.0283,4.59028 6.3517,6.88542 12.9702,6.88542 4.4836,-0.2135 9.1807,-2.08164 14.0911,-5.60441 4.9106,-3.52278 9.661,-7.95293 14.2512,-13.29046 a 156.44655,156.44655 0 0 0 13.1304,-17.774 171.39165,171.39165 0 0 0 10.8886,-19.69552 c 3.0957,-6.61854 5.551,-12.86346 7.3658,-18.73476 1.8148,-5.87128 2.7222,-10.83519 2.7222,-14.89172 0,-5.76454 -1.0676,-10.24807 -3.2026,-13.4506 -2.135,-3.20252 -6.2983,-4.80378 -12.4898,-4.80378 -4.9106,0 -9.8745,1.49451 -14.8917,4.48353 -5.0173,2.98903 -9.8212,6.9388 -14.4114,11.84934 a 139.16627,139.16627 0 0 0 -13.1304,16.49298 132.07736,132.07736 0 0 0 -10.7284,18.73476 c -2.989,6.40505 -5.3376,12.54322 -7.0455,18.4145 -1.7081,5.87129 -2.562,10.94195 -2.562,15.21198 z"
     style="fill-rule:nonzero;stroke-width:3.33596"
     id="path5" /><path
     d="m 2310.612,445.52129 a 1441.1917,1441.1917 0 0 1 12.9702,-16.33286 c 5.6577,-7.04555 12.1162,-13.98435 19.3753,-20.81639 a 144.71398,144.71398 0 0 1 23.3784,-17.93413 c 8.3266,-5.12404 16.6531,-7.68605 24.9796,-7.68605 7.0456,0 12.3832,1.97488 16.0126,5.92466 3.6296,3.94978 5.4444,8.80694 5.4444,14.57148 0,7.25904 -2.2952,14.67823 -6.8854,22.25752 a 312.49612,312.49612 0 0 1 -15.2121,22.73792 558.48653,558.48653 0 0 0 -15.2119,21.77715 c -4.5903,6.9388 -6.8855,13.39722 -6.8855,19.37525 0,2.56203 0.6405,4.64367 1.9215,6.24492 1.281,1.60126 3.4161,2.4019 6.4051,2.4019 2.989,0 7.9529,-2.29514 14.8917,-6.88543 6.9388,-4.59028 16.2796,-13.07697 28.0221,-25.46005 a 634.68654,634.68654 0 0 0 25.2999,-28.66257 c 7.6861,-9.28732 13.4506,-16.2795 17.2936,-20.97653 l 3.2026,1.60126 a 4423.5839,4423.5839 0 0 0 -20.4962,24.65943 540.2922,540.2922 0 0 1 -25.9404,29.14295 c -11.102,11.74258 -20.5495,20.06914 -28.3423,24.97968 -7.7928,4.91053 -15.8525,7.3658 -24.1791,7.3658 -8.1131,0 -14.0911,-2.24177 -17.9341,-6.7253 -3.843,-4.48353 -5.7645,-9.60757 -5.7645,-15.37211 0,-7.25905 2.2951,-14.7316 6.8854,-22.41766 a 253.36621,253.36621 0 0 1 15.212,-22.57777 659.35263,659.35263 0 0 0 15.2119,-20.97653 c 4.5903,-6.61855 6.8855,-12.38309 6.8855,-17.29361 0,-2.34852 -0.7473,-4.27004 -2.2418,-5.76454 -1.4945,-1.49452 -3.7363,-2.24177 -6.7253,-2.24177 -4.27,0 -9.2873,1.97488 -15.0518,5.92467 -5.7646,3.94977 -11.8494,9.0738 -18.2544,15.3721 -6.405,6.29829 -12.9169,13.45059 -19.5354,21.4569 a 524.98013,524.98013 0 0 0 -18.7347,24.01891 393.71008,393.71008 0 0 0 -15.8526,23.21829 c -4.697,7.47256 -8.4332,13.8776 -11.2088,19.21514 l -32.3455,0.96075 c 11.3156,-18.78813 22.6846,-37.41613 34.1069,-55.88401 a 1902.4984,1902.4984 0 0 0 33.7867,-56.84477 l 36.5086,-1.28101 -41.6327,58.28591 z"
     style="fill-rule:nonzero;stroke-width:3.33596"
     id="path6" /><path
     d="m 2622.8579,279.63064 35.8683,-1.92152 a 1689.2304,1689.2304 0 0 1 -24.1791,38.27014 c -9.0738,13.98435 -18.3611,28.23558 -27.8619,42.75368 a 9382.8131,9382.8131 0 0 0 -28.0221,43.07392 1203.5412,1203.5412 0 0 0 -24.4993,39.39102 c -7.1523,12.06284 -12.9168,22.57778 -17.2936,31.54485 -4.3768,8.96706 -6.5652,15.47886 -6.5652,19.53539 0,2.34851 0.5338,4.21665 1.6013,5.60441 1.0675,1.38776 2.7755,2.08164 5.124,2.08164 4.4835,0 10.6217,-2.24176 18.4145,-6.7253 7.7928,-4.48353 16.493,-11.74258 26.1006,-21.77715 a 459.91222,459.91222 0 0 0 22.7379,-25.1398 c 7.259,-8.64681 15.1586,-18.628 23.6986,-29.94358 l 3.2026,1.60125 c -2.3486,3.20253 -5.1774,6.93881 -8.4867,11.20884 a 657.37107,657.37107 0 0 1 -22.738,27.70181 c -4.1632,4.80378 -8.2731,9.34069 -12.3297,13.61073 -10.248,10.67507 -20.069,19.21513 -29.4631,25.62017 -9.3941,6.40505 -19.4287,9.60757 -30.1038,9.60757 -4.9105,0 -8.9136,-0.80063 -12.0094,-2.4019 -3.0958,-1.60125 -5.551,-3.68289 -7.3658,-6.24491 a 18.848178,18.848178 0 0 1 -3.3627,-8.32656 23.418444,23.418444 0 0 1 0.3203,-8.64681 l -0.6405,-0.64051 a 104.87593,104.87593 0 0 1 -21.7772,17.29363 c -7.8995,4.69703 -16.9733,7.04555 -27.2214,7.04555 -5.1241,0 -9.4474,-0.90738 -12.9702,-2.72215 a 24.152355,24.152355 0 0 1 -8.6468,-7.3658 29.840168,29.840168 0 0 1 -4.8038,-10.56833 51.987611,51.987611 0 0 1 -1.4412,-12.3297 c 0,-10.67508 2.7756,-21.29678 8.3266,-31.8651 5.551,-10.56832 12.7034,-20.01576 21.4569,-28.34232 a 113.06905,113.06905 0 0 1 29.1429,-20.17589 c 10.6751,-5.12404 21.2435,-7.68605 31.7051,-7.68605 14.3045,0 23.9121,6.83204 28.8226,20.49614 z m -148.2767,213.28798 c 6.8319,0 13.9309,-3.2559 21.2967,-9.7677 7.3658,-6.51178 14.0911,-14.41134 20.1759,-23.69866 a 151.96969,151.96969 0 0 0 14.8917,-28.98282 c 3.8431,-10.03458 5.7646,-18.68138 5.7646,-25.94043 0,-6.19155 -1.6013,-10.72846 -4.8038,-13.61072 -3.2026,-2.88228 -7.2591,-4.32341 -12.1696,-4.32341 -6.6185,0 -13.504,3.0424 -20.6563,9.12719 -7.1522,6.08479 -13.7174,13.50397 -19.6955,22.25752 a 136.08384,136.08384 0 0 0 -14.7316,28.18221 c -3.843,10.03456 -5.7645,19.00162 -5.7645,26.90118 0,5.12404 1.1743,9.71432 3.5227,13.77085 2.3485,4.05653 6.4051,6.08479 12.1697,6.08479 z"
     style="fill-rule:nonzero;stroke-width:3.33596"
     id="path7" /><path
     d="m 2672.1768,387.87589 c -10.0346,15.79911 -18.6815,29.30308 -25.9405,40.51191 -7.259,11.20882 -13.1837,20.76301 -17.774,28.66257 -4.5903,7.89956 -8.0063,14.35798 -10.2481,19.37526 -2.2417,5.01728 -3.3626,9.12718 -3.3626,12.32971 0,2.56202 0.4804,4.64365 1.4411,6.24492 0.9608,1.60126 2.4019,2.40189 4.3234,2.40189 4.2701,0 10.3015,-2.45527 18.0943,-7.3658 7.7928,-4.91053 17.5605,-13.34385 29.303,-25.29993 a 1636.9226,1636.9226 0 0 0 13.7709,-14.57147 655.89657,655.89657 0 0 0 12.65,-13.93097 c 3.9498,-4.48354 7.4725,-8.54006 10.5683,-12.16959 3.0958,-3.62953 5.6044,-6.51179 7.526,-8.64681 l 2.8822,1.92151 a 242.12402,242.12402 0 0 1 -9.4474,11.68921 914.39683,914.39683 0 0 1 -12.0095,13.77085 545.78985,545.78985 0 0 1 -13.1303,14.25122 809.20398,809.20398 0 0 1 -13.1304,13.4506 c -12.3831,12.38308 -23.0048,21.02989 -31.8651,25.94043 -8.8603,4.91053 -17.0267,7.3658 -24.4993,7.3658 -7.0455,0 -12.4898,-1.92151 -16.3328,-5.76454 -3.8431,-3.84303 -5.7646,-8.86031 -5.7646,-15.05186 0,-4.27003 0.8007,-8.70019 2.4019,-13.29047 1.6013,-4.59028 4.3235,-10.30144 8.1665,-17.13349 3.843,-6.83205 8.967,-15.31873 15.3721,-25.46005 6.405,-10.14133 14.4113,-22.68454 24.0189,-37.62964 z m 18.5746,-71.096 c 4.0565,0 7.6327,1.49452 10.7285,4.48354 3.0957,2.98902 4.6436,6.51179 4.6436,10.56832 0,4.27003 -1.708,8.16643 -5.124,11.68921 -3.4161,3.52277 -7.2591,5.28416 -11.5292,5.28416 -4.6969,0 -8.7535,-1.22763 -12.1695,-3.6829 -3.416,-2.45527 -5.124,-6.13817 -5.124,-11.04871 0,-4.91053 1.8681,-9.02043 5.6043,-12.32971 3.7363,-3.30927 8.0598,-4.96391 12.9703,-4.96391 z M 856.66357,718.26943 c 7.68605,-14.9451 17.18687,-29.08957 28.50245,-42.43341 11.31558,-13.34385 23.75203,-25.03305 37.30939,-35.06762 13.55734,-10.03457 28.02206,-17.98751 43.39416,-23.8588 15.37211,-5.87128 30.95773,-8.80693 46.75683,-8.80693 3.843,0 7.9529,0.37363 12.3297,1.12088 4.3768,0.74726 8.3266,1.97489 11.8493,3.6829 3.5228,1.70801 6.4585,3.89641 8.807,6.56517 2.3485,2.66877 3.5227,5.92467 3.5227,9.76769 0,3.84303 -1.3343,6.72531 -4.0031,8.64682 -2.6688,1.92151 -5.8179,2.88227 -9.4474,2.88227 -3.8431,0 -6.9388,-1.38776 -9.2874,-4.16328 a 95.368439,95.368439 0 0 1 -6.8854,-9.28732 58.379312,58.379312 0 0 0 -7.5259,-9.28731 c -2.7755,-2.77552 -6.6185,-4.16328 -11.5291,-4.16328 -7.89954,0 -15.31871,1.38776 -22.25751,4.16328 -6.9388,2.77552 -13.34385,6.24492 -19.21513,10.4082 a 144.04011,144.04011 0 0 0 -16.33287,13.45059 c -5.01728,4.80378 -9.55419,9.34069 -13.61072,13.61072 -7.89956,8.54006 -15.7991,18.78813 -23.69866,30.74421 a 277.77878,277.77878 0 0 0 -20.97653,37.94989 283.64339,283.64339 0 0 0 -14.89172,40.35178 c -3.84303,13.55735 -5.76454,26.31406 -5.76454,38.27015 0,2.77551 0.26688,5.60441 0.80062,8.48668 0.53376,2.88226 1.44114,5.49766 2.72215,7.84618 1.28101,2.34851 2.98903,4.27002 5.12403,5.76454 2.13502,1.4945 4.80379,2.24176 8.00631,2.24176 4.05653,0 8.54006,-1.54788 13.4506,-4.64365 4.91053,-3.09578 10.03457,-7.1523 15.3721,-12.16958 a 298.12813,298.12813 0 0 0 16.17274,-16.493 366.09166,366.09166 0 0 0 15.21199,-17.774 1941.8127,1941.8127 0 0 0 21.77715,-27.70182 l 2.88226,2.24177 a 4130.6866,4130.6866 0 0 0 -19.69551,25.46005 326.93082,326.93082 0 0 1 -25.46005,29.30308 c -9.18057,9.39407 -18.68138,17.40037 -28.50245,24.01892 -9.82107,6.61854 -19.42863,9.92782 -28.82269,9.92782 -5.76455,0 -10.56833,-1.06751 -14.41136,-3.20252 -3.84303,-2.13502 -6.88542,-4.96391 -9.12718,-8.48669 -2.24177,-3.52278 -3.84303,-7.5793 -4.80379,-12.16958 a 71.012595,71.012595 0 0 1 -1.44113,-14.57148 c 0,-13.45059 2.13501,-27.06131 6.40504,-40.83216 4.27003,-13.77085 9.28731,-26.42081 15.05185,-37.94989 h -47.71758 a 419.22685,419.22685 0 0 1 -25.29992,43.87456 c -9.18057,13.8776 -19.53539,26.10055 -31.06447,36.66888 -11.52908,10.56832 -24.60605,19.00163 -39.2309,25.29992 -14.62485,6.29829 -31.33134,9.44744 -50.11947,9.44744 -5.33753,0 -11.31558,-0.69388 -17.93413,-2.08164 a 71.352863,71.352863 0 0 1 -18.73475,-6.72529 c -5.87129,-3.09577 -10.72845,-7.04555 -14.57148,-11.84933 -3.84303,-4.80379 -5.76454,-10.6217 -5.76454,-17.45375 0,-2.98902 0.37363,-6.03141 1.12089,-9.12719 a 26.480856,26.480856 0 0 1 3.52277,-8.32656 18.9616,18.9616 0 0 1 6.0848,-5.92467 c 2.45526,-1.4945 5.49765,-2.24176 9.12718,-2.24176 4.27003,0 7.89956,1.44114 10.88858,4.3234 2.98902,2.88228 4.48353,6.45842 4.48353,10.72846 0,8.96706 -4.05653,13.77085 -12.16959,14.41135 0,10.46157 2.6154,18.14762 7.84618,23.05816 5.23079,4.91053 12.86347,7.36579 22.89803,7.36579 11.95609,0 22.36429,-1.86813 31.2246,-5.60441 8.86031,-3.73627 17.66725,-9.98119 26.4208,-18.73475 12.59659,-12.59659 22.7913,-25.1398 30.5841,-37.62964 a 531.3318,531.3318 0 0 0 21.13664,-36.98913 c 6.29829,-12.16959 12.59659,-24.01892 18.89488,-35.54799 6.2983,-11.52909 14.14448,-22.52441 23.53854,-32.98599 9.39407,-10.46157 21.19002,-20.38939 35.38788,-29.78345 14.19784,-9.39407 32.29209,-17.93413 54.28275,-25.62018 v -0.6405 c -11.95608,0 -25.3533,0.48037 -40.19166,1.44112 -14.83835,0.96077 -29.94358,2.6154 -45.31569,4.96392 a 379.3521,379.3521 0 0 0 -44.83531,9.60757 c -14.5181,4.05652 -27.43494,9.34068 -38.75052,15.85248 -11.31558,6.51179 -20.44277,14.25122 -27.38157,23.21828 -6.93879,8.96707 -10.40819,19.64215 -10.40819,32.02523 0,8.96706 2.45527,16.38623 7.3658,22.25753 4.91053,5.87129 11.74258,8.80693 20.49614,8.80693 6.19154,0 12.00946,-1.17425 17.45375,-3.52277 a 44.641826,44.641826 0 0 0 14.41135,-9.92782 c 4.16328,-4.27003 7.47255,-9.28731 9.92782,-15.05185 2.45527,-5.76454 3.6829,-12.06284 3.6829,-18.89489 0,-3.41602 -0.42701,-6.77867 -1.28101,-10.08794 -0.85401,-3.30928 -1.81477,-6.13816 -2.88227,-8.48668 l 3.20252,-0.6405 c 1.28101,2.34851 2.40189,5.33753 3.36265,8.96705 0.96075,3.62953 1.44114,7.04556 1.44114,10.24807 0,9.18057 -1.81477,17.18688 -5.44429,24.01892 -3.62953,6.83205 -8.37994,12.54321 -14.25123,17.1335 -5.87129,4.59028 -12.64996,8.05968 -20.33601,10.40819 a 81.731037,81.731037 0 0 1 -24.01893,3.52278 c -11.74257,0 -21.35014,-3.62953 -28.82269,-10.88857 -7.47255,-7.25906 -11.20883,-16.86663 -11.20883,-28.82271 0,-11.95608 3.36265,-22.52441 10.08794,-31.70497 6.7253,-9.18056 15.79912,-17.08012 27.22144,-23.69866 11.42233,-6.61855 24.4993,-12.16959 39.2309,-16.65312 a 363.45959,363.45959 0 0 1 46.11632,-10.72845 c 16.01261,-2.66876 32.0786,-4.53691 48.19796,-5.60441 16.11937,-1.06751 31.11785,-1.60126 44.99544,-1.60126 8.96706,0 16.33286,-0.16013 22.0974,-0.48038 a 270.04602,270.04602 0 0 0 14.41135,-1.12088 518.44165,518.44165 0 0 0 9.44744,-1.12089 53.415402,53.415402 0 0 1 6.88543,-0.48038 c 1.70801,0 3.04239,0.32025 4.00315,0.96076 0.96076,0.64051 1.44113,1.28101 1.44113,1.92152 0,1.70801 -1.01413,2.93564 -3.04239,3.68289 -2.02827,0.74726 -6.56518,1.12089 -13.61072,1.12089 -2.34852,0 -4.53691,-0.10675 -6.56517,-0.32025 a 66.352258,66.352258 0 0 0 -6.88542,-0.32025 c -13.02359,3.62952 -24.44593,9.18056 -34.26699,16.65311 a 146.41531,146.41531 0 0 0 -26.26068,25.7803 240.72292,240.72292 0 0 0 -21.13665,31.70497 c -6.40504,11.42233 -12.81009,22.79129 -19.21514,34.10686 z"
     style="fill-rule:nonzero;stroke-width:3.33596"
     id="path8" /><path
     d="m 1052.9782,723.39347 33.3062,-1.92151 c -1.9215,3.84303 -4.697,8.48668 -8.3266,13.93097 a 2739.6077,2739.6077 0 0 1 -11.8493,17.61388 1244.5235,1244.5235 0 0 0 -12.9702,19.53538 424.28083,424.28083 0 0 0 -12.0095,19.53538 c -3.6295,6.2983 -6.5651,12.16959 -8.8069,17.61387 -2.2418,5.44429 -3.3626,10.08795 -3.3626,13.93098 0,5.33754 2.6687,8.0063 8.0063,8.0063 5.124,0 12.0628,-2.98902 20.8164,-8.96706 8.7535,-5.97804 17.9341,-13.8776 27.5417,-23.69866 a 299.78944,299.78944 0 0 0 12.3297,-13.13035 c 4.1632,-4.69703 8.1664,-9.34068 12.0094,-13.93097 a 1061.4893,1061.4893 0 0 0 10.5683,-12.81008 c 3.2025,-3.94979 5.7646,-7.20568 7.6861,-9.7677 l 2.2418,1.28101 a 884.20306,884.20306 0 0 1 -19.2152,24.81955 c -7.259,9.07381 -16.0126,18.73475 -26.2606,28.98283 -10.2481,10.24807 -20.3361,18.628 -30.2639,25.13979 -9.9278,6.5118 -19.8022,9.7677 -29.6233,9.7677 -6.8321,0 -12.1162,-1.76139 -15.8525,-5.28417 -3.7363,-3.52277 -5.6044,-7.84617 -5.6044,-12.97021 0,-1.70801 0.1067,-3.30927 0.3202,-4.80378 0.2135,-1.49451 0.5338,-2.66877 0.9608,-3.52278 h -0.6405 a 99.461666,99.461666 0 0 1 -22.41767,18.89488 c -8.32655,5.12404 -17.29361,7.68606 -26.90118,7.68606 -5.12404,0 -9.50082,-0.96076 -13.13034,-2.88227 a 24.035597,24.035597 0 0 1 -8.80693,-7.84618 35.544661,35.544661 0 0 1 -4.96392,-11.20883 52.014299,52.014299 0 0 1 -1.60126,-12.97021 c 0,-10.46157 2.88227,-20.92315 8.64681,-31.38472 a 118.77021,118.77021 0 0 1 21.77716,-28.34232 113.27255,113.27255 0 0 1 29.30308,-20.49615 c 10.78182,-5.23079 21.08325,-7.84618 30.90435,-7.84618 7.4725,0 13.3438,1.60126 17.6138,4.80379 4.2701,3.20252 7.7929,8.2198 10.5684,15.05185 z m -96.07568,81.98457 c 0,6.19154 1.01413,11.58246 3.04239,16.17274 2.02827,4.59028 6.35167,6.88543 12.97022,6.88543 4.48353,-0.21351 9.18056,-2.08164 14.09109,-5.60442 4.91054,-3.52278 9.66095,-7.95293 14.25118,-13.29047 a 156.44655,156.44655 0 0 0 13.1304,-17.774 171.39165,171.39165 0 0 0 10.8886,-19.69551 c 3.0957,-6.61855 5.551,-12.86347 7.3658,-18.73475 1.8147,-5.87129 2.7221,-10.83521 2.7221,-14.89174 0,-5.76454 -1.0675,-10.24807 -3.2025,-13.45058 -2.135,-3.20253 -6.2983,-4.80379 -12.4898,-4.80379 -4.9106,0 -9.8745,1.49451 -14.8918,4.48353 -5.01726,2.98902 -9.82105,6.9388 -14.41132,11.84933 a 139.16627,139.16627 0 0 0 -13.13035,16.493 132.07736,132.07736 0 0 0 -10.72845,18.73475 c -2.98902,6.40504 -5.33754,12.54321 -7.04555,18.4145 -1.70801,5.87129 -2.56201,10.94196 -2.56201,15.21198 z"
     style="fill-rule:nonzero;stroke-width:3.33596"
     id="path9" /><path
     d="m 1212.4638,774.63383 a 1139.4507,1139.4507 0 0 1 14.4114,-17.774 190.24984,190.24984 0 0 1 18.0942,-19.05501 c 6.5118,-5.97804 13.3438,-11.0487 20.4961,-15.21198 7.1523,-4.16328 14.2512,-6.24492 21.2968,-6.24492 6.832,0 12.3297,2.13502 16.493,6.40504 4.1632,4.27004 6.2449,9.18057 6.2449,14.73161 0,7.25905 -2.3486,14.67823 -7.0456,22.25753 a 268.9218,268.9218 0 0 1 -15.6923,22.57778 389.42671,389.42671 0 0 0 -15.6924,21.77715 c -4.697,7.04555 -7.0455,13.45059 -7.0455,19.21514 0,2.34852 0.5337,4.3234 1.6013,5.92466 1.0674,1.60126 2.7754,2.40189 5.124,2.40189 8.7536,0 23.0581,-9.92782 42.9138,-29.78346 a 463.48169,463.48169 0 0 0 23.8588,-25.7803 c 7.7927,-9.07381 14.5714,-17.34699 20.336,-24.81954 l 2.562,1.281 c -2.562,3.20253 -5.4977,6.83205 -8.807,10.88858 a 1327.0719,1327.0719 0 0 1 -10.7284,12.97021 609.50671,609.50671 0 0 1 -12.3297,14.25123 337.46912,337.46912 0 0 1 -13.2905,14.0911 c -5.978,5.97803 -11.4223,11.0487 -16.3329,15.21197 -4.9104,4.16328 -9.4474,7.52593 -13.6107,10.08795 -4.1632,2.56202 -8.113,4.43016 -11.8492,5.60441 -3.7363,1.17427 -7.526,1.76139 -11.3691,1.76139 -7.4725,0 -13.2904,-2.08164 -17.4537,-6.24491 -4.1632,-4.16328 -6.2449,-9.44745 -6.2449,-15.85249 0,-6.83205 2.3485,-14.19784 7.0456,-22.0974 a 231.15539,231.15539 0 0 1 15.6923,-23.05817 817.82411,817.82411 0 0 0 15.6923,-20.97651 c 4.6971,-6.5118 7.0457,-11.79596 7.0457,-15.85249 0,-2.98902 -0.8541,-5.28416 -2.5621,-6.88543 a 8.5934347,8.5934347 0 0 0 -6.0848,-2.40189 c -4.4835,0 -9.661,2.08164 -15.5322,6.24492 -5.8713,4.16328 -12.0095,9.55419 -18.4146,16.17274 a 268.53483,268.53483 0 0 0 -19.0549,22.09741 590.91206,590.91206 0 0 0 -17.9342,24.33917 516.62022,516.62022 0 0 0 -15.0518,22.7379 573.17142,573.17142 0 0 0 -10.4082,17.29362 l -33.9467,1.28102 a 1377.0746,1377.0746 0 0 1 21.2967,-32.82586 1204.4052,1204.4052 0 0 0 18.5746,-28.50245 c 5.4443,-8.64681 9.8211,-16.27949 13.1304,-22.89804 3.3092,-6.61854 4.9639,-11.84933 4.9639,-15.69236 0,-2.56201 -0.7473,-4.91053 -2.2418,-7.04554 -1.4944,-2.13502 -3.843,-3.20253 -7.0455,-3.20253 -4.4835,0 -9.661,2.08164 -15.5322,6.24492 -5.8713,4.16328 -12.0095,9.55419 -18.4146,16.17274 a 317.98377,317.98377 0 0 0 -19.3752,22.09741 521.08707,521.08707 0 0 0 -18.4145,24.33917 540.97273,540.97273 0 0 0 -15.3721,22.7379 c -4.4835,7.04555 -8.0063,12.8101 -10.5683,17.29362 l -32.3455,1.28102 c 11.7426,-18.78814 23.3784,-37.52289 34.9075,-56.20428 a 1968.0734,1968.0734 0 0 0 33.9467,-57.16502 l 37.4695,-1.9215 -42.5935,58.2859 0.6405,0.6405 a 570.97636,570.97636 0 0 0 15.212,-18.25438 218.11511,218.11511 0 0 1 18.4144,-20.17589 114.20661,114.20661 0 0 1 21.2968,-16.33286 c 7.5793,-4.48354 15.6391,-6.7253 24.1791,-6.7253 5.9781,0 11.0487,1.60126 15.212,4.80379 4.1632,3.20252 6.2449,8.0063 6.2449,14.41135 0,2.98902 -0.5338,6.19154 -1.6012,9.60757 a 73.421159,73.421159 0 0 1 -4.0032,10.08794 114.18994,114.18994 0 0 1 -5.4443,9.92782 276.38768,276.38768 0 0 1 -5.6044,8.80693 z"
     style="fill-rule:nonzero;stroke-width:3.33596"
     id="path10" /><path
     d="m 1443.6859,774.63383 a 1139.4507,1139.4507 0 0 1 14.4113,-17.774 190.24984,190.24984 0 0 1 18.0943,-19.05501 c 6.5117,-5.97804 13.3438,-11.0487 20.4961,-15.21198 7.1523,-4.16328 14.2512,-6.24492 21.2968,-6.24492 6.832,0 12.3297,2.13502 16.493,6.40504 4.1633,4.27004 6.2449,9.18057 6.2449,14.73161 0,7.25905 -2.3485,14.67823 -7.0456,22.25753 a 268.9218,268.9218 0 0 1 -15.6923,22.57778 389.42671,389.42671 0 0 0 -15.6923,21.77715 c -4.6971,7.04555 -7.0456,13.45059 -7.0456,19.21514 0,2.34852 0.5338,4.3234 1.6012,5.92466 1.0676,1.60126 2.7756,2.40189 5.1241,2.40189 8.7535,0 23.0582,-9.92782 42.9138,-29.78346 a 463.48169,463.48169 0 0 0 23.8587,-25.7803 c 7.7929,-9.07381 14.5716,-17.34699 20.3361,-24.81954 l 2.562,1.281 c -2.562,3.20253 -5.4976,6.83205 -8.8069,10.88858 a 1327.0719,1327.0719 0 0 1 -10.7285,12.97021 609.50671,609.50671 0 0 1 -12.3297,14.25123 337.46912,337.46912 0 0 1 -13.2904,14.0911 c -5.9781,5.97803 -11.4223,11.0487 -16.3329,15.21197 -4.9106,4.16328 -9.4475,7.52593 -13.6107,10.08795 -4.1633,2.56202 -8.1131,4.43016 -11.8494,5.60441 -3.7363,1.17427 -7.5259,1.76139 -11.3689,1.76139 -7.4726,0 -13.2905,-2.08164 -17.4537,-6.24491 -4.1633,-4.16328 -6.245,-9.44745 -6.245,-15.85249 0,-6.83205 2.3485,-14.19784 7.0455,-22.0974 a 231.15539,231.15539 0 0 1 15.6924,-23.05817 817.82411,817.82411 0 0 0 15.6924,-20.97651 c 4.697,-6.5118 7.0455,-11.79596 7.0455,-15.85249 0,-2.98902 -0.854,-5.28416 -2.562,-6.88543 a 8.5934347,8.5934347 0 0 0 -6.0848,-2.40189 c -4.4835,0 -9.6609,2.08164 -15.5323,6.24492 -5.8712,4.16328 -12.0094,9.55419 -18.4144,16.17274 a 268.53483,268.53483 0 0 0 -19.055,22.09741 590.91206,590.91206 0 0 0 -17.9341,24.33917 516.62022,516.62022 0 0 0 -15.0519,22.7379 573.17142,573.17142 0 0 0 -10.4082,17.29362 l -33.9468,1.28102 a 1377.0746,1377.0746 0 0 1 21.2969,-32.82586 1204.4052,1204.4052 0 0 0 18.5746,-28.50245 c 5.4443,-8.64681 9.821,-16.27949 13.1303,-22.89804 3.3093,-6.61854 4.9639,-11.84933 4.9639,-15.69236 0,-2.56201 -0.7472,-4.91053 -2.2418,-7.04554 -1.4945,-2.13502 -3.843,-3.20253 -7.0455,-3.20253 -4.4836,0 -9.6609,2.08164 -15.5323,6.24492 -5.8712,4.16328 -12.0094,9.55419 -18.4144,16.17274 a 317.98377,317.98377 0 0 0 -19.3753,22.09741 521.08707,521.08707 0 0 0 -18.4145,24.33917 540.97273,540.97273 0 0 0 -15.3721,22.7379 c -4.4835,7.04555 -8.0063,12.8101 -10.5683,17.29362 l -32.3455,1.28102 c 11.7425,-18.78814 23.3784,-37.52289 34.9075,-56.20428 a 1968.0734,1968.0734 0 0 0 33.9468,-57.16502 l 37.4694,-1.9215 -42.5935,58.2859 0.6405,0.6405 a 570.97636,570.97636 0 0 0 15.212,-18.25438 218.11511,218.11511 0 0 1 18.4145,-20.17589 114.20661,114.20661 0 0 1 21.2968,-16.33286 c 7.5793,-4.48354 15.6389,-6.7253 24.179,-6.7253 5.978,0 11.0487,1.60126 15.212,4.80379 4.1633,3.20252 6.2449,8.0063 6.2449,14.41135 0,2.98902 -0.5337,6.19154 -1.6013,9.60757 a 73.421159,73.421159 0 0 1 -4.0031,10.08794 114.18994,114.18994 0 0 1 -5.4443,9.92782 276.38768,276.38768 0 0 1 -5.6044,8.80693 z"
     style="fill-rule:nonzero;stroke-width:3.33596"
     id="path11" /><path
     d="m 1746.6445,751.25542 a 81.317378,81.317378 0 0 1 -15.212,15.05185 c -5.8713,4.48353 -12.3298,6.7253 -19.3753,6.7253 -4.9105,0 -9.1805,-1.06751 -12.8101,-3.20253 -3.6295,-2.13501 -6.9388,-5.12403 -9.9278,-8.96705 a 102.94774,102.94774 0 0 1 -12.6499,30.26383 106.52056,106.52056 0 0 1 -21.2968,24.97967 100.54252,100.54252 0 0 1 -27.8619,16.97337 84.299726,84.299726 0 0 1 -32.0253,6.24492 c -11.7425,0 -21.1366,-3.36266 -28.1821,-10.08795 -7.0457,-6.72529 -10.5684,-15.95923 -10.5684,-27.70182 0,-11.31557 2.8822,-22.15078 8.6469,-32.50559 a 97.977162,97.977162 0 0 1 22.4176,-27.22145 114.10987,114.10987 0 0 1 30.4239,-18.57462 c 11.1022,-4.59029 21.9907,-6.88543 32.6658,-6.88543 11.5291,0 20.6028,3.09577 27.2214,9.28732 6.6185,6.19154 10.6751,13.66409 12.1696,22.41765 1.0675,6.40504 3.4694,11.52908 7.2057,15.37211 3.7363,3.84303 8.5934,5.76454 14.5714,5.76454 5.7645,0 11.2089,-1.70801 16.3329,-5.12404 5.124,-3.41602 10.5683,-8.54006 16.3329,-15.3721 z m -148.9173,84.22633 c 5.3375,0 10.6751,-1.81476 16.0126,-5.44429 5.3375,-3.62953 10.4615,-8.32656 15.3721,-14.0911 4.9106,-5.76454 9.4475,-12.27633 13.6107,-19.53538 a 207.08977,207.08977 0 0 0 10.8886,-21.77715 c 3.0958,-7.25906 5.4977,-14.19785 7.2057,-20.8164 1.708,-6.61854 2.562,-12.16958 2.562,-16.65311 0,-5.33754 -1.1209,-9.50082 -3.3626,-12.48984 -2.2418,-2.98902 -5.8179,-4.48353 -10.7285,-4.48353 -5.3375,0 -10.6751,1.81476 -16.0126,5.44429 -5.3376,3.62952 -10.4616,8.32655 -15.3721,14.09109 -4.9105,5.76455 -9.4475,12.27634 -13.6107,19.53539 a 207.08977,207.08977 0 0 0 -10.8886,21.77715 c -3.0958,7.25905 -5.4977,14.19785 -7.2057,20.81639 -1.708,6.61855 -2.562,12.16959 -2.562,16.65313 0,5.33753 1.1209,9.50081 3.3626,12.48983 2.2418,2.98902 5.818,4.48353 10.7285,4.48353 z"
     style="fill-rule:nonzero;stroke-width:3.33596"
     id="path12" /><path
     d="m 1746.004,779.11736 a 1441.1917,1441.1917 0 0 1 12.9702,-16.33286 c 5.6578,-7.04555 12.1162,-13.98435 19.3752,-20.8164 a 144.71398,144.71398 0 0 1 23.3785,-17.93413 c 8.3265,-5.12402 16.653,-7.68605 24.9797,-7.68605 7.0455,0 12.383,1.97489 16.0126,5.92467 3.6295,3.94978 5.4442,8.80694 5.4442,14.57148 0,7.25905 -2.2951,14.67822 -6.8854,22.25753 a 312.49612,312.49612 0 0 1 -15.2119,22.7379 558.48653,558.48653 0 0 0 -15.212,21.77715 c -4.5903,6.9388 -6.8854,13.39722 -6.8854,19.37526 0,2.56202 0.6405,4.64366 1.9215,6.24492 1.281,1.60126 3.416,2.40189 6.405,2.40189 2.989,0 7.9529,-2.29514 14.8917,-6.88542 6.9388,-4.59028 16.2795,-13.07696 28.0221,-25.46005 a 634.68654,634.68654 0 0 0 25.3,-28.66257 c 7.686,-9.28732 13.4505,-16.27949 17.2935,-20.97653 l 3.2026,1.60127 a 4423.5839,4423.5839 0 0 0 -20.4961,24.65941 540.2922,540.2922 0 0 1 -25.9405,29.14296 c -11.1021,11.74258 -20.5495,20.06914 -28.3424,24.97967 -7.7927,4.91053 -15.8524,7.3658 -24.1789,7.3658 -8.1131,0 -14.0912,-2.24176 -17.9342,-6.72529 -3.843,-4.48353 -5.7646,-9.60757 -5.7646,-15.37211 0,-7.25905 2.2952,-14.7316 6.8854,-22.41765 a 253.36621,253.36621 0 0 1 15.2121,-22.57779 659.35263,659.35263 0 0 0 15.212,-20.97652 c 4.5902,-6.61854 6.8854,-12.38308 6.8854,-17.29362 0,-2.34851 -0.7473,-4.27002 -2.2418,-5.76454 -1.4945,-1.49451 -3.7362,-2.24177 -6.7253,-2.24177 -4.27,0 -9.2873,1.9749 -15.0519,5.92467 -5.7645,3.94978 -11.8493,9.07382 -18.2543,15.37211 -6.4051,6.2983 -12.9168,13.4506 -19.5354,21.4569 a 524.98013,524.98013 0 0 0 -18.7348,24.01892 393.71008,393.71008 0 0 0 -15.8524,23.21828 c -4.6971,7.47255 -8.4334,13.8776 -11.2089,19.21513 l -32.3454,0.96077 c 11.3156,-18.78814 22.6845,-37.41615 34.1068,-55.88403 a 1902.4984,1902.4984 0 0 0 33.7866,-56.84476 l 36.5088,-1.28101 -41.6328,58.28591 z"
     style="fill-rule:nonzero;stroke-width:3.33596"
     id="path13" /><path
     d="m 2058.2499,613.2267 35.8682,-1.92151 a 1689.2304,1689.2304 0 0 1 -24.179,38.27015 c -9.0738,13.98434 -18.3612,28.23557 -27.862,42.75366 a 9382.8131,9382.8131 0 0 0 -28.022,43.07393 1203.5412,1203.5412 0 0 0 -24.4993,39.39103 c -7.1523,12.06282 -12.9168,22.57778 -17.2936,31.54484 -4.3768,8.96706 -6.5652,15.47886 -6.5652,19.53538 0,2.34852 0.5338,4.21666 1.6013,5.60442 1.0674,1.38776 2.7755,2.08163 5.124,2.08163 4.4835,0 10.6217,-2.24176 18.4145,-6.72529 7.7928,-4.48353 16.493,-11.74258 26.1005,-21.77715 a 459.91222,459.91222 0 0 0 22.738,-25.1398 c 7.2591,-8.64681 15.1586,-18.62801 23.6987,-29.94359 l 3.2025,1.60127 c -2.3486,3.20252 -5.1774,6.93879 -8.4867,11.20883 a 657.37107,657.37107 0 0 1 -22.7379,27.70182 c -4.1633,4.80378 -8.2732,9.34068 -12.3297,13.61071 -10.2481,10.67508 -20.0692,19.21514 -29.4633,25.62018 -9.3941,6.40505 -19.4285,9.60757 -30.1036,9.60757 -4.9106,0 -8.9138,-0.80063 -12.0095,-2.40189 -3.0958,-1.60127 -5.5511,-3.68291 -7.3658,-6.24492 a 18.848178,18.848178 0 0 1 -3.3626,-8.32656 23.418444,23.418444 0 0 1 0.3202,-8.64681 l -0.6405,-0.6405 a 104.87593,104.87593 0 0 1 -21.7772,17.29362 c -7.8996,4.69703 -16.9733,7.04554 -27.2214,7.04554 -5.124,0 -9.4475,-0.90738 -12.9702,-2.72214 a 24.152355,24.152355 0 0 1 -8.6468,-7.3658 29.840168,29.840168 0 0 1 -4.8038,-10.56832 51.987611,51.987611 0 0 1 -1.4411,-12.32971 c 0,-10.67508 2.7755,-21.29678 8.3265,-31.8651 5.5511,-10.56833 12.7033,-20.01577 21.4569,-28.34233 a 113.06905,113.06905 0 0 1 29.143,-20.17589 c 10.6751,-5.12402 21.2433,-7.68605 31.7049,-7.68605 14.3047,0 23.9122,6.83205 28.8228,20.49615 z m -148.2768,213.28799 c 6.8321,0 13.931,-3.2559 21.2968,-9.76769 7.3658,-6.5118 14.0911,-14.41135 20.1759,-23.69867 a 151.96969,151.96969 0 0 0 14.8917,-28.98283 c 3.843,-10.03456 5.7645,-18.68137 5.7645,-25.94043 0,-6.19154 -1.6012,-10.72844 -4.8037,-13.61072 -3.2025,-2.88226 -7.2591,-4.3234 -12.1696,-4.3234 -6.6186,0 -13.504,3.0424 -20.6563,9.12719 -7.1523,6.08479 -13.7175,13.50396 -19.6955,22.25753 a 136.08384,136.08384 0 0 0 -14.7316,28.18219 c -3.8431,10.03458 -5.7646,19.00163 -5.7646,26.90119 0,5.12403 1.1743,9.71432 3.5228,13.77085 2.3486,4.05652 6.4051,6.08479 12.1696,6.08479 z"
     style="fill-rule:nonzero;stroke-width:3.33596"
     id="path14" /></svg>
