<?xml version="1.0" encoding="UTF-8" standalone="no"?>
<svg
   width="2761"
   height="991"
   aria-labelledby="agmtb8njcsdmlz5qpqcqrtap9hlkeakm"
   class="h-10 w-40 fill-current text-gray-400"
   version="1.0"
   viewBox="0 0 1794.6484 644.15"
   id="svg1"
   sodipodi:docname="rexburg-arts-center.svg"
   inkscape:version="1.3 (0e150ed, 2023-07-21)"
   xmlns:inkscape="http://www.inkscape.org/namespaces/inkscape"
   xmlns:sodipodi="http://sodipodi.sourceforge.net/DTD/sodipodi-0.dtd"
   xmlns="http://www.w3.org/2000/svg"
   xmlns:svg="http://www.w3.org/2000/svg">
  <defs
     id="defs1" />
  <sodipodi:namedview
     id="namedview1"
     pagecolor="#505050"
     bordercolor="#ffffff"
     borderopacity="1"
     inkscape:showpageshadow="0"
     inkscape:pageopacity="0"
     inkscape:pagecheckerboard="1"
     inkscape:deskcolor="#505050"
     inkscape:zoom="0.22946252"
     inkscape:cx="1483.9025"
     inkscape:cy="533.85625"
     inkscape:window-width="1392"
     inkscape:window-height="1212"
     inkscape:window-x="2240"
     inkscape:window-y="25"
     inkscape:window-maximized="0"
     inkscape:current-layer="svg1" />
  <g
     style="fill:#000000;fill-opacity:1"
     id="g1"
     transform="matrix(1.2385881,0,0,1.2385881,512.5187,10.160209)">
    <path
       d="m 3820,3725 c -199,-64 -224,-315 -40,-411 51,-27 160,-25 222,3 46,21 46,22 41,61 -7,55 2,88 28,95 48,13 4,26 -81,24 -94,-2 -114,-13 -58,-31 32,-11 33,-13 32,-60 -1,-62 -30,-91 -84,-82 -72,12 -119,71 -127,164 -10,109 33,189 113,211 69,19 116,-3 161,-75 10,-18 11,-18 18,-1 13,32 -4,87 -30,97 -47,18 -148,20 -195,5 z m -2910,-4 c 0,-5 11,-12 24,-15 31,-8 36,-36 36,-205 0,-107 -3,-141 -16,-159 -8,-12 -21,-22 -29,-22 -8,0 -17,-4 -20,-10 -4,-6 32,-10 99,-10 64,0 106,4 106,10 0,6 -6,10 -14,10 -33,0 -46,30 -46,106 0,72 1,75 22,72 15,-2 41,-31 79,-88 65,-96 96,-120 156,-120 78,0 104,32 34,44 -41,6 -88,50 -149,138 l -32,47 22,12 c 53,28 78,90 56,136 -23,49 -68,63 -205,63 -68,0 -123,-4 -123,-9 z m 225,-36 c 45,-44 27,-133 -31,-155 -44,-17 -54,-4 -54,72 0,38 5,78 10,89 15,26 46,24 75,-6 z m 265,35 c 0,-5 6,-10 14,-10 8,0 22,-7 30,-16 13,-13 16,-44 16,-179 0,-170 1,-167 -45,-200 -18,-13 -1,-14 143,-15 h 162 l 10,26 c 6,14 10,37 10,52 0,26 0,26 -31,-11 -29,-36 -33,-37 -95,-37 -75,0 -77,4 -72,110 l 3,65 42,3 c 38,3 45,0 61,-27 10,-17 22,-28 25,-24 10,10 8,123 -2,123 -5,0 -16,-11 -25,-26 -15,-21 -23,-25 -59,-22 l -42,3 v 160 l 63,3 62,3 23,-38 22,-38 3,29 c 2,15 1,39 -2,52 -6,24 -6,24 -161,24 -97,0 -155,-4 -155,-10 z m 370,5 c 0,-2 13,-11 29,-20 30,-15 151,-173 151,-196 0,-25 -106,-151 -147,-176 -24,-14 -43,-27 -43,-29 0,-2 38,-4 85,-4 80,0 109,11 65,25 -30,9 -25,34 21,98 47,66 46,66 104,-19 37,-53 38,-57 21,-70 -11,-7 -24,-15 -30,-17 -31,-12 13,-17 110,-15 l 109,3 -32,17 c -38,22 -167,203 -157,221 28,47 121,148 145,159 16,7 29,16 29,20 0,5 -36,8 -80,8 -75,0 -105,-11 -60,-23 11,-3 20,-14 20,-24 0,-18 -68,-122 -81,-123 -3,0 -25,28 -49,62 -39,56 -42,63 -26,72 56,34 54,35 -66,36 -65,0 -118,-2 -118,-5 z m 490,-3 c 0,-4 10,-12 23,-17 22,-10 22,-13 22,-190 v -180 l -30,-15 c -29,-14 -24,-15 95,-18 186,-4 250,28 250,125 0,49 -28,87 -74,99 l -25,6 40,37 c 40,39 46,61 29,106 -16,42 -63,55 -205,55 -69,0 -125,-3 -125,-8 z m 238,-40 c 7,-10 12,-36 10,-62 -3,-41 -7,-47 -39,-63 -58,-28 -69,-17 -69,68 0,49 4,75 13,79 21,9 71,-4 85,-22 z m 7,-193 c 14,-14 20,-33 20,-65 0,-38 -5,-50 -28,-70 -30,-26 -66,-31 -85,-12 -17,17 -16,164 1,172 21,9 71,-4 92,-25 z m 177,218 c 26,-22 27,-24 30,-162 3,-124 6,-144 26,-176 54,-87 196,-103 276,-30 42,38 56,80 57,173 1,134 10,181 37,193 40,18 23,25 -55,25 h -78 l 30,-24 c 29,-23 30,-28 34,-116 4,-124 -5,-175 -37,-211 -54,-60 -158,-45 -188,27 -11,26 -14,68 -12,162 3,121 4,127 26,137 42,18 22,25 -75,25 h -98 z m 478,14 c 0,-5 11,-12 24,-15 31,-8 36,-36 36,-205 0,-107 -3,-141 -16,-159 -8,-12 -21,-22 -29,-22 -8,0 -17,-4 -20,-10 -4,-6 32,-10 99,-10 64,0 106,4 106,10 0,6 -6,10 -14,10 -33,0 -46,30 -46,106 0,72 1,75 22,72 15,-2 41,-31 79,-88 65,-96 96,-120 156,-120 78,0 104,32 34,44 -41,6 -88,50 -149,138 l -32,47 22,12 c 53,28 78,90 56,136 -23,49 -68,63 -205,63 -68,0 -123,-4 -123,-9 z m 225,-36 c 45,-44 27,-133 -31,-155 -44,-17 -54,-4 -54,72 0,38 5,78 10,89 15,26 46,24 75,-6 z m -630,-707 c -2,-7 -6,-30 -10,-50 -3,-21 -15,-57 -25,-80 -39,-85 -14,-106 42,-37 46,57 74,69 163,69 72,0 76,-1 85,-26 13,-33 13,-595 0,-628 -6,-17 -24,-30 -60,-43 -27,-10 -50,-23 -50,-31 0,-10 42,-12 198,-10 119,2 196,7 195,13 -1,5 -19,15 -40,22 -81,28 -78,16 -78,356 0,228 3,308 13,325 12,20 20,22 100,22 103,0 123,-10 148,-75 22,-59 41,-58 49,3 4,26 11,71 17,101 13,68 2,82 -42,50 -31,-24 -35,-24 -325,-27 l -293,-3 -35,31 c -38,33 -46,36 -52,18 z m -1391,-29 c -12,-11 -38,-26 -58,-33 -36,-12 -38,-17 -73,-117 -48,-141 -199,-515 -224,-555 -12,-20 -39,-41 -69,-55 -89,-40 -69,-49 109,-49 169,0 201,9 134,36 -82,34 -86,51 -48,173 l 26,81 h 258 l 10,-37 c 41,-154 41,-156 27,-178 -8,-12 -32,-27 -55,-34 -24,-7 -41,-18 -41,-26 0,-13 31,-15 200,-15 169,0 200,2 200,15 0,8 -17,19 -41,26 -22,7 -51,26 -65,42 -16,19 -62,146 -142,388 -64,197 -119,359 -122,359 -3,0 -15,-9 -26,-21 z m -14,-291 c 23,-78 44,-148 47,-155 4,-10 -18,-13 -101,-13 -77,0 -106,3 -106,12 0,21 102,298 110,298 4,0 26,-64 50,-142 z m 2401,277 c -137,-39 -206,-150 -171,-277 16,-57 55,-95 175,-173 139,-91 148,-101 153,-174 4,-54 2,-60 -28,-94 -35,-40 -78,-54 -131,-42 -42,9 -120,88 -138,140 -17,49 -29,65 -48,65 -23,0 -13,-162 11,-189 45,-49 160,-77 256,-62 159,26 233,117 218,272 -8,77 -45,122 -178,211 -142,96 -160,115 -160,172 0,118 149,156 229,59 17,-21 36,-52 42,-70 8,-26 16,-33 36,-33 25,0 25,1 18,63 -4,34 -12,73 -19,87 -22,48 -166,73 -265,45 z m -1946,-4 c -14,-14 -1,-30 30,-35 64,-12 65,-16 65,-356 0,-343 0,-340 -70,-361 -22,-7 -40,-18 -40,-26 0,-10 38,-13 190,-13 157,0 190,2 190,14 0,8 -13,17 -30,21 -16,3 -41,15 -55,26 -25,20 -25,22 -25,171 v 150 l 28,-7 c 44,-11 69,-32 98,-82 46,-80 124,-193 163,-236 51,-56 100,-77 189,-77 87,0 135,19 130,53 -3,19 -11,23 -58,28 -31,3 -65,11 -76,17 -36,19 -157,154 -216,241 l -58,84 50,29 c 64,36 100,90 106,159 8,80 -23,134 -101,174 l -59,30 h -223 c -123,1 -226,-1 -228,-4 z m 400,-63 c 37,-29 55,-76 55,-140 -1,-78 -28,-130 -82,-157 -50,-24 -88,-27 -106,-9 -15,15 -17,281 -2,309 16,28 98,27 135,-3 z m 460,-1060 c -2,-7 -11,-37 -20,-66 -9,-29 -14,-56 -11,-59 3,-3 24,11 46,31 38,34 45,37 93,34 l 52,-3 7,-45 c 10,-70 9,-336 -2,-365 -6,-15 -22,-30 -40,-36 -57,-21 -29,-29 95,-29 69,0 125,4 125,8 0,5 -15,15 -32,23 l -33,14 -3,195 c -1,107 0,205 3,218 5,20 12,22 63,22 67,0 73,-4 96,-49 22,-43 32,-31 41,47 7,66 5,70 -35,47 -19,-11 -68,-14 -207,-15 -170,0 -184,1 -203,20 -23,23 -29,25 -35,8 z m -1465,-27 c -173,-53 -257,-225 -182,-372 60,-120 206,-174 372,-138 56,12 74,31 85,90 10,52 -9,57 -39,12 -33,-50 -74,-73 -129,-75 -87,-1 -139,31 -175,111 -34,73 -36,177 -4,237 26,51 81,100 122,109 45,10 114,-3 145,-26 14,-12 32,-36 40,-55 20,-47 35,-42 35,12 0,60 -13,81 -58,94 -42,11 -175,12 -212,1 z m 344,-3 c -3,-4 11,-14 31,-22 l 35,-15 v -422 l -35,-20 c -19,-12 -35,-23 -35,-25 0,-2 87,-4 194,-4 h 194 l 10,33 c 27,87 19,108 -19,52 -30,-43 -57,-55 -122,-55 -77,0 -78,2 -75,116 l 3,99 43,3 c 47,4 69,-8 83,-46 5,-14 12,-22 16,-18 8,7 8,144 0,152 -3,3 -13,-8 -22,-25 -14,-29 -19,-31 -71,-31 h -55 l 3,98 3,97 54,3 c 79,5 100,-3 117,-43 26,-64 43,-32 25,50 l -6,30 h -184 c -100,0 -185,-3 -187,-7 z m 436,2 c 0,-5 18,-19 40,-30 26,-13 42,-29 46,-46 10,-39 -2,-345 -14,-376 -6,-14 -20,-29 -31,-33 -47,-14 -16,-25 74,-25 57,0 95,4 95,10 0,6 -6,10 -14,10 -7,0 -25,9 -40,21 l -26,20 v 161 c 0,92 4,158 9,156 5,-1 73,-75 151,-163 169,-192 203,-225 230,-225 19,0 20,6 20,226 0,128 4,233 10,244 5,10 24,23 41,29 53,18 23,30 -72,27 -49,-2 -93,-6 -96,-9 -3,-3 12,-14 33,-24 l 39,-18 3,-158 c 1,-86 -1,-157 -6,-157 -5,0 -71,73 -148,162 -195,229 -169,208 -264,208 -45,0 -80,-4 -80,-10 z m 1194,-2 c -3,-4 11,-14 31,-22 l 35,-15 v -422 l -35,-20 c -19,-12 -35,-23 -35,-25 0,-2 87,-4 194,-4 h 194 l 10,33 c 27,87 19,108 -19,52 -30,-43 -57,-55 -122,-55 -77,0 -78,2 -75,116 l 3,99 43,3 c 47,4 69,-8 83,-46 5,-14 12,-22 16,-18 8,7 8,144 0,152 -3,3 -13,-8 -22,-25 -14,-29 -19,-31 -71,-31 h -55 l 3,98 3,97 54,3 c 79,5 100,-3 117,-43 26,-64 43,-32 25,50 l -6,30 h -184 c -100,0 -185,-3 -187,-7 z m 449,-1 c -2,-4 9,-12 26,-18 18,-7 33,-20 36,-32 3,-12 4,-110 3,-217 l -3,-195 -32,-14 c -18,-8 -33,-18 -33,-23 0,-4 56,-8 125,-8 117,0 157,10 101,24 -48,12 -56,31 -56,127 v 90 l 27,-3 c 22,-2 41,-23 97,-108 82,-121 114,-145 193,-144 87,2 118,47 37,57 -36,4 -54,13 -86,43 -54,53 -136,176 -121,181 28,10 66,49 80,80 29,70 -12,140 -95,162 -43,12 -292,10 -299,-2 z m 256,-32 c 34,-17 41,-33 41,-90 0,-79 -35,-120 -96,-113 l -29,3 -3,81 c -4,127 17,156 87,119 z"
       style="fill:#000000;fill-opacity:1"
       transform="matrix(0.19413,0,0,-0.20165,-171.631,758.072)"
       id="path1" />
  </g>
</svg>
