<?xml version="1.0" encoding="UTF-8" standalone="no"?>
<svg
   xml:space="preserve"
   aria-labelledby="a9jmwpqwj3njy5r3ry8bj1rx5p6e2z5i"
   class="h-10 w-40 fill-current text-gray-400"
   style="clip-rule:evenodd;fill-rule:evenodd;stroke-linejoin:round;stroke-miterlimit:2"
   viewBox="0 0 2761 991"
   version="1.1"
   id="svg1"
   sodipodi:docname="wolfe-lighting.svg"
   width="2761"
   height="991"
   inkscape:version="1.3 (0e150ed, 2023-07-21)"
   xmlns:inkscape="http://www.inkscape.org/namespaces/inkscape"
   xmlns:sodipodi="http://sodipodi.sourceforge.net/DTD/sodipodi-0.dtd"
   xmlns="http://www.w3.org/2000/svg"
   xmlns:svg="http://www.w3.org/2000/svg"><defs
     id="defs1" /><sodipodi:namedview
     id="namedview1"
     pagecolor="#505050"
     bordercolor="#ffffff"
     borderopacity="1"
     inkscape:showpageshadow="0"
     inkscape:pageopacity="0"
     inkscape:pagecheckerboard="1"
     inkscape:deskcolor="#505050"
     inkscape:zoom="0.22683824"
     inkscape:cx="1360"
     inkscape:cy="147.68233"
     inkscape:window-width="1392"
     inkscape:window-height="1212"
     inkscape:window-x="2240"
     inkscape:window-y="25"
     inkscape:window-maximized="0"
     inkscape:current-layer="svg1" /><path
     d="m 1144.3489,325.36656 c 0,0.71745 -0.2154,1.79299 -0.6461,3.22917 -0.4308,1.43491 -1.0055,2.15237 -1.7229,2.15237 -4.1621,0.28672 -8.073,2.47604 -11.7329,6.5654 -3.6599,4.09063 -7.4269,9.86722 -11.3021,17.33103 l -60.0635,117.97335 c -0.2868,0.288 -1.0756,0.64609 -2.3678,1.07682 a 12.85045,12.85045 0 0 1 -4.0906,0.64609 c -1.8656,0 -3.3362,-0.21537 -4.413,-0.64609 -1.0768,-0.43073 -1.7586,-0.78882 -2.0453,-1.07682 l -25.4027,-54.46531 -37.67468,54.46531 c -0.28673,0.288 -0.86146,0.64609 -1.72164,1.07682 -0.86145,0.43072 -2.44035,0.64609 -4.73672,0.64609 -1.4349,0 -2.79845,-0.21537 -4.09063,-0.64609 -1.29091,-0.43073 -2.081,-0.78882 -2.36773,-1.07682 L 913.13629,352.27553 c -3.73127,-7.74927 -6.67372,-13.02376 -8.82608,-15.82221 -2.15364,-2.79845 -7.39118,-4.70104 -15.71645,-5.70522 -0.43072,-0.14401 -0.93281,-0.7901 -1.50627,-1.93828 -0.57473,-1.14818 -0.86145,-2.08099 -0.86145,-2.79845 0,-0.86018 0.144,-1.86563 0.43073,-3.01381 0.28673,-1.14818 0.64609,-1.72164 1.07682,-1.72164 7.17581,0 13.59848,0.17968 19.26675,0.53777 5.66954,0.35937 11.80549,0.53778 18.40657,0.53778 6.60236,0 11.94822,-0.17841 16.03885,-0.53778 4.09064,-0.35809 9.65186,-0.53777 16.68367,-0.53777 0.43073,0 0.86146,0.53777 1.29218,1.61459 0.43073,1.07554 0.6461,2.11668 0.6461,3.12086 0,0.71746 -0.0713,1.68723 -0.21537,2.90677 -0.144,1.21955 -0.43073,1.82996 -0.86145,1.82996 -3.58728,0.144 -6.20732,0.75313 -7.85759,1.82995 -1.65026,1.07682 -2.47605,2.54741 -2.47605,4.41304 0,1.43491 0.46642,3.30054 1.39923,5.5969 a 64.077667,64.077667 0 0 0 2.90678,6.243 l 41.76523,85.03675 19.80581,-28.4178 -24.7579,-53.17441 c -4.44872,-9.32817 -8.14431,-15.1774 -11.08676,-17.54512 -2.94245,-2.36773 -5.99195,-3.69559 -9.14976,-3.98231 -0.43073,-0.14401 -0.93282,-0.7901 -1.50627,-1.93828 -0.57473,-1.14818 -0.86146,-2.08099 -0.86146,-2.79845 0,-0.86018 0.17968,-1.86563 0.53777,-3.01381 0.35937,-1.14818 0.75314,-1.72164 1.18386,-1.72164 7.03309,0 12.70135,0.17968 17.00736,0.53777 4.30599,0.35937 9.76013,0.53778 16.36126,0.53778 6.4584,0 12.0566,-0.17841 16.792,-0.53778 4.7367,-0.35809 10.6204,-0.53777 17.6534,-0.53777 0.4308,0 0.8258,0.57346 1.1839,1.72164 0.3594,1.14818 0.5378,2.15363 0.5378,3.01381 0,0.71746 -0.071,1.68723 -0.2154,2.90677 -0.1427,1.21955 -0.4294,1.82996 -0.8602,1.82996 -3.8752,0 -6.6737,0.75313 -8.3966,2.26068 -1.7216,1.50627 -2.5831,3.33622 -2.5831,5.48985 0,1.72164 0.3594,3.48023 1.0768,5.27323 a 118.73286,118.73286 0 0 0 2.1524,5.05913 l 10.1183,20.66725 12.486,-18.08289 c 2.2963,-3.30182 3.9835,-5.99195 5.0591,-8.07295 1.0768,-2.081 1.6146,-4.05495 1.6146,-5.92058 0,-2.15236 -0.8602,-3.76695 -2.5831,-4.84377 -1.7216,-1.07682 -4.8081,-1.68595 -9.2568,-1.82995 -0.4307,-0.14401 -0.7532,-0.7901 -0.9685,-1.93828 -0.2154,-1.14818 -0.3237,-2.08099 -0.3237,-2.79845 0,-1.00418 0.2154,-2.04532 0.6461,-3.12086 0.4307,-1.07682 0.8614,-1.61459 1.2922,-1.61459 4.8794,0 9.1854,0.17968 12.9167,0.53777 3.7313,0.35937 6.7451,0.53778 9.0414,0.53778 3.4446,0 6.5667,-0.17841 9.3652,-0.53778 2.7984,-0.35809 6.35,-0.53777 10.656,-0.53777 0.2867,0 0.5747,0.43073 0.8614,1.29091 0.2868,0.86145 0.4308,1.79427 0.4308,2.79973 0,0.71745 -0.2154,1.79299 -0.6461,3.22917 -0.4307,1.43491 -1.0055,2.15237 -1.7229,2.15237 -2.8698,0.144 -5.848,1.5789 -8.9332,4.30599 -3.0864,2.72582 -6.0645,6.099 -8.9344,10.11827 l -25.1886,36.81315 22.3902,46.28532 38.7501,-76.85548 c 1.2922,-2.58436 2.2964,-4.88072 3.0139,-6.88909 0.7174,-2.00963 1.0768,-3.94663 1.0768,-5.81226 0,-2.29636 -0.7901,-4.16327 -2.369,-5.59818 -1.5777,-1.43491 -4.5201,-2.22372 -8.8261,-2.36772 -0.4307,-0.14401 -0.7531,-0.7901 -0.9685,-1.93828 -0.2154,-1.14818 -0.3237,-2.08099 -0.3237,-2.79845 0,-1.00418 0.2154,-2.04532 0.6461,-3.12086 0.4307,-1.07682 0.8615,-1.61459 1.2922,-1.61459 5.0234,0 9.0414,0.17968 12.0552,0.53777 3.0139,0.35937 5.885,0.53778 8.612,0.53778 3.5873,0 6.9248,-0.17841 10.01,-0.53778 3.0864,-0.35809 7.1401,-0.53777 12.1635,-0.53777 0.2867,0 0.5747,0.43073 0.8615,1.29091 0.2867,0.86145 0.4308,1.79427 0.4308,2.79973 z m 162.542,71.47266 c 0,21.52871 -7.3554,39.82696 -22.0664,54.89731 -14.711,15.06909 -35.4852,22.60426 -62.3242,22.60426 -26.8376,0 -47.6488,-7.57085 -62.4312,-22.71257 -14.7823,-15.14171 -22.1735,-33.40429 -22.1735,-54.789 0,-21.38471 7.3912,-39.89833 22.1735,-55.54213 14.7824,-15.64381 35.5936,-23.46571 62.4312,-23.46571 26.2642,0 46.8958,7.71358 61.8934,23.14202 14.9978,15.42845 22.4972,34.05038 22.4972,55.86582 z m -44.3482,0 c 0,-19.8058 -2.8698,-36.20274 -8.6107,-49.19209 -5.7409,-12.98808 -16.2186,-19.48212 -31.4317,-19.48212 -15.3571,0 -25.8691,6.5654 -31.5387,19.69748 -5.6682,13.13208 -8.5036,29.45766 -8.5036,48.97673 0,19.9498 2.8354,36.13137 8.5036,48.546 5.6696,12.41463 16.1816,18.62194 31.5387,18.62194 15.2131,0 25.6908,-6.243 31.4317,-18.72898 5.7409,-12.48726 8.6107,-28.63316 8.6107,-48.43896 z m 203.2203,18.51489 c -1.0041,8.036 -1.9726,17.86753 -2.9054,29.49334 -0.9329,11.62454 -1.5433,20.30789 -1.83,26.0488 -9.0428,-0.28673 -20.3092,-0.53778 -33.7993,-0.75314 -13.4915,-0.21536 -24.47,-0.32368 -32.9379,-0.32368 -9.1855,0 -21.0267,0.144 -35.5223,0.43073 -14.4956,0.28673 -25.3313,0.50208 -32.5071,0.64609 -0.4308,0 -0.8246,-0.53778 -1.1839,-1.61459 a 9.8366348,9.8366348 0 0 1 -0.5377,-3.12214 c 0,-0.71745 0.1784,-1.65027 0.5377,-2.79845 0.3593,-1.14818 0.7531,-1.79427 1.1839,-1.937 8.324,-1.00545 13.8138,-2.79845 16.4696,-5.38281 2.6544,-2.58309 3.9823,-6.81644 3.9823,-12.70135 v -94.50892 c 0,-5.88363 -1.3279,-10.11699 -3.9823,-12.70135 -2.6558,-2.58309 -8.1456,-4.37736 -16.4696,-5.38154 -0.4308,-0.14401 -0.8246,-0.7901 -1.1839,-1.93828 -0.3593,-1.14818 -0.5377,-2.08099 -0.5377,-2.79845 0,-1.00418 0.1784,-2.04532 0.5377,-3.12086 0.3593,-1.07682 0.7531,-1.61459 1.1839,-1.61459 6.8891,0 13.9578,0.17968 21.205,0.53777 7.2484,0.35937 14.1019,0.53778 20.5602,0.53778 6.6011,0 13.4901,-0.17841 20.6659,-0.53778 a 427.65085,427.65085 0 0 1 21.3135,-0.53777 c 0.4306,0 0.8257,0.57346 1.1838,1.72164 0.3594,1.14818 0.5378,2.15363 0.5378,3.01381 0,0.71746 -0.1784,1.68723 -0.5378,2.90677 -0.3581,1.21955 -0.7532,1.82996 -1.1838,1.82996 -8.324,0.86145 -13.8497,2.65445 -16.5767,5.38154 -2.7271,2.72708 -4.0906,6.96172 -4.0906,12.70135 v 97.7381 c 0,5.16744 1.3992,8.57504 4.1977,10.22658 2.7997,1.65027 5.6338,2.47477 8.5036,2.47477 h 12.272 c 10.0456,0 18.9799,-4.73545 26.8019,-14.20762 7.8219,-9.47346 12.8096,-20.09381 14.9619,-31.86234 0,-0.28673 0.2512,-0.50209 0.7532,-0.64609 0.5034,-0.14273 1.2565,-0.21537 2.2607,-0.21537 1.5789,0 3.1221,0.288 4.6283,0.86146 1.5077,0.57473 2.1895,1.29218 2.0454,2.15363 z m 154.7942,-44.34832 c 0,0.57345 -0.6462,1.18386 -1.9383,1.82995 -1.291,0.64609 -2.5831,0.9685 -3.874,0.9685 -0.5748,0 -1.3279,-0.144 -2.2607,-0.43073 -0.9328,-0.28672 -1.3992,-0.57345 -1.3992,-0.86145 -1.2922,-9.6149 -5.2745,-18.62194 -11.9483,-27.0173 -6.6737,-8.39663 -16.3255,-12.5943 -28.9555,-12.5943 h -12.9167 c -3.0139,0 -5.8849,0.71745 -8.612,2.15363 -2.7258,1.43491 -4.0893,4.95082 -4.0893,10.54772 v 45.42514 h 10.763 c 7.3199,0 13.1321,-2.15363 17.4381,-6.45836 4.306,-4.30599 6.8891,-9.97553 7.7505,-17.00735 0,-0.43072 0.5378,-0.82577 1.6146,-1.18386 1.0769,-0.35936 2.1167,-0.53904 3.1208,-0.53904 1.0055,0 2.0454,0.17968 3.1222,0.53904 1.0769,0.35809 1.6146,0.75314 1.6146,1.18386 0,5.31018 -0.2154,10.261 -0.646,14.85372 a 152.17538,152.17538 0 0 0 -0.6462,14.2089 c 0,5.02345 0.2154,9.72321 0.6462,14.10057 0.4306,4.37736 0.646,9.14977 0.646,14.31722 0,0.42945 -0.5377,0.8245 -1.6146,1.18386 -1.0768,0.35809 -2.1167,0.53777 -3.1222,0.53777 -1.0041,0 -2.0439,-0.17968 -3.1208,-0.53777 -1.0768,-0.35936 -1.6146,-0.75441 -1.6146,-1.18386 -1.0042,-7.46381 -3.4802,-13.2404 -7.4268,-17.33103 -3.9479,-4.08936 -9.8672,-6.13468 -17.7618,-6.13468 h -10.763 v 41.76397 c 0,5.7409 1.6502,9.97426 4.9508,12.70135 3.3017,2.72709 9.1141,4.52136 17.4381,5.38281 0.4306,0 0.8257,0.60914 1.1838,1.82996 0.3594,1.21954 0.5378,2.18804 0.5378,2.90549 0,0.86146 -0.1784,1.86564 -0.5378,3.01382 -0.3581,1.14818 -0.7532,1.72291 -1.1838,1.72291 -7.0332,0 -14.4244,-0.17969 -22.1736,-0.53778 -7.7506,-0.35936 -14.9264,-0.53904 -21.5287,-0.53904 -6.6024,0 -13.4545,0.17968 -20.5589,0.53904 -7.1045,0.35809 -14.1733,0.53778 -21.2051,0.53778 -0.4307,0 -0.8257,-0.53778 -1.1851,-1.61459 -0.358,-1.07682 -0.5378,-2.11668 -0.5378,-3.12214 0,-0.71745 0.1798,-1.65027 0.5378,-2.79845 0.3594,-1.14818 0.7544,-1.79427 1.1851,-1.937 8.3241,-1.00545 13.8139,-2.79845 16.4683,-5.38281 2.6558,-2.58309 3.9824,-6.81644 3.9824,-12.70135 v -94.50892 c 0,-5.88363 -1.3266,-10.11699 -3.9824,-12.70135 -2.6544,-2.58309 -8.1442,-4.37736 -16.4683,-5.38154 -0.4307,-0.14401 -0.8257,-0.7901 -1.1851,-1.93828 -0.358,-1.14818 -0.5378,-2.08099 -0.5378,-2.79845 0,-1.00418 0.1798,-2.04532 0.5378,-3.12086 0.3594,-1.07682 0.7544,-1.61459 1.1851,-1.61459 7.7492,0.14273 18.8004,0.35809 33.1533,0.64609 14.3516,0.28673 26.1201,0.42946 35.3056,0.42946 8.1813,0 19.4477,-0.10705 33.7993,-0.32241 14.3516,-0.21537 25.9049,-0.46641 34.6608,-0.75314 0,6.17163 0.2511,14.31594 0.7531,24.43421 0.5021,10.11826 0.9685,18.55057 1.3993,25.29566 z m 161.6756,49.5145 a 1244.4509,1244.4509 0 0 0 -2.9055,25.51102 c -0.9328,8.97009 -1.6146,17.2584 -2.0454,24.86494 -9.0414,-0.28673 -20.3805,-0.53778 -34.0146,-0.75314 -13.6342,-0.21536 -24.6139,-0.32368 -32.9379,-0.32368 -8.324,0 -20.1652,0.144 -35.521,0.43073 -15.3571,0.28673 -26.8389,0.50208 -34.4454,0.64609 -0.4308,0 -0.8258,-0.57473 -1.1839,-1.72291 -0.3593,-1.14818 -0.539,-2.15236 -0.539,-3.01382 0,-0.71745 0.1797,-1.65027 0.539,-2.79845 0.3581,-1.14818 0.7531,-1.79427 1.1839,-1.937 8.4679,-1.00545 14.0292,-2.79845 16.6836,-5.38281 2.6558,-2.58309 3.9836,-6.81644 3.9836,-12.70135 v -94.50892 c 0,-5.88363 -1.3278,-10.11699 -3.9836,-12.70135 -2.6544,-2.58309 -8.2157,-4.37736 -16.6836,-5.38154 -0.4308,-0.14401 -0.8258,-0.7901 -1.1839,-1.93828 -0.3593,-1.14818 -0.539,-2.08099 -0.539,-2.79845 0,-0.86018 0.1797,-1.86563 0.539,-3.01381 0.3581,-1.14818 0.7531,-1.72164 1.1839,-1.72164 7.6065,0.14273 18.5136,0.35809 32.7225,0.64609 14.2088,0.28673 25.906,0.42946 35.0915,0.42946 7.7492,0 18.729,-0.10705 32.9379,-0.32241 14.2076,-0.21537 25.6894,-0.46641 34.4441,-0.75314 -0.2867,5.88363 -0.1784,13.49017 0.3237,22.81962 0.5021,9.32817 0.8972,17.7248 1.1839,25.18734 0,0.57473 -0.5378,1.18386 -1.6147,1.82995 -1.0767,0.64609 -2.5473,0.9685 -4.4129,0.9685 -1.0055,0 -1.8657,-0.14273 -2.5831,-0.42945 -0.7188,-0.288 -1.0768,-0.57473 -1.0768,-0.86146 -1.1482,-9.04144 -4.9165,-17.61775 -11.3022,-25.72638 -6.3869,-8.10863 -15.3927,-12.16358 -27.0186,-12.16358 h -12.9167 c -2.8698,0 -5.6683,0.71745 -8.3953,2.15363 -2.7271,1.43491 -4.0907,4.95082 -4.0907,10.54772 v 44.56369 h 7.3198 c 7.1759,0 12.9525,-2.15236 17.3298,-6.45836 4.3773,-4.306 6.9248,-9.97426 7.6422,-17.00735 0,-0.43073 0.6105,-0.8245 1.83,-1.18386 1.2208,-0.35937 2.1893,-0.53777 2.9068,-0.53777 1.0041,0 2.0452,0.1784 3.1208,0.53777 1.0769,0.35936 1.6146,0.75313 1.6146,1.18386 0,5.31018 -0.1784,10.26227 -0.5377,14.85499 -0.3581,4.59272 -0.5379,9.32817 -0.5379,14.20762 0,5.02345 0.1798,9.72449 0.5379,14.10185 0.3593,4.37736 0.5377,9.1485 0.5377,14.31595 0,0.43072 -0.5377,0.8245 -1.6146,1.18386 a 9.8289887,9.8289887 0 0 1 -3.1208,0.53777 c -0.7175,0 -1.6503,-0.17841 -2.7985,-0.53777 -1.1482,-0.35936 -1.7942,-0.75314 -1.9383,-1.18386 -0.8602,-7.46382 -3.2649,-13.2404 -7.2115,-17.32976 -3.9466,-4.09063 -9.8671,-6.13595 -17.7605,-6.13595 h -7.3198 v 45.8546 c 0,5.16744 1.3636,8.57504 4.0907,10.22658 2.727,1.65027 5.5255,2.47477 8.3953,2.47477 h 11.1951 c 10.9071,0 20.5946,-3.94663 29.0626,-11.8399 8.468,-7.89326 13.7782,-17.5808 15.9306,-29.06261 0,-0.288 0.3237,-0.50337 0.9697,-0.64609 0.6448,-0.144 1.3992,-0.21537 2.2594,-0.21537 1.579,0 3.1222,0.28673 4.6297,0.86146 1.5063,0.57345 2.188,1.29091 2.0441,2.15236 z M 154.70358,630.63484 c -1.00418,8.03726 -1.97267,17.8688 -2.90549,29.49334 -0.93282,11.62581 -1.54323,20.30789 -1.82995,26.04879 -9.04145,-0.28673 -20.3079,-0.53777 -33.79934,-0.75314 -13.49144,-0.21537 -24.469882,-0.32241 -32.937875,-0.32241 -9.185447,0 -21.02662,0.14274 -35.522243,0.43073 l -32.507153,0.64482 c -0.430728,0 -0.824499,-0.53777 -1.183863,-1.61459 a 9.8289887,9.8289887 0 0 1 -0.537771,-3.12087 c 0,-0.71745 0.178407,-1.65026 0.537771,-2.79844 0.359364,-1.14818 0.753135,-1.79428 1.183863,-1.93827 8.323992,-1.00419 13.813852,-2.79846 16.469577,-5.38155 2.654451,-2.58308 3.982315,-6.81772 3.982315,-12.70134 v -94.50893 c 0,-5.8849 -1.327864,-10.11826 -3.982315,-12.70135 -2.655725,-2.58309 -8.145585,-4.37735 -16.469577,-5.38281 -0.430728,-0.14272 -0.824499,-0.78882 -1.183863,-1.937 -0.359364,-1.14818 -0.537771,-2.081 -0.537771,-2.79846 0,-1.00544 0.178407,-2.04531 0.537771,-3.12213 0.359364,-1.07554 0.753135,-1.61458 1.183863,-1.61458 6.889085,0 13.957852,0.17967 21.205027,0.53904 7.248449,0.35809 14.101852,0.53778 20.56021,0.53778 6.601084,0 13.490169,-0.17969 20.66598,-0.53778 a 426.16879,426.16879 0 0 1 21.313346,-0.53904 c 0.43073,0 0.82577,0.57472 1.183858,1.7229 0.35937,1.14818 0.53905,2.15236 0.53905,3.01381 0,0.71746 -0.17968,1.68596 -0.53905,2.9055 -0.358088,1.22082 -0.753128,1.82996 -1.183858,1.82996 -8.323993,0.86145 -13.849533,2.65572 -16.576622,5.38281 -2.727088,2.72709 -4.090633,6.96045 -4.090633,12.70135 v 97.7381 c 0,5.16618 1.399227,8.57504 4.198953,10.22531 2.798452,1.65027 5.632585,2.47604 8.502399,2.47604 h 12.271901 c 10.04563,0 18.98003,-4.73672 26.80192,-14.20889 7.82191,-9.47217 12.80968,-20.09254 14.96204,-31.86107 0,-0.288 0.25105,-0.50336 0.75441,-0.64609 0.50209,-0.144 1.25523,-0.21536 2.2594,-0.21536 1.57892,0 3.12214,0.28673 4.62841,0.86145 1.50755,0.57346 2.18932,1.29092 2.04531,2.15237 z m 102.04411,50.80667 c 0,1.00419 -0.17969,2.04533 -0.53906,3.12087 -0.35809,1.07682 -0.75313,1.61459 -1.18386,1.61459 -7.03181,0 -14.10058,-0.1784 -21.20503,-0.53777 a 407.26649,407.26649 0 0 0 -20.55894,-0.53778 c -6.60235,0 -13.49144,0.17842 -20.66725,0.53778 -7.17581,0.35937 -14.28026,0.53777 -21.31335,0.53777 -0.42945,0 -0.82449,-0.57345 -1.18386,-1.72164 -0.35809,-1.14818 -0.53776,-2.15363 -0.53776,-3.01382 0,-0.71745 0.17967,-1.65026 0.53776,-2.79844 0.35937,-1.14818 0.75441,-1.79428 1.18386,-1.93827 8.468,-1.00419 14.02923,-2.79846 16.68495,-5.38155 2.65445,-2.58308 3.98232,-6.81772 3.98232,-12.70134 v -94.50893 c 0,-5.8849 -1.32787,-10.11826 -3.98232,-12.70135 -2.65572,-2.58309 -8.21695,-4.37735 -16.68495,-5.38281 -0.42945,-0.14272 -0.82449,-0.78882 -1.18386,-1.937 -0.35809,-1.14818 -0.53776,-2.081 -0.53776,-2.79846 0,-0.86145 0.17967,-1.86563 0.53776,-3.01381 0.35937,-1.14818 0.75441,-1.7229 1.18386,-1.7229 7.03309,0 14.13754,0.17967 21.31335,0.53904 7.17581,0.35809 14.0649,0.53778 20.66725,0.53778 6.60237,0 13.45449,-0.17969 20.55894,-0.53778 a 419.70661,419.70661 0 0 1 21.20503,-0.53904 c 0.43073,0 0.82577,0.53904 1.18386,1.61458 0.35937,1.07682 0.53906,2.11669 0.53906,3.12213 0,0.71746 -0.17969,1.68596 -0.53906,2.9055 -0.35809,1.22082 -0.75313,1.82996 -1.18386,1.82996 -8.17999,0.86145 -13.63416,2.65572 -16.36126,5.38281 -2.72708,2.72709 -4.09063,6.96045 -4.09063,12.70135 v 94.50893 c 0,5.7409 1.36355,9.97425 4.09063,12.70134 2.7271,2.7271 8.18127,4.5201 16.36126,5.38155 0.43073,0 0.82577,0.6104 1.18386,1.82995 0.35937,1.21954 0.53906,2.18931 0.53906,2.90676 z m 186.2181,-61.35566 c 0,0.71745 -0.17968,1.68594 -0.53777,2.90676 -0.35936,1.21955 -0.75441,1.82995 -1.18514,1.82995 -6.88781,0.71746 -11.62453,2.58309 -14.20762,5.59691 -2.58436,3.01381 -3.87526,7.17581 -3.87526,12.486 v 21.74407 c 0,3.58726 0.17967,6.17162 0.53776,7.74925 0.35937,1.57892 0.96851,3.30182 1.82996,5.16746 -8.61072,3.01381 -18.51362,5.77659 -29.7087,8.28831 -11.19509,2.51173 -22.81962,3.76695 -34.87488,3.76695 -13.92218,0 -26.3368,-2.15235 -37.24388,-6.45836 -10.90836,-4.30471 -19.9498,-10.11826 -27.12561,-17.43807 -7.03309,-7.03181 -12.34326,-15.21308 -15.93054,-24.54125 -3.58853,-9.32945 -5.38281,-19.01699 -5.38281,-29.06262 0,-10.76435 1.97395,-20.77557 5.92059,-30.03238 3.94663,-9.2568 9.93858,-17.68912 17.97585,-25.29566 7.89326,-7.31981 17.83311,-13.09639 29.81701,-17.32975 11.9839,-4.23464 25.29567,-6.35131 39.93402,-6.35131 8.32399,0 17.00734,1.22081 26.04879,3.65989 9.04272,2.44037 16.86462,3.65991 23.46571,3.65991 0,5.88491 0.14399,13.45449 0.43072,22.71258 0.28673,9.2568 0.5021,17.04302 0.6461,23.35738 0,0.43073 -0.61042,0.82577 -1.82996,1.18386 -1.21954,0.35937 -2.33204,0.53906 -3.33622,0.53906 -1.00546,0 -1.90259,-0.14401 -2.69141,-0.43074 -0.79009,-0.28672 -1.32787,-0.71744 -1.61458,-1.29218 -3.30182,-11.91254 -9.22114,-22.0308 -17.76049,-30.35479 -8.53936,-8.32399 -18.76594,-12.48598 -30.67848,-12.48598 -12.91671,0 -23.14202,6.38699 -30.6772,19.1597 -7.53518,12.77399 -11.30213,29.20662 -11.30213,49.30041 0,19.37508 3.65991,35.41266 10.97973,48.11528 7.31853,12.70136 17.43679,19.0514 30.35479,19.0514 8.75472,0 14.67403,-1.14818 17.76048,-3.44454 3.08518,-2.29638 4.6284,-5.74092 4.6284,-10.33236 v -25.61934 c 0,-4.87945 -1.29217,-8.324 -3.87526,-10.33363 -2.58309,-2.00836 -8.32399,-3.5159 -17.22272,-4.52009 -0.43072,0 -0.82449,-0.57473 -1.18386,-1.72291 -0.35936,-1.14818 -0.53778,-2.22372 -0.53778,-3.22917 0,-1.00419 0.17842,-2.04532 0.53778,-3.12087 0.35937,-1.07682 0.75314,-1.61459 1.18386,-1.61459 7.03309,0 13.20472,0.2141 18.51489,0.64482 5.31019,0.43073 11.19381,0.6461 17.65218,0.6461 6.60235,0 13.63544,-0.21537 21.09798,-0.6461 a 377.52339,377.52339 0 0 1 21.74279,-0.64482 c 0.43073,0 0.82578,0.57346 1.18514,1.72164 0.35809,1.14818 0.53777,2.15236 0.53777,3.01382 z m 198.91946,61.35566 c 0,0.86019 -0.1784,1.86564 -0.53777,3.01382 -0.35936,1.14819 -0.75313,1.72164 -1.18386,1.72164 -7.03308,0 -14.13753,-0.1784 -21.31334,-0.53777 a 413.65859,413.65859 0 0 0 -20.66726,-0.53778 c -6.60108,0 -13.16776,0.17842 -19.69748,0.53778 -6.53099,0.35937 -13.31176,0.53777 -20.34485,0.53777 -0.42945,0 -0.82449,-0.53777 -1.18386,-1.61459 a 9.8646702,9.8646702 0 0 1 -0.53778,-3.12087 c 0,-0.71745 0.17969,-1.65026 0.53778,-2.79844 0.35937,-1.14818 0.75441,-1.79428 1.18386,-1.93827 8.18127,-1.00419 13.34745,-2.79846 15.50108,-5.38155 2.15236,-2.58308 3.22918,-6.81772 3.22918,-12.70134 v -42.6267 h -58.12649 v 42.6267 c 0,5.7409 1.07682,9.97425 3.22917,12.70134 2.15364,2.7271 7.39118,4.5201 15.71644,5.38155 0.42945,0 0.82451,0.6104 1.18386,1.82995 0.35809,1.21954 0.53778,2.18931 0.53778,2.90676 0,0.86019 -0.17969,1.86564 -0.53778,3.01382 -0.35935,1.14819 -0.75441,1.72164 -1.18386,1.72164 -7.03308,0 -13.85081,-0.1784 -20.45188,-0.53777 a 364.35946,364.35946 0 0 0 -19.80581,-0.53778 c -6.60236,0 -13.45576,0.17842 -20.56021,0.53778 -7.10445,0.35937 -14.17194,0.53777 -21.20503,0.53777 -0.43073,0 -0.8245,-0.53777 -1.18386,-1.61459 a 9.8289887,9.8289887 0 0 1 -0.53777,-3.12087 c 0,-0.71745 0.1784,-1.65026 0.53777,-2.79844 0.35936,-1.14818 0.75313,-1.79428 1.18386,-1.93827 8.324,-1.00419 13.81385,-2.79846 16.46958,-5.38155 2.65445,-2.58308 3.98232,-6.81772 3.98232,-12.70134 v -94.50893 c 0,-5.8849 -1.32787,-10.11826 -3.98232,-12.70135 -2.65573,-2.58309 -8.14558,-4.37735 -16.46958,-5.38281 -0.43073,-0.14272 -0.8245,-0.78882 -1.18386,-1.937 -0.35937,-1.14818 -0.53777,-2.081 -0.53777,-2.79846 0,-1.00544 0.1784,-2.04531 0.53777,-3.12213 0.35936,-1.07554 0.75313,-1.61458 1.18386,-1.61458 7.03309,0 14.10058,0.17967 21.20503,0.53904 7.10445,0.35809 13.95785,0.53778 20.56021,0.53778 6.60109,0 13.20344,-0.17969 19.80581,-0.53778 6.60107,-0.35937 13.4188,-0.53904 20.45188,-0.53904 0.42945,0 0.82451,0.57472 1.18386,1.7229 0.35809,1.14818 0.53778,2.15236 0.53778,3.01381 0,0.71746 -0.17969,1.68596 -0.53778,2.9055 -0.35935,1.22082 -0.75441,1.82996 -1.18386,1.82996 -8.32526,0.86145 -13.5628,2.65572 -15.71644,5.38281 -2.15235,2.72709 -3.22917,6.96045 -3.22917,12.70135 v 41.33452 h 58.12649 v -41.33452 c 0,-6.17163 -0.9685,-10.47763 -2.90677,-12.91671 -1.937,-2.44037 -7.21149,-4.16199 -15.82349,-5.16745 -0.42945,-0.14272 -0.82449,-0.78882 -1.18386,-1.937 -0.35809,-1.14818 -0.53778,-2.081 -0.53778,-2.79846 0,-1.00544 0.17969,-2.04531 0.53778,-3.12213 0.35937,-1.07554 0.75441,-1.61458 1.18386,-1.61458 7.03309,0 13.81386,0.17967 20.34485,0.53904 6.52972,0.35809 13.0964,0.53778 19.69748,0.53778 6.74636,0 13.63544,-0.17969 20.66726,-0.53778 a 417.62307,417.62307 0 0 1 21.31334,-0.53904 c 0.43073,0 0.8245,0.57472 1.18386,1.7229 0.35937,1.14818 0.53777,2.15236 0.53777,3.01381 0,0.71746 -0.1784,1.68596 -0.53777,2.9055 -0.35936,1.22082 -0.75313,1.82996 -1.18386,1.82996 -8.32399,0.86145 -13.84953,2.65572 -16.57662,5.38281 -2.72709,2.72709 -4.09063,6.96045 -4.09063,12.70135 v 94.50893 c 0,5.7409 1.36354,9.97425 4.09063,12.70134 2.72709,2.7271 8.25263,4.5201 16.57662,5.38155 0.43073,0 0.8245,0.6104 1.18386,1.82995 0.35937,1.21954 0.53777,2.18931 0.53777,2.90676 z M 814.75593,586.9326 c 0,0.71745 -0.53778,1.36355 -1.6146,1.93699 -1.07553,0.57474 -2.33204,0.86147 -3.76695,0.86147 -0.57345,0 -1.36354,-0.10707 -2.36772,-0.32241 -1.00546,-0.21537 -1.57891,-0.46641 -1.72292,-0.75314 -2.00835,-7.89454 -6.78076,-16.61358 -14.31593,-26.15712 -7.53518,-9.5448 -14.60267,-14.31593 -21.20502,-14.31593 h -3.22919 c -3.30054,0 -5.66954,0.68177 -7.10445,2.04531 -1.43491,1.36355 -2.15236,3.48023 -2.15236,6.35004 v 102.0441 c 0,5.7409 1.36355,9.97425 4.08936,12.70134 2.7271,2.7271 8.25263,4.5201 16.57789,5.38155 0.42946,0 0.82451,0.6104 1.18387,1.82995 0.35809,1.21954 0.53777,2.18931 0.53777,2.90676 0,0.86019 -0.17968,1.86564 -0.53777,3.01382 -0.35936,1.14819 -0.75441,1.72164 -1.18387,1.72164 -6.88908,0 -13.95785,-0.1784 -21.20629,-0.53777 a 416.07219,416.07219 0 0 0 -20.55894,-0.53778 c -6.60236,0 -13.49144,0.17842 -20.66725,0.53778 -7.17581,0.35937 -14.28026,0.53777 -21.31208,0.53777 -0.43072,0 -0.82577,-0.57345 -1.18513,-1.72164 -0.35809,-1.14818 -0.53778,-2.15363 -0.53778,-3.01382 0,-0.71745 0.17969,-1.65026 0.53778,-2.79844 0.35936,-1.14818 0.75441,-1.79428 1.18513,-1.93827 8.46673,-1.00419 14.02921,-2.79846 16.68368,-5.38155 2.65572,-2.58308 3.9823,-6.81772 3.9823,-12.70134 v -102.0441 c 0,-3.15782 -0.64482,-5.34586 -1.93699,-6.5654 -1.29218,-1.22083 -3.73127,-1.82995 -7.31982,-1.82995 h -1.72163 c -5.88491,0 -13.13208,4.41304 -21.74407,13.23912 -8.61072,8.82736 -14.71098,17.90448 -18.29826,27.23393 -0.14399,0.42945 -0.68177,0.71746 -1.61458,0.86018 -0.93283,0.14399 -1.68724,0.21537 -2.26068,0.21537 a 8.7419762,8.7419762 0 0 1 -3.76695,-0.86147 c -1.22083,-0.57344 -1.82996,-1.21954 -1.82996,-1.93699 1.43491,-7.17581 2.97814,-15.96621 4.6284,-26.37248 1.65027,-10.40499 2.83414,-19.05139 3.5516,-25.94047 5.02344,0.86145 12.84535,1.57891 23.4657,2.15235 10.62036,0.57474 27.34097,0.86147 50.16059,0.86147 19.51907,0 35.77202,-0.28673 48.76137,-0.86147 12.98808,-0.57344 21.56439,-1.2909 25.72639,-2.15235 0.43072,6.88908 1.00418,15.06908 1.72162,24.54125 0.71746,9.47344 1.50755,18.73025 2.36774,27.7717 z m 99.67637,94.50891 c 0,1.00419 -0.17969,2.04533 -0.53906,3.12087 -0.35809,1.07682 -0.75313,1.61459 -1.18386,1.61459 -7.03181,0 -14.10057,-0.1784 -21.20502,-0.53777 a 407.30472,407.30472 0 0 0 -20.55893,-0.53778 c -6.60237,0 -13.49145,0.17842 -20.66726,0.53778 -7.17582,0.35937 -14.28027,0.53777 -21.31335,0.53777 -0.43072,0 -0.8245,-0.57345 -1.18386,-1.72164 -0.35809,-1.14818 -0.53777,-2.15363 -0.53777,-3.01382 0,-0.71745 0.17968,-1.65026 0.53777,-2.79844 0.35936,-1.14818 0.75314,-1.79428 1.18386,-1.93827 8.46799,-1.00419 14.02921,-2.79846 16.68494,-5.38155 2.65445,-2.58308 3.98232,-6.81772 3.98232,-12.70134 v -94.50893 c 0,-5.8849 -1.32787,-10.11826 -3.98232,-12.70135 -2.65573,-2.58309 -8.21695,-4.37735 -16.68494,-5.38281 -0.43072,-0.14272 -0.8245,-0.78882 -1.18386,-1.937 -0.35809,-1.14818 -0.53777,-2.081 -0.53777,-2.79846 0,-0.86145 0.17968,-1.86563 0.53777,-3.01381 0.35936,-1.14818 0.75314,-1.7229 1.18386,-1.7229 7.03308,0 14.13753,0.17967 21.31335,0.53904 7.17581,0.35809 14.06489,0.53778 20.66726,0.53778 a 408.80845,408.80845 0 0 0 20.55893,-0.53778 419.70661,419.70661 0 0 1 21.20502,-0.53904 c 0.43073,0 0.82577,0.53904 1.18386,1.61458 0.35937,1.07682 0.53906,2.11669 0.53906,3.12213 0,0.71746 -0.17969,1.68596 -0.53906,2.9055 -0.35809,1.22082 -0.75313,1.82996 -1.18386,1.82996 -8.17999,0.86145 -13.63416,2.65572 -16.36125,5.38281 -2.7271,2.72709 -4.09063,6.96045 -4.09063,12.70135 v 94.50893 c 0,5.7409 1.36353,9.97425 4.09063,12.70134 2.72709,2.7271 8.18126,4.5201 16.36125,5.38155 0.43073,0 0.82577,0.6104 1.18386,1.82995 0.35937,1.21954 0.53906,2.18931 0.53906,2.90676 z m 199.5618,-140.14815 c 0,0.71746 -0.1797,1.68596 -0.5391,2.9055 -0.3581,1.22082 -0.7531,1.82996 -1.1839,1.82996 -8.0372,0.86145 -13.6698,2.62004 -16.899,5.27449 -3.2292,2.65573 -4.9164,6.92477 -5.0591,12.80967 l -2.3677,122.92544 c 0,0.43074 -0.4664,0.89714 -1.4005,1.39923 -0.9329,0.50208 -2.4748,0.75313 -4.6284,0.75313 -1.5777,0 -2.9412,-0.10706 -4.0894,-0.32241 -1.1482,-0.21535 -2.0096,-0.68177 -2.5844,-1.39921 l -104.62591,-105.70274 -1.29218,76.85549 c -0.28672,5.59689 1.21955,9.79458 4.52137,12.59302 3.30053,2.79846 9.1128,4.62842 17.43807,5.48987 0.42945,0 0.82449,0.53904 1.18386,1.61458 0.35809,1.07682 0.53778,2.11669 0.53778,3.12213 0,0.86019 -0.17969,1.86564 -0.53778,3.01382 -0.35937,1.14819 -0.75441,1.72164 -1.18386,1.72164 -5.45417,0 -10.47763,-0.1784 -15.07035,-0.53777 a 185.10179,185.10179 0 0 0 -14.42427,-0.53778 c -5.16617,0 -9.93857,0.17842 -14.31594,0.53778 -4.37736,0.35937 -9.00576,0.53777 -13.88521,0.53777 -0.43073,0 -0.82577,-0.57345 -1.18386,-1.72164 -0.35937,-1.14818 -0.53904,-2.15363 -0.53904,-3.01382 0,-1.00544 0.21535,-2.00963 0.64608,-3.01381 0.43072,-1.00545 0.86146,-1.57891 1.29219,-1.7229 8.17999,-0.86145 13.84953,-2.65445 17.00734,-5.38155 3.15655,-2.72709 4.73546,-6.96044 4.73546,-12.70134 l 3.44454,-87.61984 c 0.14399,-7.75054 -1.43491,-13.59849 -4.73546,-17.54512 -3.30182,-3.94791 -9.5448,-6.42267 -18.73026,-7.42813 -0.43072,-0.14272 -0.78881,-0.78882 -1.07554,-1.937 -0.28799,-1.14818 -0.43073,-2.081 -0.43073,-2.79846 0,-1.00544 0.17842,-2.04531 0.53778,-3.12213 0.35937,-1.07554 0.75314,-1.61458 1.18386,-1.61458 3.44454,0 7.53518,0.17967 12.27191,0.53904 4.73544,0.35809 8.61071,0.53778 11.62453,0.53778 a 106.34372,106.34372 0 0 0 10.97971,-0.53778 c 3.44454,-0.35937 7.89327,-0.53904 13.34745,-0.53904 l 93.43216,97.30736 v -69.75103 c 0,-5.8849 -1.7229,-10.11826 -5.1675,-12.70135 -3.4445,-2.58309 -9.3282,-4.37735 -17.6521,-5.38281 -0.4308,-0.14272 -0.8258,-0.71746 -1.1852,-1.72164 a 8.931853,8.931853 0 0 1 -0.5378,-3.01382 c 0,-0.86145 0.1797,-1.86563 0.5378,-3.01381 0.3594,-1.14818 0.7544,-1.7229 1.1852,-1.7229 5.5969,0 10.3693,0.21535 14.3159,0.64608 3.9466,0.43074 8.431,0.64609 13.4545,0.64609 5.1674,0 10.2622,-0.21535 15.2857,-0.64609 5.0222,-0.43073 9.9029,-0.64608 14.6383,-0.64608 0.4308,0 0.8258,0.53904 1.1839,1.61458 0.3594,1.07682 0.5391,2.11669 0.5391,3.12213 z m 176.751,78.79249 c 0,0.71745 -0.1797,1.68594 -0.539,2.90676 -0.3582,1.21955 -0.7532,1.82995 -1.1839,1.82995 -6.8891,0.71746 -11.6246,2.58309 -14.2077,5.59691 -2.5843,3.01381 -3.8752,7.17581 -3.8752,12.486 v 21.74407 c 0,3.58726 0.1784,6.17162 0.5377,7.74925 0.3595,1.57892 0.9685,3.30182 1.83,5.16746 -8.6107,3.01381 -18.5136,5.77659 -29.7086,8.28831 -11.1952,2.51173 -22.8197,3.76695 -34.8762,3.76695 -13.921,0 -26.3356,-2.15235 -37.2426,-6.45836 -10.9084,-4.30471 -19.9499,-10.11826 -27.1257,-17.43807 -7.033,-7.03181 -12.3432,-15.21308 -15.9318,-24.54125 -3.5872,-9.32945 -5.3815,-19.01699 -5.3815,-29.06262 0,-10.76435 1.974,-20.77557 5.9206,-30.03238 3.9466,-9.2568 9.9386,-17.68912 17.9758,-25.29566 7.8933,-7.31981 17.8319,-13.09639 29.8158,-17.32975 11.9852,-4.23464 25.2957,-6.35131 39.9353,-6.35131 8.324,0 17.0073,1.22081 26.0487,3.65989 9.0415,2.44037 16.8634,3.65991 23.4657,3.65991 0,5.88491 0.1441,13.45449 0.4308,22.71258 0.2867,9.2568 0.5021,17.04302 0.6461,23.35738 0,0.43073 -0.6105,0.82577 -1.83,1.18386 -1.2195,0.35937 -2.332,0.53906 -3.3375,0.53906 -1.0041,0 -1.9013,-0.14401 -2.6901,-0.43074 -0.7901,-0.28672 -1.3279,-0.71744 -1.6146,-1.29218 -3.3018,-11.91254 -9.2212,-22.0308 -17.7617,-30.35479 -8.5394,-8.32399 -18.7647,-12.48598 -30.6773,-12.48598 -12.9167,0 -23.142,6.38699 -30.6771,19.1597 -7.5353,12.77399 -11.3021,29.20662 -11.3021,49.30041 0,19.37508 3.6598,35.41266 10.9784,48.11528 7.3197,12.70136 17.4381,19.0514 30.3548,19.0514 8.7546,0 14.6753,-1.14818 17.7617,-3.44454 3.0852,-2.29638 4.6284,-5.74092 4.6284,-10.33236 v -25.61934 c 0,-4.87945 -1.2922,-8.324 -3.8753,-10.33363 -2.5831,-2.00836 -8.324,-3.5159 -17.2227,-4.52009 -0.4307,0 -0.8257,-0.57473 -1.1838,-1.72291 -0.3594,-1.14818 -0.5391,-2.22372 -0.5391,-3.22917 0,-1.00419 0.1797,-2.04532 0.5391,-3.12087 0.3581,-1.07682 0.7531,-1.61459 1.1838,-1.61459 7.0331,0 13.2034,0.2141 18.5137,0.64482 5.3101,0.43073 11.195,0.6461 17.6535,0.6461 6.6023,0 13.6341,-0.21537 21.0979,-0.6461 a 377.52339,377.52339 0 0 1 21.7428,-0.64482 c 0.4307,0 0.8257,0.57346 1.1839,1.72164 0.3593,1.14818 0.539,2.15236 0.539,3.01382 z m 230.1332,-25.40271 c 0,1.00419 -0.1798,2.04531 -0.5391,3.12086 -0.3581,1.07682 -0.7531,1.61459 -1.1838,1.61459 -7.8933,1.14818 -13.3832,2.79845 -16.4683,4.95209 -3.0865,2.15236 -6.7094,5.66826 -10.8728,10.54899 l -27.1242,34.01342 c 10.0456,11.19509 17.1143,17.97713 21.2049,20.34485 4.0906,2.36772 8.6465,3.55158 13.6699,3.55158 3.4445,0 6.243,-0.64481 8.3967,-1.937 2.1523,-1.29217 4.1619,-3.01381 6.0276,-5.16744 0.1427,-0.14273 0.4307,-0.0713 0.8615,0.21536 0.4294,0.288 0.7887,0.50336 1.0754,0.64609 l 1.0769,1.07682 c 0.4308,0.43073 0.7175,0.78882 0.8614,1.07682 0.2867,0.57345 0.6448,1.47058 1.0756,2.69013 0.4307,1.22082 0.4307,1.97395 0,2.26068 -3.7313,4.73672 -9.2568,8.64768 -16.5766,11.73285 -7.3185,3.08518 -14.9264,4.6284 -22.8197,4.6284 -8.7547,0 -16.3613,-1.18386 -22.8196,-3.55158 -6.4584,-2.36899 -12.774,-7.3555 -18.9443,-14.96203 -6.0289,6.31436 -12.3076,10.90708 -18.8373,13.77817 -6.531,2.86981 -14.6753,4.30472 -24.4342,4.30472 -14.6396,0 -26.8745,-3.76695 -36.7062,-11.30213 -9.8315,-7.53517 -14.7466,-16.54094 -14.7466,-27.01729 0,-10.18962 3.5886,-18.76594 10.7644,-25.72639 7.1758,-6.96044 17.5094,-11.87685 31.0008,-14.74667 -4.45,-4.01927 -7.8218,-8.18126 -10.1182,-12.48598 -2.2964,-4.306 -3.4445,-8.68337 -3.4445,-13.13208 0,-10.33363 4.269,-19.16099 12.8083,-26.47952 8.5394,-7.31982 19.9855,-10.97972 34.3371,-10.97972 11.1951,0 19.4477,2.76277 24.7579,8.28831 5.3102,5.52553 7.9659,11.15813 7.9659,16.89903 0,5.7409 -2.2964,11.26644 -6.8891,16.57662 -4.5927,5.31017 -10.9083,10.26226 -18.9456,14.85499 l 32.9392,37.02852 c 7.1758,-9.04274 12.1993,-15.53677 15.0691,-19.4834 2.8698,-3.94664 4.306,-8.21695 4.306,-12.80968 0,-2.58308 -0.8972,-4.6284 -2.6914,-6.13467 -1.7944,-1.50754 -7.4996,-2.6914 -17.1144,-3.55286 -0.4308,0 -0.8259,-0.57345 -1.1839,-1.72163 -0.3593,-1.14818 -0.539,-2.15364 -0.539,-3.01382 0,-0.86145 0.1797,-1.86563 0.539,-3.01381 0.358,-1.14818 0.7531,-1.72292 1.1839,-1.72292 4.8794,0 9.7945,0.21537 14.7467,0.6461 4.9508,0.43072 10.7273,0.64609 17.3296,0.64609 6.4584,0 11.7687,-0.21537 15.9306,-0.64609 4.162,-0.43073 8.612,-0.6461 13.3475,-0.6461 0.4307,0 0.8257,0.53906 1.1838,1.6146 0.3593,1.07681 0.5391,2.11667 0.5391,3.12213 z m -86.3278,-21.52871 c 0,-4.162 -0.9327,-7.71358 -2.7996,-10.65604 -1.8657,-2.94245 -5.1662,-4.41304 -9.9029,-4.41304 -4.7354,0 -8.2514,1.65028 -10.5478,4.95081 -2.2964,3.30182 -3.4445,7.39118 -3.4445,12.2719 0,3.87401 0.9685,7.42686 2.9055,10.65605 1.9383,3.22917 4.9878,7.14013 9.1497,11.73285 5.597,-3.73127 9.4366,-7.85759 11.5176,-12.37895 2.0809,-4.52136 3.122,-8.57504 3.122,-12.16358 z m -3.0137,91.06437 -41.1191,-46.71604 c -3.5886,2.58309 -6.136,5.81226 -7.6423,9.68754 -1.5075,3.87526 -2.2607,8.32399 -2.2607,13.34743 0,9.47218 2.7985,17.07872 8.3954,22.81962 5.5982,5.74091 12.4873,8.61199 20.6672,8.61199 4.5927,0 8.6834,-0.64609 12.2707,-1.93827 a 29.083,29.083 0 0 0 9.6888,-5.81227 z m 310.0063,17.22271 c 0,0.86019 -0.1798,1.86564 -0.5391,3.01382 -0.3581,1.14819 -0.7531,1.72164 -1.1839,1.72164 -6.8891,0 -13.8495,-0.1784 -20.8825,-0.53777 -7.0319,-0.35936 -13.4902,-0.53778 -19.3751,-0.53778 -6.6024,0 -13.6699,0.17842 -21.205,0.53778 -7.5353,0.35937 -14.8181,0.53777 -21.8512,0.53777 -0.4307,0 -0.8244,-0.53777 -1.1839,-1.61459 a 9.8289887,9.8289887 0 0 1 -0.5377,-3.12087 c 0,-0.71745 0.1068,-1.65026 0.3223,-2.79844 0.2154,-1.14818 0.5379,-1.79428 0.9686,-1.93827 6.889,-0.43073 11.4461,-1.32787 13.6712,-2.69141 2.2236,-1.36227 3.3362,-3.48023 3.3362,-6.35004 0,-1.14818 -0.2511,-2.58309 -0.7531,-4.306 a 52.082299,52.082299 0 0 0 -1.6147,-4.73544 l -5.8123,-15.07036 h -45.2098 l -5.1662,12.48599 a 46.075057,46.075057 0 0 0 -2.0452,5.70522 c -0.5021,1.79428 -0.7531,3.3375 -0.7531,4.62841 0,3.01381 0.8244,5.4185 2.4747,7.21276 1.6502,1.793 6.2073,2.83414 13.6711,3.12087 0.4307,0 0.7174,0.6104 0.8602,1.82995 0.144,1.21954 0.2154,2.18931 0.2154,2.90676 0,1.00419 -0.1784,2.04533 -0.5378,3.12087 -0.3594,1.07682 -0.7532,1.61459 -1.1838,1.61459 -6.1717,0 -10.9798,-0.1784 -14.4244,-0.53777 -3.4445,-0.35936 -8.0372,-0.53778 -13.7781,-0.53778 -4.7354,0 -8.8975,0.17842 -12.486,0.53778 -3.5885,0.35937 -7.8219,0.53777 -12.7014,0.53777 -0.4307,0 -0.79,-0.60914 -1.0767,-1.82996 -0.2867,-1.21954 -0.4308,-2.18804 -0.4308,-2.9055 0,-0.71745 0.3237,-1.65026 0.9698,-2.79844 0.6448,-1.14818 1.1839,-1.79428 1.6146,-1.93827 6.1704,-0.57346 10.9784,-2.4391 14.423,-5.59691 3.4446,-3.15782 6.9604,-8.46799 10.5489,-15.93053 l 53.3899,-120.34235 c 0.1439,-0.43073 0.9328,-0.82577 2.3677,-1.18386 1.4362,-0.35937 2.7997,-0.53904 4.0906,-0.53904 1.2922,0 2.6557,0.17967 4.0906,0.53904 1.4349,0.35809 2.225,0.75313 2.3678,1.18386 l 47.7928,120.34235 c 2.5831,7.17581 5.6683,12.37767 9.2569,15.60685 3.5885,3.22918 8.97,5.20313 16.1458,5.92059 0.4307,0 0.8972,0.6104 1.3992,1.82995 0.5034,1.21954 0.7545,2.18931 0.7545,2.90676 z m -80.7308,-48.22358 -18.0841,-47.36215 -18.9444,47.36215 z m 240.686,0.21535 a 4047.2291,4047.2291 0 0 0 -3.1222,24.64958 2571.1579,2571.1579 0 0 0 -2.6914,22.28185 c -6.4583,0 -14.4587,1.54322 -24.0034,4.6284 -9.5435,3.08645 -19.7701,4.6284 -30.6772,4.6284 -14.6397,0 -27.592,-2.18805 -38.8586,-6.5654 -11.2664,-4.37736 -20.6315,-10.15394 -28.094,-17.33103 -7.4638,-7.17582 -13.025,-15.39149 -16.685,-24.64957 -3.6599,-9.25681 -5.4885,-18.90867 -5.4885,-28.9543 0,-20.81125 8.2157,-39.18214 24.6495,-55.11268 16.4326,-15.93052 38.4991,-23.89642 66.1983,-23.89642 12.1992,0 22.246,1.0768 30.1394,3.22917 7.8944,2.15364 15.1417,3.22918 21.7441,3.22918 0.2867,6.88908 0.7173,14.63963 1.2908,23.25034 0.5747,8.612 1.1482,16.50526 1.7229,23.68107 0,0.43073 -0.6461,0.82577 -1.9383,1.18386 -1.2908,0.35937 -2.439,0.53906 -3.4445,0.53906 -0.7174,0 -1.542,-0.14401 -2.4748,-0.43074 -0.9328,-0.28672 -1.5432,-0.71744 -1.83,-1.29218 -1.8655,-10.47635 -7.2126,-20.27221 -16.0387,-29.38501 -8.8262,-9.11409 -18.8373,-13.67113 -30.0311,-13.67113 -16.9361,0 -28.7773,6.49404 -35.5223,19.48339 -6.7451,12.98808 -10.1183,29.38503 -10.1183,49.19209 0,19.37508 3.3375,35.41266 10.0113,48.11528 6.6736,12.70136 18.2625,19.0514 34.7678,19.0514 13.2035,0 23.9677,-4.59274 32.2917,-13.7769 8.324,-9.18545 14.567,-19.87844 18.729,-32.07771 0.144,-0.57344 0.7545,-1.00417 1.8299,-1.2909 1.0769,-0.288 1.9741,-0.43072 2.6915,-0.43072 0.7175,0 1.7229,0.1784 3.0138,0.53776 1.2922,0.35937 1.9383,0.75314 1.9383,1.18386 z m 170.7107,0 a 4165.4166,4165.4166 0 0 0 -3.1209,24.64958 2571.1579,2571.1579 0 0 0 -2.6915,22.28185 c -6.4583,0 -14.4599,1.54322 -24.0034,4.6284 -9.5448,3.08645 -19.7701,4.6284 -30.6772,4.6284 -14.6396,0 -27.592,-2.18805 -38.8584,-6.5654 -11.2665,-4.37736 -20.6316,-10.15394 -28.0942,-17.33103 -7.4638,-7.17582 -13.025,-15.39149 -16.685,-24.64957 -3.6598,-9.25681 -5.4897,-18.90867 -5.4897,-28.9543 0,-20.81125 8.2169,-39.18214 24.6495,-55.11268 16.4339,-15.93052 38.5004,-23.89642 66.1995,-23.89642 12.1992,0 22.2461,1.0768 30.1394,3.22917 7.8932,2.15364 15.1417,3.22918 21.7441,3.22918 0.2867,6.88908 0.7174,14.63963 1.2908,23.25034 0.5748,8.612 1.1482,16.50526 1.7229,23.68107 0,0.43073 -0.646,0.82577 -1.9383,1.18386 -1.2908,0.35937 -2.439,0.53906 -3.4445,0.53906 -0.7174,0 -1.5419,-0.14401 -2.476,-0.43074 -0.9328,-0.28672 -1.542,-0.71744 -1.8287,-1.29218 -1.8669,-10.47635 -7.2127,-20.27221 -16.0388,-29.38501 -8.8274,-9.11409 -18.8373,-13.67113 -30.0324,-13.67113 -16.9347,0 -28.7759,6.49404 -35.521,19.48339 -6.7451,12.98808 -10.1183,29.38503 -10.1183,49.19209 0,19.37508 3.3376,35.41266 10.0113,48.11528 6.6737,12.70136 18.2625,19.0514 34.7678,19.0514 13.2035,0 23.9678,-4.59274 32.2918,-13.7769 8.3239,-9.18545 14.567,-19.87844 18.729,-32.07771 0.144,-0.57344 0.7544,-1.00417 1.8299,-1.2909 1.0768,-0.288 1.974,-0.43072 2.6914,-0.43072 0.7175,0 1.7216,0.1784 3.0139,0.53776 1.2921,0.35937 1.937,0.75314 1.937,1.18386 z m 164.9123,2.36774 a 1244.1464,1244.1464 0 0 0 -2.9067,25.51102 c -0.9329,8.97008 -1.6146,17.25839 -2.0453,24.86493 -9.0414,-0.28673 -20.3793,-0.53777 -34.0135,-0.75314 -13.6354,-0.21537 -24.6138,-0.32241 -32.9378,-0.32241 -8.3254,0 -20.1652,0.14274 -35.5222,0.43073 l -34.4442,0.64482 c -0.4308,0 -0.8258,-0.57345 -1.1851,-1.72164 -0.3581,-1.14818 -0.5379,-2.15363 -0.5379,-3.01382 0,-0.71745 0.1798,-1.65026 0.5379,-2.79844 0.3593,-1.14818 0.7543,-1.79428 1.1851,-1.93827 8.4667,-1.00419 14.0292,-2.79846 16.6836,-5.38155 2.6557,-2.58308 3.9824,-6.81772 3.9824,-12.70134 v -94.50893 c 0,-5.8849 -1.3267,-10.11826 -3.9824,-12.70135 -2.6544,-2.58309 -8.2169,-4.37735 -16.6836,-5.38281 -0.4308,-0.14272 -0.8258,-0.78882 -1.1851,-1.937 -0.3581,-1.14818 -0.5379,-2.081 -0.5379,-2.79846 0,-0.86145 0.1798,-1.86563 0.5379,-3.01381 0.3593,-1.14818 0.7543,-1.7229 1.1851,-1.7229 7.6065,0.14399 18.5136,0.35936 32.7225,0.64608 14.2076,0.28673 25.9048,0.43074 35.0902,0.43074 7.7506,0 18.7302,-0.10833 32.9379,-0.32369 14.2089,-0.21409 25.6908,-0.4664 34.4454,-0.75313 -0.2867,5.88489 -0.1796,13.49144 0.3225,22.81961 0.5034,9.32945 0.897,17.7248 1.185,25.18862 0,0.57344 -0.539,1.18386 -1.6145,1.82995 -1.0769,0.64608 -2.5487,0.96849 -4.4144,0.96849 -1.0041,0 -1.8655,-0.14399 -2.583,-0.43072 -0.7174,-0.28673 -1.0768,-0.57345 -1.0768,-0.86145 -1.1482,-9.04145 -4.9151,-17.61649 -11.3021,-25.72512 -6.3858,-8.1099 -15.3929,-12.16357 -27.0173,-12.16357 h -12.9167 c -2.8711,0 -5.6696,0.71745 -8.3968,2.15236 -2.727,1.4349 -4.0893,4.95208 -4.0893,10.54899 v 44.56369 h 7.3186 c 7.1771,0 12.9537,-2.15364 17.331,-6.45964 4.3774,-4.30472 6.9247,-9.97426 7.6422,-17.00607 0,-0.43073 0.6105,-0.82577 1.83,-1.18514 1.2195,-0.35809 2.188,-0.53778 2.9054,-0.53778 1.0055,0 2.0454,0.17969 3.1222,0.53778 1.0769,0.35937 1.6146,0.75441 1.6146,1.18514 0,5.31017 -0.1797,10.26098 -0.5377,14.85372 a 182.1912,182.1912 0 0 0 -0.5391,14.20889 c 0,5.02345 0.1796,9.72322 0.5391,14.10057 0.358,4.37737 0.5377,9.14978 0.5377,14.31594 0,0.43074 -0.5377,0.82579 -1.6146,1.18388 -1.0768,0.35936 -2.1167,0.53904 -3.1222,0.53904 -0.7174,0 -1.6501,-0.17968 -2.7983,-0.53904 -1.1482,-0.35809 -1.7931,-0.75314 -1.9371,-1.18388 -0.8614,-7.46254 -3.2648,-13.23912 -7.2115,-17.32975 -3.9479,-4.09063 -9.8672,-6.13595 -17.7617,-6.13595 h -7.3186 v 45.85587 c 0,5.16618 1.3623,8.57504 4.0893,10.22531 2.7272,1.65027 5.5257,2.47604 8.3968,2.47604 h 11.1938 c 10.9083,0 20.5959,-3.94663 29.0638,-11.84117 8.468,-7.89327 13.7782,-17.5808 15.9306,-29.06261 0,-0.28673 0.3223,-0.50208 0.9685,-0.64609 a 10.561735,10.561735 0 0 1 2.2606,-0.21536 c 1.579,0 3.1222,0.28799 4.6285,0.86145 1.5075,0.57472 2.1893,1.29218 2.0452,2.15237 z m 201.9321,-94.50766 c 0,0.71746 -0.1784,1.68596 -0.5378,2.9055 -0.3581,1.22082 -0.7532,1.82996 -1.1838,1.82996 -8.0373,0.86145 -13.6699,2.62004 -16.8991,5.27449 -3.2292,2.65573 -4.9164,6.92477 -5.0592,12.80967 l -2.3689,122.92544 c 0,0.43074 -0.4664,0.89714 -1.3993,1.39923 -0.9328,0.50208 -2.476,0.75313 -4.6283,0.75313 -1.579,0 -2.9425,-0.10706 -4.0906,-0.32241 -1.1482,-0.21535 -2.0084,-0.68177 -2.5831,-1.39921 l -104.6272,-105.70274 -1.291,76.85549 c -0.2867,5.59689 1.2195,9.79458 4.5201,12.59302 3.3018,2.79846 9.1141,4.62842 17.4381,5.48987 0.4307,0 0.8258,0.53904 1.1838,1.61458 0.3595,1.07682 0.5391,2.11669 0.5391,3.12213 0,0.86019 -0.1796,1.86564 -0.5391,3.01382 -0.358,1.14819 -0.7531,1.72164 -1.1838,1.72164 -5.4529,0 -10.4764,-0.1784 -15.0691,-0.53777 a 185.10179,185.10179 0 0 0 -14.4242,-0.53778 c -5.1662,0 -9.9386,0.17842 -14.316,0.53778 -4.3774,0.35937 -9.0058,0.53777 -13.8853,0.53777 -0.4306,0 -0.8257,-0.57345 -1.185,-1.72164 -0.3581,-1.14818 -0.5379,-2.15363 -0.5379,-3.01382 0,-1.00544 0.2154,-2.00963 0.6462,-3.01381 0.4307,-1.00545 0.8615,-1.57891 1.2909,-1.7229 8.1813,-0.86145 13.8507,-2.65445 17.0073,-5.38155 3.1578,-2.72709 4.7368,-6.96044 4.7368,-12.70134 l 3.4445,-87.61984 c 0.1441,-7.75054 -1.4349,-13.59849 -4.7368,-17.54512 -3.3005,-3.94791 -9.5435,-6.42267 -18.7289,-7.42813 -0.4307,-0.14272 -0.7889,-0.78882 -1.0769,-1.937 -0.2867,-1.14818 -0.4306,-2.081 -0.4306,-2.79846 0,-1.00544 0.1796,-2.04531 0.539,-3.12213 0.358,-1.07554 0.7531,-1.61458 1.1839,-1.61458 3.4445,0 7.5351,0.17967 12.2706,0.53904 4.7367,0.35809 8.612,0.53778 11.6258,0.53778 a 106.31823,106.31823 0 0 0 10.9785,-0.53778 c 3.4445,-0.35937 7.8945,-0.53904 13.3474,-0.53904 l 93.4321,97.30736 v -69.75103 c 0,-5.8849 -1.7217,-10.11826 -5.1662,-12.70135 -3.4445,-2.58309 -9.3295,-4.37735 -17.6535,-5.38281 -0.4307,-0.14272 -0.8244,-0.71746 -1.1838,-1.72164 a 8.931853,8.931853 0 0 1 -0.5378,-3.01382 c 0,-0.86145 0.1798,-1.86563 0.5378,-3.01381 0.3594,-1.14818 0.7531,-1.7229 1.1838,-1.7229 5.5982,0 10.3694,0.21535 14.316,0.64608 3.9479,0.43074 8.4323,0.64609 13.4557,0.64609 5.1662,0 10.2623,-0.21535 15.2845,-0.64609 5.0234,-0.43073 9.9029,-0.64608 14.6397,-0.64608 0.4306,0 0.8257,0.53904 1.1838,1.61458 0.3594,1.07682 0.5378,2.11669 0.5378,3.12213 z m 163.6125,45.63924 c 0,0.71745 -0.5377,1.36355 -1.6146,1.93699 -1.0754,0.57474 -2.3319,0.86147 -3.7668,0.86147 -0.5735,0 -1.3636,-0.10707 -2.3679,-0.32241 -1.0054,-0.21537 -1.5788,-0.46641 -1.7229,-0.75314 -2.0083,-7.89454 -6.7807,-16.61358 -14.3159,-26.15712 -7.5351,-9.5448 -14.6027,-14.31593 -21.205,-14.31593 h -3.2292 c -3.3005,0 -5.6696,0.68177 -7.1045,2.04531 -1.4349,1.36355 -2.1523,3.48023 -2.1523,6.35004 v 102.0441 c 0,5.7409 1.3636,9.97425 4.0894,12.70134 2.7271,2.7271 8.2526,4.5201 16.5766,5.38155 0.4307,0 0.8257,0.6104 1.1852,1.82995 0.358,1.21954 0.5377,2.18931 0.5377,2.90676 0,0.86019 -0.1797,1.86564 -0.5377,3.01382 -0.3595,1.14819 -0.7545,1.72164 -1.1852,1.72164 -6.8878,0 -13.9566,-0.1784 -21.2051,-0.53777 a 416.07219,416.07219 0 0 0 -20.5589,-0.53778 c -6.6023,0 -13.4914,0.17842 -20.6672,0.53778 -7.1759,0.35937 -14.2803,0.53777 -21.3121,0.53777 -0.4308,0 -0.8258,-0.57345 -1.1851,-1.72164 -0.3581,-1.14818 -0.5378,-2.15363 -0.5378,-3.01382 0,-0.71745 0.1797,-1.65026 0.5378,-2.79844 0.3593,-1.14818 0.7543,-1.79428 1.1851,-1.93827 8.4667,-1.00419 14.0292,-2.79846 16.6837,-5.38155 2.6557,-2.58308 3.9823,-6.81772 3.9823,-12.70134 v -102.0441 c 0,-3.15782 -0.6448,-5.34586 -1.937,-6.5654 -1.2921,-1.22083 -3.7313,-1.82995 -7.3198,-1.82995 h -1.7216 c -5.885,0 -13.1321,4.41304 -21.7441,13.23912 -8.6107,8.82736 -14.7111,17.90448 -18.2983,27.23393 -0.144,0.42945 -0.6818,0.71746 -1.6146,0.86018 -0.9327,0.14399 -1.6872,0.21537 -2.2607,0.21537 a 8.7508966,8.7508966 0 0 1 -3.7681,-0.86147 c -1.2196,-0.57344 -1.83,-1.21954 -1.83,-1.93699 1.4362,-7.17581 2.9781,-15.96621 4.6297,-26.37248 1.6502,-10.40499 2.8341,-19.05139 3.5515,-25.94047 5.0235,0.86145 12.8454,1.57891 23.4657,2.15235 10.6204,0.57474 27.3411,0.86147 50.1606,0.86147 19.5191,0 35.7721,-0.28673 48.7614,-0.86147 12.9881,-0.57344 21.5644,-1.2909 25.7264,-2.15235 0.4308,6.88908 1.0042,15.06908 1.7216,24.54125 0.7175,9.47344 1.5075,18.73025 2.3677,27.7717 z m 99.2457,9.47218 c 8.4667,5.02345 16.4326,11.01539 23.8952,17.97584 7.4638,6.96172 11.195,15.75212 11.195,26.37248 0,15.21307 -5.4899,27.16129 -16.4683,35.84465 -10.9797,8.68209 -24.7936,13.02376 -41.4428,13.02376 -10.1897,0 -18.9087,-1.39922 -26.1559,-4.19768 -7.2484,-2.79844 -15.5366,-5.05912 -24.8649,-6.78076 -0.144,-5.16746 -0.2154,-12.05654 -0.2154,-20.66726 0,-8.61199 -0.2152,-16.21852 -0.646,-22.81961 0,-0.43073 0.6104,-0.82577 1.8299,-1.18514 1.2196,-0.35809 2.2607,-0.53778 3.1221,-0.53778 1.0043,0 1.9728,0.14401 2.9056,0.43073 0.9328,0.28673 1.4719,0.71745 1.6145,1.29219 2.7272,12.77271 8.4324,23.3217 17.1157,31.64569 8.6822,8.324 17.1144,12.486 25.2944,12.486 8.3253,0 14.3172,-1.82996 17.9771,-5.48859 3.6599,-3.65991 5.4886,-8.64768 5.4886,-14.96203 0,-7.75055 -3.7312,-14.28154 -11.1938,-19.59171 -7.4638,-5.31018 -15.501,-10.47636 -24.1118,-15.49981 a 134.34353,134.34353 0 0 1 -24.3271,-17.8688 c -7.4626,-6.88909 -11.1938,-15.3558 -11.1938,-25.40271 0,-13.34744 5.0591,-24.57821 15.1773,-33.69101 10.1183,-9.11408 24.0035,-13.67112 41.6569,-13.67112 7.8934,0 14.711,0.96849 20.4519,2.90676 5.7396,1.93701 11.9113,3.55159 18.5137,4.84377 0.144,5.16618 0.395,11.62453 0.7531,19.37508 0.3593,7.75054 0.8257,14.13753 1.3992,19.1597 0,0.43073 -0.6091,0.82577 -1.8299,1.18386 -1.2196,0.35937 -2.1881,0.53906 -2.9055,0.53906 a 10.930019,10.930019 0 0 1 -3.0139,-0.43073 c -1.0054,-0.28673 -1.6515,-0.71745 -1.9382,-1.29219 -2.7271,-11.1938 -6.7451,-19.98548 -12.0552,-26.3712 -5.3103,-6.38699 -11.8413,-9.58049 -19.5906,-9.58049 -6.7462,0 -12.0565,1.79427 -15.9317,5.38281 -3.874,3.58727 -5.8123,8.10863 -5.8123,13.56154 0,7.17708 3.6243,13.31175 10.8714,18.40657 7.2484,5.09608 15.3928,10.29794 24.4355,15.60813 z"
     style="fill-rule:nonzero;stroke-width:1.27434"
     id="path1" /></svg>
