<?xml version="1.0" encoding="UTF-8" standalone="no"?>
<svg
   aria-labelledby="aonfvwdnavyjvj104tby2b2v0m31xjvv"
   class="h-8 w-40 fill-current text-gray-400"
   version="1.0"
   viewBox="0 0 2761 991"
   id="svg2"
   sodipodi:docname="yane-productions.svg"
   width="2761"
   height="991"
   inkscape:version="1.3 (0e150ed, 2023-07-21)"
   xmlns:inkscape="http://www.inkscape.org/namespaces/inkscape"
   xmlns:sodipodi="http://sodipodi.sourceforge.net/DTD/sodipodi-0.dtd"
   xmlns="http://www.w3.org/2000/svg"
   xmlns:svg="http://www.w3.org/2000/svg">
  <defs
     id="defs2" />
  <sodipodi:namedview
     id="namedview2"
     pagecolor="#505050"
     bordercolor="#ffffff"
     borderopacity="1"
     inkscape:showpageshadow="0"
     inkscape:pageopacity="0"
     inkscape:pagecheckerboard="1"
     inkscape:deskcolor="#505050"
     inkscape:zoom="0.16910267"
     inkscape:cx="1516.83"
     inkscape:cy="375.51152"
     inkscape:window-width="1392"
     inkscape:window-height="1212"
     inkscape:window-x="2240"
     inkscape:window-y="25"
     inkscape:window-maximized="0"
     inkscape:current-layer="svg2" />
  <path
     d="m 165.21039,72.648877 c 0.99628,1.992564 41.31948,78.968453 89.66538,171.098323 l 87.88255,167.48024 v 148.7082 H 504.26088 V 408.29103 L 583.75369,253.81489 C 627.48523,168.8163 663.61356,98.761952 664.03304,98.080285 l 0.68167,-1.153589 111.3214,0.104871 111.26897,0.157308 0.15731,231.347165 0.10487,231.3996 H 1030.7172 V 435.40039 c 0,-68.48128 0.1574,-124.53525 0.4195,-124.53525 0.2098,0.0524 44.5705,56.05397 98.5795,124.53525 l 98.2124,124.53525 h 419.4348 V 436.18693 h -257.4603 v -59.77692 h 227.5718 V 252.6613 H 1389.9031 V 192.88438 H 1639.498 V 96.926696 h 83.8974 V 550.60205 l 69.3727,-0.26218 c 71.1555,-0.26218 74.7736,-0.31462 90.5568,-2.46449 28.8922,-3.82782 53.3797,-11.37859 77.4478,-23.85833 20.2403,-10.48718 35.0796,-21.44628 51.8067,-38.22577 17.2514,-17.30384 29.2592,-33.87359 40.6902,-56.1064 14.9967,-29.15436 23.0718,-57.41731 27.3191,-95.74795 1.0487,-9.38602 0.839,-41.21461 -0.3146,-51.38717 -3.9851,-35.70885 -12.4797,-65.02051 -27.0045,-93.07371 -20.3975,-39.43179 -49.1849,-69.89705 -85.6278,-90.661662 -1.4158,-0.786539 -2.5169,-1.520641 -2.5169,-1.625513 0,-0.157308 90.1373,-0.262179 200.3051,-0.262179 h 200.3051 l -0.1573,161.869604 c -0.1573,175.03101 0,164.33409 -2.7791,178.17716 -8.0227,40.48051 -32.8773,71.78474 -68.9532,87.04359 -12.0603,5.08628 -23.3864,8.07513 -37.9636,10.01525 -9.7531,1.3109 -28.8397,1.3109 -36.9673,0.0524 -31.9335,-4.98141 -59.1477,-19.82077 -79.9647,-43.62666 -2.045,-2.30718 -4.4047,-5.19116 -5.2436,-6.39718 -0.8914,-1.25846 -1.7304,-2.20231 -1.8877,-2.09744 -0.4719,0.15731 -14.9967,13.47603 -16.8319,15.41615 l -1.4682,1.52064 3.7753,4.6668 c 2.045,2.62179 6.607,7.55077 10.0677,11.01154 24.9595,24.90705 56.3686,40.06102 91.9202,44.4132 7.7605,0.94385 29.4165,0.78654 37.9111,-0.26218 25.6936,-3.25103 47.8215,-10.85423 66.9606,-22.96692 8.7044,-5.50577 14.2102,-9.91039 22.5999,-17.98551 25.9033,-25.01192 40.5854,-59.04282 43.1023,-99.99525 0.3146,-5.4009 0.5244,-66.9082 0.5244,-164.75358 V 96.926696 h 179.8551 V 69.135672 H 163.42757 Z m 338.00177,24.802178 c 0,0.471923 -79.54525,158.828315 -80.17448,159.509985 -0.26218,0.31462 -46.87769,-88.40692 -78.07705,-148.60332 l -5.92525,-11.431024 h 82.06217 c 52.22615,0 82.11461,0.209743 82.11461,0.524359 z M 1214.2429,209.24438 c 0,95.11871 -0.1049,112.21281 -0.7341,111.58358 -1.2585,-1.36333 -168.6339,-223.272034 -168.6339,-223.586649 0,-0.157308 38.1209,-0.314615 84.684,-0.314615 h 84.684 z M 1890.9805,97.713234 c 18.6672,3.198586 38.016,9.753076 56.1064,19.086666 25.0119,12.95167 46.0387,30.93718 63.8669,54.58576 19.9257,26.48013 34.1358,60.14397 40.1659,95.17115 2.884,16.98923 3.3559,23.01936 3.3559,42.99743 0,14.26257 -0.2097,20.08295 -0.8914,26.21795 -3.5132,29.46897 -10.3823,53.95653 -21.9182,77.76243 -26.3752,54.58577 -71.575,91.65794 -128.6777,105.50102 -15.7307,3.77538 -28.2105,5.50577 -45.357,6.29231 -6.5021,0.26217 -33.8212,0.52435 -60.6683,0.52435 h -48.9227 V 96.926696 h 69.1629 c 59.2526,0 69.7922,0.104871 73.7773,0.786538 z"
     id="path1"
     style="stroke-width:0.524359" />
  <path
     d="m 663.71843,293.66617 c -0.26218,0.68166 -25.53628,60.09153 -56.15884,132.03358 -30.675,71.94204 -56.05397,131.61409 -56.47346,132.5055 l -0.68167,1.73039 h 91.50064 l 3.88025,-10.12013 c 2.14988,-5.50577 5.24359,-13.68577 6.97398,-18.09039 l 3.09372,-7.97025 h 100.99153 l 6.76423,17.93307 6.76423,17.98552 47.34961,0.1573 c 26.0082,0.0524 47.29718,-0.0524 47.29718,-0.26218 0,-0.26218 -24.54,-60.40615 -54.63821,-133.76396 l -54.6382,-133.29204 h -91.55307 z m 58.09897,126.9473 c 6.97397,19.82076 12.79436,36.39051 12.95167,36.80999 0.26217,0.68167 -3.04129,0.78654 -27.84346,0.78654 -26.585,0 -28.15808,-0.0524 -27.79103,-0.94384 0.15731,-0.47193 6.44962,-17.77577 13.89551,-38.38308 7.4459,-20.60731 13.73821,-37.96359 13.94795,-38.48794 0.31462,-0.83898 0.5768,-0.5768 1.25846,1.57307 0.52436,1.41577 6.60693,18.77205 13.5809,38.64526 z m 1515.9741,367.4183 V 930.6574 h 26.218 V 823.74062 c 0,-70.8409 -0.2098,-108.69961 -0.5244,-112.26525 -0.3146,-2.93641 -0.4719,-5.45333 -0.367,-5.55821 0.1048,-0.10487 3.251,3.72295 6.9215,8.54705 10.6969,13.94795 16.3076,20.81705 31.2518,38.17333 20.45,23.8059 30.9372,35.55154 86.3095,96.58692 35.3418,38.90743 74.2492,83.00602 81.2756,92.07743 0.5768,0.78654 1.2585,1.41577 1.4158,1.41577 0.1573,0 0.3146,-64.18153 0.3146,-142.62563 V 657.4664 h -26.218 l 0.2098,109.17153 c 0.1049,60.09153 0.367,110.37755 0.5243,111.84576 l 0.3671,2.62179 -1.6255,-1.83525 c -0.8914,-0.99628 -2.6742,-3.51321 -4.0376,-5.50577 -8.8092,-13.16141 -38.1733,-46.35333 -126.2656,-142.5732 -39.694,-43.41692 -54.376,-59.98666 -69.6873,-78.86358 -3.0937,-3.77538 -5.7155,-6.92154 -5.8728,-6.92154 -0.1049,0 -0.2098,64.18154 -0.2098,142.62563 z M 620.93074,654.89704 c -7.6032,0.36705 -9.59577,0.57679 -17.04167,1.88769 -26.48012,4.61436 -51.91153,17.77577 -71.78473,37.12461 -22.75718,22.12795 -36.81,49.39462 -41.52923,80.4891 -0.89141,6.03013 -1.15359,10.06769 -1.20603,19.40128 -0.0524,11.95538 0.41949,16.93679 2.35962,27.26667 6.03013,31.88102 24.22538,61.76948 50.02384,82.37678 9.43846,7.55077 24.48756,16.2027 36.2332,20.81705 30.675,12.21757 66.96064,12.53218 98.57948,0.89141 7.76052,-2.83153 21.1841,-9.6482 28.26295,-14.26256 33.40166,-21.97064 55.79179,-56.6832 61.97923,-96.11499 1.36333,-8.59949 1.36333,-32.30051 0,-40.84756 -1.20603,-7.55077 -3.88026,-18.14282 -6.34475,-25.22167 -2.35961,-6.76423 -9.6482,-21.65602 -13.68576,-28.0532 -7.60321,-11.95538 -18.9818,-25.06436 -29.62628,-33.92602 -19.13911,-15.99295 -44.78026,-27.3191 -70.00192,-30.88475 -6.23987,-0.89141 -17.93308,-1.31089 -26.21795,-0.94384 z m 22.96692,25.95577 c 40.06102,5.76794 73.82974,32.1432 89.71782,70.10679 9.33358,22.23281 11.16884,48.34589 5.03384,71.99448 -7.39346,28.63 -26.0082,53.69435 -51.38717,69.21538 -14.05282,8.54705 -30.41282,14.15769 -46.24846,15.88807 -6.39718,0.73411 -19.1391,0.73411 -25.32654,0.0524 -24.48756,-2.72667 -48.39833,-14.21013 -66.06923,-31.72372 -9.54333,-9.43846 -15.94051,-18.35256 -22.33769,-30.93717 -13.58089,-27.00449 -15.83564,-58.30872 -6.18743,-87.51551 13.26628,-40.27077 48.13615,-70.15923 89.82268,-76.87102 7.86539,-1.25846 24.85462,-1.36333 32.98218,-0.20974 z M 2033.0294,654.89704 c -7.6032,0.36705 -9.5958,0.57679 -17.0417,1.88769 -42.3682,7.4459 -79.3355,35.07961 -99.5233,74.45897 -6.6594,13.0041 -10.5396,24.33025 -12.9517,37.91115 -11.431,63.60474 20.8695,125.32179 79.7026,152.16896 23.5961,10.8018 49.3421,14.57718 75.6125,11.16885 28.9446,-3.77538 57.1551,-17.40872 78.1819,-37.75384 17.0941,-16.51731 29.0495,-35.39423 36.3381,-57.52218 5.0863,-15.36372 7.1313,-29.83602 6.6069,-47.035 -0.5768,-19.45371 -4.0375,-34.71256 -11.6407,-51.64935 -7.4984,-16.56974 -16.9893,-30.25551 -30.0982,-43.36448 -21.9182,-21.81334 -48.8179,-35.02718 -80.5416,-39.53667 -4.7716,-0.68167 -17.1989,-1.04872 -24.6448,-0.7341 z m 22.7571,25.95577 c 36.1808,5.24359 66.8558,26.68987 84.5267,59.04281 21.5511,39.48423 17.8806,87.72525 -9.4909,123.90602 -18.5099,24.38269 -47.5069,40.9 -77.8673,44.30833 -6.0826,0.68167 -19.0867,0.68167 -25.1692,0 -29.3641,-3.30346 -57.732,-19.1391 -75.8223,-42.47307 -12.0079,-15.41616 -19.5062,-31.9859 -23.0718,-51.125 -1.4158,-7.49833 -1.9402,-24.43513 -0.9963,-32.82487 3.9327,-35.60397 23.7535,-66.75089 54.5333,-85.68025 12.5322,-7.70808 25.746,-12.58462 40.6378,-14.94423 7.7081,-1.25846 24.9595,-1.36333 32.72,-0.20974 z m -584.0834,-25.64116 c -11.2213,1.15359 -24.0681,4.03757 -34.4504,7.81295 -51.4396,18.56231 -86.4143,64.33884 -91.4482,119.76358 -0.7865,8.70436 -0.367,26.32282 0.839,34.08333 2.5169,16.51731 6.8691,30.25551 14.1577,44.57051 16.0978,31.56641 42.7877,54.32359 76.8186,65.44 24.0681,7.91782 57.0502,8.86167 83.2682,2.41205 11.2737,-2.7791 29.1543,-9.80551 37.7014,-14.78692 l 3.8278,-2.25475 -5.8204,-11.64076 c -3.1986,-6.39718 -5.8728,-11.69321 -5.9777,-11.79808 -0.052,-0.10487 -1.0487,0.47192 -2.1498,1.20603 -4.929,3.40833 -16.4649,8.28487 -27.1618,11.53589 -18.6148,5.61064 -40.1659,6.76423 -59.6721,3.14616 -23.9107,-4.40462 -46.8252,-17.61846 -62.7133,-36.18077 -14.0528,-16.41244 -22.7572,-35.70884 -26.1655,-57.94166 -1.2585,-8.28487 -1.2585,-24.80218 0.052,-32.98218 3.6705,-23.75346 14.6296,-45.88141 31.3567,-63.23769 17.7233,-18.405 38.1209,-29.20679 64.0766,-33.92602 8.4947,-1.57308 26.7424,-1.67795 35.9711,-0.20974 14.7869,2.30717 25.4838,5.50576 35.4991,10.53961 3.618,1.88769 6.7118,3.3559 6.7642,3.25103 0.052,-0.0524 2.2547,-3.98513 4.929,-8.7568 2.6742,-4.77167 5.296,-9.28115 5.8728,-10.06769 l 0.9963,-1.46821 -3.723,-2.41205 c -11.2737,-7.28859 -31.9859,-13.63333 -51.3871,-15.67833 -6.3972,-0.68167 -26.3229,-0.94384 -31.4616,-0.41949 z m 1137.9113,1.25847 c -15.521,1.10115 -30.8323,6.18743 -43.4169,14.36743 -5.296,3.46077 -15.1539,13.05654 -18.3525,17.8282 -7.7081,11.5359 -11.3262,23.49128 -11.3786,37.49167 0,12.84679 2.7266,21.76089 9.4384,30.46525 3.0413,3.98513 10.3823,10.74936 16.2552,14.94423 9.0189,6.44962 27.3715,14.94423 48.1885,22.23282 34.6077,12.16513 55.8967,25.90333 62.9231,40.63782 3.4084,7.13128 4.1949,11.06397 4.1425,20.45 -0.053,6.92154 -0.2098,8.44218 -1.4682,12.47974 -1.8353,6.08256 -3.7754,9.85795 -7.5508,14.57718 -8.7568,11.06397 -21.8133,19.08666 -37.3868,22.96692 -6.5545,1.62551 -17.8807,3.19859 -23.2815,3.19859 -12.6895,0 -29.2068,-3.30346 -44.6754,-8.96654 -5.8728,-2.14987 -18.405,-8.12756 -24.6449,-11.6932 l -3.1986,-1.88769 -1.2584,2.2023 c -0.7342,1.25846 -3.4084,6.34475 -5.9253,11.32616 -4.0376,7.81294 -4.5619,9.12384 -3.8803,9.75307 2.6218,2.51692 18.9818,10.85423 28.263,14.36744 14.3674,5.45333 27.3715,8.44218 42.7352,9.91038 15.3113,1.41577 34.8699,-0.10487 48.3459,-3.77538 32.9298,-8.86167 53.4322,-29.62628 58.6758,-59.25256 0.6292,-3.67052 0.8914,-8.0227 0.8914,-14.41987 0.052,-14.21013 -1.7304,-22.28526 -7.2361,-32.98218 -3.6181,-6.97398 -7.0265,-11.58833 -13.0566,-17.61846 -13.0041,-13.0041 -25.6411,-19.45372 -70.8409,-36.44295 -27.3191,-10.225 -41.1097,-19.45371 -46.6155,-31.19935 -2.4645,-5.19116 -3.1461,-9.12385 -2.7791,-15.88808 0.5244,-10.27744 3.723,-17.14654 11.6408,-25.01192 8.9665,-8.96654 18.8245,-13.52846 33.926,-15.78321 7.7605,-1.15359 25.6412,-0.7341 34.2406,0.73411 9.1763,1.62551 20.7647,4.61436 30.675,7.97025 5.0339,1.67795 9.2288,2.98885 9.3336,2.93641 0.053,-0.10487 2.2548,-4.71923 4.8241,-10.32987 l 4.6668,-10.17256 -2.5169,-1.10116 c -8.1276,-3.72294 -31.5664,-10.12012 -45.6717,-12.47974 -7.5507,-1.3109 -20.3451,-2.46449 -25.4314,-2.30718 -1.4157,0 -5.296,0.26218 -8.5995,0.47193 z M 68.518597,794.00946 V 930.6574 h 26.21795 V 821.17126 l 28.210513,-0.20975 c 26.16551,-0.20974 28.57756,-0.31461 33.92602,-1.36333 23.49128,-4.56192 41.6341,-15.94051 52.90782,-33.03461 6.08256,-9.28116 9.12384,-16.67462 11.79807,-28.94462 2.56936,-11.48346 2.77911,-26.7423 0.5768,-37.96358 -2.7791,-14.10526 -9.38603,-26.48013 -19.66346,-36.81 -11.69321,-11.6932 -24.59244,-18.45743 -42.73525,-22.44256 -11.32616,-2.46449 -12.63706,-2.51693 -52.80295,-2.7791 L 68.518597,657.36153 Z M 147.01513,682.95024 c 14.94423,2.20231 28.15808,8.7568 36.54782,18.09039 12.47974,13.89551 16.93679,33.08704 12.11269,52.17371 -5.61064,22.07551 -20.71218,36.60025 -43.52179,41.73897 -4.29974,0.99628 -6.92154,1.10115 -31.04205,1.3109 l -26.375253,0.26218 V 682.11127 h 23.386413 c 18.45743,0 24.59243,0.15731 28.89217,0.83897 z m 131.7714,111.11166 v 136.5955 h 26.21795 V 821.06639 l 27.52884,-0.10488 c 15.15398,-0.0524 28.05321,-0.10487 28.68244,-0.10487 1.20602,-0.0524 2.20231,1.46821 22.44256,34.55526 15.94051,26.06064 44.67538,72.36153 45.88141,73.93461 l 1.04872,1.36333 15.57346,-0.15731 15.62589,-0.15731 -10.80179,-17.30384 c -14.68205,-23.49128 -35.70884,-57.88923 -49.65679,-81.01346 -8.70436,-14.4723 -11.32616,-19.24397 -10.8018,-19.55858 0.41949,-0.20975 2.83154,-1.57308 5.4009,-3.04129 12.84679,-7.28859 22.70474,-17.61846 28.57756,-30.0982 6.97398,-14.57718 9.91039,-29.10192 9.33359,-45.61923 -0.36705,-9.85795 -1.3109,-15.7832 -3.82782,-23.33397 -8.28487,-24.90705 -30.04577,-43.36448 -58.67576,-49.76166 -12.68949,-2.83154 -19.03423,-3.19859 -58.83308,-3.19859 h -33.71628 z m 78.49654,-111.11166 c 7.81294,1.15359 13.7382,2.93641 20.34512,6.18744 11.37859,5.61064 19.29641,13.42359 24.69731,24.43512 3.93269,7.97026 5.5582,15.10154 5.50577,24.38269 -0.0524,28.73487 -17.82821,50.65308 -46.03872,56.94538 -4.8241,1.10116 -6.81666,1.15359 -30.93717,1.36334 l -25.8509,0.26218 V 682.11127 h 23.38641 c 18.45743,0 24.59243,0.15731 28.89218,0.83897 z M 826.21726,794.0619 v 136.5955 h 40.53295 c 22.23282,0 43.6791,-0.26218 47.55936,-0.52436 34.76499,-2.56935 65.49243,-16.15025 88.40693,-39.0123 14.2625,-14.315 25.9557,-33.82115 31.881,-53.43218 6.4496,-21.28897 7.5508,-48.18858 2.884,-71.1555 -5.5582,-27.1618 -16.0978,-48.13615 -33.1395,-65.91192 -6.8167,-7.13128 -12.7419,-12.06026 -21.1841,-17.61846 -19.66347,-13.05654 -40.21834,-20.55487 -65.33513,-23.70103 -11.01154,-1.36333 -24.48756,-1.78282 -58.93794,-1.83525 h -32.66757 z m 82.32436,-110.90191 c 28.99705,2.14987 54.11384,12.79435 72.99078,30.88474 22.7047,21.76089 33.926,50.86281 32.7724,84.99858 -0.6817,18.45744 -4.1424,33.19192 -11.2737,47.71666 -14.9967,30.41282 -42.63038,50.23359 -79.80743,57.20756 -5.66308,1.10116 -7.91782,1.15359 -38.1209,1.36334 l -32.1432,0.20974 V 682.63563 h 24.27782 c 13.31872,0 27.42397,0.26218 31.30423,0.52436 z m 187.56318,-25.32654 c -0.5768,0.57679 -0.4195,179.38319 0.1573,188.13999 2.2548,33.24435 17.9331,59.25256 44.8851,74.5114 13.7907,7.81295 26.9521,11.58833 44.2559,12.79436 36.443,2.51692 70.5787,-12.68949 88.7216,-39.5891 8.9665,-13.31872 14.1577,-28.57756 15.6259,-46.14359 0.3146,-3.93269 0.5243,-40.95243 0.5243,-98.21243 V 657.4664 h -26.2179 l -0.1573,95.27602 -0.1573,95.32845 -1.1012,4.87654 c -5.2436,22.59987 -17.3563,38.69769 -36.2856,48.08371 -10.3299,5.13872 -18.1429,7.02641 -30.9896,7.4459 -7.813,0.20974 -10.1202,0.10487 -15.6259,-0.83897 -26.585,-4.50949 -47.2448,-22.44257 -54.3761,-46.98256 -3.3034,-11.43103 -3.0937,-3.9327 -3.251,-108.17525 l -0.1573,-95.01384 h -12.7944 c -6.9739,0 -12.8992,0.15731 -13.0565,0.36705 z m 493.7888,0.31461 c -0.1049,0.36706 -0.1573,5.9777 -0.1049,12.42731 l 0.1574,11.79808 36.0759,0.1573 36.0234,0.10488 V 930.6574 h 26.218 V 682.63563 h 72.3615 V 657.4664 h -85.2083 c -68.5338,0 -85.3132,0.10487 -85.523,0.68166 z m 227.3621,135.91384 v 136.5955 h 26.2179 v -273.191 h -26.2179 z"
     id="path2"
     style="stroke-width:0.524359" />
</svg>
