<?xml version="1.0" encoding="UTF-8" standalone="no"?>
<!-- Created with Inkscape (http://www.inkscape.org/) -->

<svg
   width="375mm"
   height="150mm"
   viewBox="0 0 375 150"
   version="1.1"
   id="svg1"
   inkscape:version="1.3 (0e150ed, 2023-07-21)"
   sodipodi:docname="rct-logo.svg"
   inkscape:export-filename="rct-logo.png"
   inkscape:export-xdpi="96"
   inkscape:export-ydpi="96"
   xmlns:inkscape="http://www.inkscape.org/namespaces/inkscape"
   xmlns:sodipodi="http://sodipodi.sourceforge.net/DTD/sodipodi-0.dtd"
   xmlns="http://www.w3.org/2000/svg"
   xmlns:svg="http://www.w3.org/2000/svg">
  <sodipodi:namedview
     id="namedview1"
     pagecolor="#505050"
     bordercolor="#ffffff"
     borderopacity="1"
     inkscape:showpageshadow="0"
     inkscape:pageopacity="0"
     inkscape:pagecheckerboard="1"
     inkscape:deskcolor="#505050"
     inkscape:document-units="mm"
     inkscape:zoom="0.46368897"
     inkscape:cx="740.79829"
     inkscape:cy="335.3541"
     inkscape:window-width="1392"
     inkscape:window-height="1212"
     inkscape:window-x="2240"
     inkscape:window-y="25"
     inkscape:window-maximized="0"
     inkscape:current-layer="layer1" />
  <defs
     id="defs1">
    <clipPath
       clipPathUnits="userSpaceOnUse"
       id="clipPath2">
      <path
         d="M 0,723 H 1740 V 0 H 0 Z"
         transform="translate(-98.210702,-357.07361)"
         id="path2" />
    </clipPath>
    <clipPath
       clipPathUnits="userSpaceOnUse"
       id="clipPath4">
      <path
         d="M 0,723 H 1740 V 0 H 0 Z"
         transform="translate(-391.45201,-271.9969)"
         id="path4" />
    </clipPath>
    <clipPath
       clipPathUnits="userSpaceOnUse"
       id="clipPath6">
      <path
         d="M 0,723 H 1740 V 0 H 0 Z"
         transform="translate(-473.13301,-351.15321)"
         id="path6" />
    </clipPath>
    <clipPath
       clipPathUnits="userSpaceOnUse"
       id="clipPath8">
      <path
         d="M 0,723 H 1740 V 0 H 0 Z"
         transform="translate(-594.64691,-270.27711)"
         id="path8" />
    </clipPath>
    <clipPath
       clipPathUnits="userSpaceOnUse"
       id="clipPath10">
      <path
         d="M 0,723 H 1740 V 0 H 0 Z"
         transform="translate(-677.50972,-240.93531)"
         id="path10" />
    </clipPath>
    <clipPath
       clipPathUnits="userSpaceOnUse"
       id="clipPath12">
      <path
         d="M 0,723 H 1740 V 0 H 0 Z"
         transform="translate(-741.26022,-236.98321)"
         id="path12" />
    </clipPath>
    <clipPath
       clipPathUnits="userSpaceOnUse"
       id="clipPath14">
      <path
         d="M 0,723 H 1740 V 0 H 0 Z"
         transform="translate(-777.29634,-240.7966)"
         id="path14" />
    </clipPath>
    <clipPath
       clipPathUnits="userSpaceOnUse"
       id="clipPath16">
      <path
         d="M 0,723 H 1740 V 0 H 0 Z"
         transform="translate(-841.93015,-240.37771)"
         id="path16" />
    </clipPath>
    <clipPath
       clipPathUnits="userSpaceOnUse"
       id="clipPath18">
      <path
         d="M 0,723 H 1740 V 0 H 0 Z"
         transform="translate(-904.70365,-270.27711)"
         id="path18" />
    </clipPath>
    <clipPath
       clipPathUnits="userSpaceOnUse"
       id="clipPath20">
      <path
         d="M 0,723 H 1740 V 0 H 0 Z"
         transform="translate(-1000.2612,-266.8357)"
         id="path20" />
    </clipPath>
    <clipPath
       clipPathUnits="userSpaceOnUse"
       id="clipPath22">
      <path
         d="M 0,723 H 1740 V 0 H 0 Z"
         transform="translate(-175.5078,-107.1283)"
         id="path22" />
    </clipPath>
    <clipPath
       clipPathUnits="userSpaceOnUse"
       id="clipPath24">
      <path
         d="M 0,723 H 1740 V 0 H 0 Z"
         transform="translate(-281.83141,-140.0481)"
         id="path24" />
    </clipPath>
    <clipPath
       clipPathUnits="userSpaceOnUse"
       id="clipPath26">
      <path
         d="M 0,723 H 1740 V 0 H 0 Z"
         transform="translate(-414.20841,-189.5679)"
         id="path26" />
    </clipPath>
    <clipPath
       clipPathUnits="userSpaceOnUse"
       id="clipPath28">
      <path
         d="M 0,723 H 1740 V 0 H 0 Z"
         transform="translate(-545.60521,-189.5679)"
         id="path28" />
    </clipPath>
    <clipPath
       clipPathUnits="userSpaceOnUse"
       id="clipPath30">
      <path
         d="M 0,723 H 1740 V 0 H 0 Z"
         transform="translate(-615.36581,-95.571902)"
         id="path30" />
    </clipPath>
    <clipPath
       clipPathUnits="userSpaceOnUse"
       id="clipPath32">
      <path
         d="M 0,723 H 1740 V 0 H 0 Z"
         transform="translate(-761.61159,-189.5679)"
         id="path32" />
    </clipPath>
    <clipPath
       clipPathUnits="userSpaceOnUse"
       id="clipPath34">
      <path
         d="M 0,723 H 1740 V 0 H 0 Z"
         id="path34" />
    </clipPath>
    <clipPath
       clipPathUnits="userSpaceOnUse"
       id="clipPath36">
      <path
         d="M 0,723 H 1740 V 0 H 0 Z"
         transform="translate(-900.22345,-183.47421)"
         id="path36" />
    </clipPath>
    <clipPath
       clipPathUnits="userSpaceOnUse"
       id="clipPath38">
      <path
         d="M 0,723 H 1740 V 0 H 0 Z"
         transform="translate(-951.70292,-131.2929)"
         id="path38" />
    </clipPath>
    <clipPath
       clipPathUnits="userSpaceOnUse"
       id="clipPath40">
      <path
         d="M 0,723 H 1740 V 0 H 0 Z"
         transform="translate(-1105.8646,-183.47421)"
         id="path40" />
    </clipPath>
    <clipPath
       clipPathUnits="userSpaceOnUse"
       id="clipPath42">
      <path
         d="M 0,723 H 1740 V 0 H 0 Z"
         transform="translate(-1203.2212,-189.5679)"
         id="path42" />
    </clipPath>
    <clipPath
       clipPathUnits="userSpaceOnUse"
       id="clipPath44">
      <path
         d="M 0,723 H 1740 V 0 H 0 Z"
         transform="translate(-1296.2361,-96.411602)"
         id="path44" />
    </clipPath>
    <clipPath
       clipPathUnits="userSpaceOnUse"
       id="clipPath46">
      <path
         d="M 0,723 H 1740 V 0 H 0 Z"
         transform="translate(-1375.5907,-126.4596)"
         id="path46" />
    </clipPath>
    <clipPath
       clipPathUnits="userSpaceOnUse"
       id="clipPath48">
      <path
         d="M 0,723 H 1740 V 0 H 0 Z"
         transform="translate(-1472.8096,-183.47421)"
         id="path48" />
    </clipPath>
    <clipPath
       clipPathUnits="userSpaceOnUse"
       id="clipPath50">
      <path
         d="M 0,723 H 1740 V 0 H 0 Z"
         transform="translate(-1518.0555,-140.6085)"
         id="path50" />
    </clipPath>
    <clipPath
       clipPathUnits="userSpaceOnUse"
       id="clipPath52">
      <path
         d="M 0,723 H 1740 V 0 H 0 Z"
         transform="translate(-1642.4487,-96.411602)"
         id="path52" />
    </clipPath>
    <clipPath
       clipPathUnits="userSpaceOnUse"
       id="clipPath54">
      <path
         d="M 0,723 H 1740 V 0 H 0 Z"
         transform="translate(-633.25682,-566.54191)"
         id="path54" />
    </clipPath>
    <clipPath
       clipPathUnits="userSpaceOnUse"
       id="clipPath56">
      <path
         d="M 0,723 H 1740 V 0 H 0 Z"
         transform="translate(-526.84891,-537.73081)"
         id="path56" />
    </clipPath>
    <clipPath
       clipPathUnits="userSpaceOnUse"
       id="clipPath58">
      <path
         d="M 0,723 H 1740 V 0 H 0 Z"
         transform="translate(-489.58281,-600.67832)"
         id="path58" />
    </clipPath>
    <clipPath
       clipPathUnits="userSpaceOnUse"
       id="clipPath60">
      <path
         d="M 0,723 H 1740 V 0 H 0 Z"
         transform="translate(-369.26331,-535.51561)"
         id="path60" />
    </clipPath>
    <clipPath
       clipPathUnits="userSpaceOnUse"
       id="clipPath62">
      <path
         d="M 0,723 H 1740 V 0 H 0 Z"
         transform="translate(-305.47851,-465.15551)"
         id="path62" />
    </clipPath>
    <clipPath
       clipPathUnits="userSpaceOnUse"
       id="clipPath64">
      <path
         d="M 0,723 H 1740 V 0 H 0 Z"
         transform="translate(-299.75941,-425.61581)"
         id="path64" />
    </clipPath>
    <clipPath
       clipPathUnits="userSpaceOnUse"
       id="clipPath66">
      <path
         d="M 0,723 H 1740 V 0 H 0 Z"
         transform="translate(-254.72151,-441.95171)"
         id="path66" />
    </clipPath>
    <clipPath
       clipPathUnits="userSpaceOnUse"
       id="clipPath68">
      <path
         d="M 0,723 H 1740 V 0 H 0 Z"
         transform="translate(-210.25861,-401.68251)"
         id="path68" />
    </clipPath>
    <clipPath
       clipPathUnits="userSpaceOnUse"
       id="clipPath70">
      <path
         d="M 0,723 H 1740 V 0 H 0 Z"
         transform="translate(-368.79271,-491.77191)"
         id="path70" />
    </clipPath>
    <clipPath
       clipPathUnits="userSpaceOnUse"
       id="clipPath72">
      <path
         d="M 0,723 H 1740 V 0 H 0 Z"
         transform="translate(-438.98501,-495.54481)"
         id="path72" />
    </clipPath>
    <clipPath
       clipPathUnits="userSpaceOnUse"
       id="clipPath74">
      <path
         d="M 0,723 H 1740 V 0 H 0 Z"
         transform="translate(-326.70491,-506.98361)"
         id="path74" />
    </clipPath>
    <clipPath
       clipPathUnits="userSpaceOnUse"
       id="clipPath76">
      <path
         d="M 0,723 H 1740 V 0 H 0 Z"
         transform="translate(-444.55561,-561.31721)"
         id="path76" />
    </clipPath>
  </defs>
  <g
     inkscape:label="Layer 1"
     inkscape:groupmode="layer"
     id="layer1">
    <path
       id="path1"
       d="m 0,0 c 10.898,1.573 35.991,6.662 64.938,12.953 3.065,-8.493 4.768,-18.873 5.109,-32.085 10.897,19.817 28.947,32.085 47.678,32.085 15.665,0 29.244,-10.38 29.244,-23.907 0,-10.38 -9.833,-18.244 -20.049,-18.244 -7.152,0 -10.557,2.202 -17.369,10.696 -4.086,4.718 -7.152,6.605 -11.579,6.605 -6.47,0 -12.26,-4.089 -17.368,-11.953 -6.471,-10.066 -8.514,-18.874 -8.514,-39.006 v -16.671 c 0.681,-21.075 4.768,-22.794 21.455,-23.109 h 9.746 v -13.211 H -0.659 v 13.211 h 2.043 c 16.687,0.315 26.093,1.719 26.774,23.109 v 41.207 c -0.681,21.075 -4.427,25.794 -21.115,26.109 l -7.043,-1 z"
       style="fill:#652f90 icc-color(sRGB-IEC61966-2, 0.1, 0.39599609, 0.18399048, 0.56498718);fill-opacity:1;fill-rule:nonzero;stroke:none"
       transform="matrix(0.21897914,0,0,-0.21897914,19.741987,80.259776)"
       clip-path="url(#clipPath2)" />
    <path
       id="path3"
       d="m 0,0 c -9.195,-23.591 -30.013,-35.804 -62.366,-35.804 -44.953,0 -82.966,24.367 -82.966,63.058 0,40.578 42.1,70.776 90.459,70.776 30.99,0 52.786,-11.953 52.786,-28.625 0,-9.751 -7.492,-16.987 -17.369,-16.987 -11.238,0 -16.687,5.663 -20.433,20.761 -2.043,8.179 -6.471,11.325 -17.028,11.325 -23.158,0 -43.077,-16.672 -43.077,-49.386 0,-39.32 20.941,-55.564 48.867,-55.564 19.071,0 30.693,9.807 37.164,26.164 z"
       style="fill:#652f90 icc-color(sRGB-IEC61966-2, 0.1, 0.39599609, 0.18399048, 0.56498718);fill-opacity:1;fill-rule:nonzero;stroke:none"
       transform="matrix(0.21897914,0,0,-0.21897914,83.955717,98.889796)"
       clip-path="url(#clipPath4)" />
    <path
       id="path5"
       d="m 0,0 v -69.203 c 0,-16.357 0.341,-19.817 3.406,-24.535 2.384,-4.405 6.47,-3.292 11.579,-3.292 7.832,0 14.281,8.775 19.73,17.897 l 12.601,-4.403 c -7.493,-16.357 -26.202,-31.424 -48.679,-31.424 -27.925,0 -42.569,12.413 -42.569,41.983 V 0 h -24.093 v 13.841 c 1.703,-0.315 3.065,-0.315 3.065,-0.315 23.839,0 47.251,17.301 51.337,41.522 H 0 V 13.841 H 47.207 V 0 Z"
       style="fill:#652f90 icc-color(sRGB-IEC61966-2, 0.1, 0.39599609, 0.18399048, 0.56498718);fill-opacity:1;fill-rule:nonzero;stroke:none"
       transform="matrix(0.21897914,0,0,-0.21897914,101.84215,81.556216)"
       clip-path="url(#clipPath6)" />
    <path
       id="path7"
       d="m 0,0 c 2.914,0 5.525,0.349 7.835,1.046 2.31,0.698 4.262,1.697 5.859,3 1.597,1.302 2.814,2.866 3.651,4.696 0.837,1.829 1.255,3.89 1.255,6.185 0,4.68 -1.527,8.152 -4.58,10.416 -3.054,2.262 -7.51,3.393 -13.369,3.393 H -11.393 V 0 Z M 29.202,-33.294 H 25.11 c -0.527,0 -0.969,0.085 -1.325,0.256 -0.357,0.17 -0.69,0.488 -1,0.953 L 1.674,-5.394 c -0.248,0.341 -0.504,0.635 -0.767,0.883 -0.264,0.248 -0.558,0.443 -0.884,0.582 -0.325,0.139 -0.713,0.24 -1.162,0.302 -0.45,0.062 -1,0.093 -1.651,0.093 h -8.603 v -29.76 h -4.789 V 32.504 H 0.651 c 7.564,0 13.229,-1.465 16.996,-4.395 3.767,-2.929 5.649,-7.23 5.649,-12.904 0,-2.511 -0.434,-4.805 -1.301,-6.882 C 21.126,6.246 19.879,4.425 18.251,2.859 16.624,1.294 14.655,0.016 12.346,-0.977 10.036,-1.969 7.44,-2.635 4.557,-2.976 c 0.744,-0.465 1.41,-1.086 2,-1.86 z"
       style="fill:#737474 icc-color(sRGB-IEC61966-2, 0.1, 0.45098877, 0.45498657, 0.45498657);fill-opacity:1;fill-rule:nonzero;stroke:none"
       transform="matrix(0.21897914,0,0,-0.21897914,128.45116,99.266396)"
       clip-path="url(#clipPath8)" />
    <path
       id="path9"
       d="M 0,0 -0.093,-3.952 H -39.525 V 61.846 H -0.093 V 57.893 H -34.736 V 31.295 h 28.83 v -3.859 h -28.83 V 0 Z"
       style="fill:#737474 icc-color(sRGB-IEC61966-2, 0.1, 0.45098877, 0.45498657, 0.45498657);fill-opacity:1;fill-rule:nonzero;stroke:none"
       transform="matrix(0.21897914,0,0,-0.21897914,146.59639,105.69164)"
       clip-path="url(#clipPath10)" />
    <path
       id="path11"
       d="m 0,0 h -4.696 c -0.435,0 -0.776,0.132 -1.023,0.396 -0.249,0.262 -0.45,0.518 -0.605,0.766 l -20.739,30.365 c -0.124,-0.465 -0.341,-0.93 -0.651,-1.395 L -48.081,1.162 C -48.298,0.884 -48.522,0.62 -48.755,0.372 -48.988,0.123 -49.29,0 -49.662,0 h -4.464 l 23.808,33.759 -22.738,32.039 h 4.696 c 0.434,0 0.752,-0.094 0.953,-0.279 0.201,-0.186 0.38,-0.404 0.535,-0.651 l 19.995,-28.784 c 0.186,0.465 0.419,0.93 0.698,1.395 l 19.297,27.342 c 0.155,0.28 0.349,0.512 0.581,0.698 0.233,0.185 0.504,0.279 0.814,0.279 h 4.557 l -22.738,-31.76 z"
       style="fill:#737474 icc-color(sRGB-IEC61966-2, 0.1, 0.45098877, 0.45498657, 0.45498657);fill-opacity:1;fill-rule:nonzero;stroke:none"
       transform="matrix(0.21897914,0,0,-0.21897914,160.55642,106.55707)"
       clip-path="url(#clipPath12)" />
    <path
       id="path13"
       d="m 0,0 c 5.766,0 10.129,1.247 13.09,3.743 2.96,2.494 4.44,6.006 4.44,10.532 0,2.077 -0.395,3.945 -1.185,5.603 -0.791,1.658 -1.93,3.069 -3.418,4.231 -1.488,1.163 -3.318,2.054 -5.487,2.674 -2.17,0.62 -4.635,0.931 -7.394,0.931 H -16.508 V 0 Z M -16.508,58.217 V 31.201 h 14.229 c 3.038,0 5.634,0.387 7.789,1.162 2.155,0.775 3.921,1.798 5.301,3.07 1.379,1.27 2.395,2.712 3.046,4.324 0.651,1.611 0.976,3.27 0.976,4.975 0,4.433 -1.403,7.789 -4.208,10.068 -2.806,2.278 -7.138,3.417 -12.997,3.417 z m 14.136,3.767 c 3.751,0 7.006,-0.373 9.766,-1.116 2.758,-0.744 5.037,-1.837 6.835,-3.278 1.797,-1.442 3.131,-3.201 3.999,-5.277 0.867,-2.079 1.302,-4.434 1.302,-7.069 0,-1.736 -0.302,-3.41 -0.907,-5.022 -0.604,-1.613 -1.473,-3.1 -2.604,-4.464 -1.132,-1.364 -2.527,-2.55 -4.185,-3.557 -1.659,-1.008 -3.557,-1.775 -5.696,-2.302 5.176,-0.744 9.153,-2.458 11.927,-5.138 2.774,-2.682 4.162,-6.208 4.162,-10.579 0,-2.79 -0.497,-5.301 -1.488,-7.533 C 19.747,4.417 18.305,2.525 16.415,0.976 14.523,-0.574 12.198,-1.76 9.439,-2.581 6.68,-3.403 3.549,-3.813 0.046,-3.813 h -21.343 v 65.797 z"
       style="fill:#737474 icc-color(sRGB-IEC61966-2, 0.1, 0.45098877, 0.45498657, 0.45498657);fill-opacity:1;fill-rule:nonzero;stroke:none"
       transform="matrix(0.21897914,0,0,-0.21897914,168.44758,105.72202)"
       clip-path="url(#clipPath14)" />
    <path
       id="path15"
       d="m 0,0 c 3.162,0 5.99,0.55 8.486,1.65 2.495,1.101 4.611,2.628 6.347,4.581 1.736,1.953 3.062,4.254 3.976,6.905 0.914,2.651 1.372,5.51 1.372,8.58 v 40.687 h 4.743 V 21.716 c 0,-3.627 -0.574,-7.015 -1.721,-10.16 C 22.056,8.408 20.405,5.665 18.251,3.325 16.096,0.983 13.477,-0.853 10.393,-2.186 7.308,-3.518 3.843,-4.185 0,-4.185 c -3.844,0 -7.309,0.667 -10.393,1.999 -3.085,1.333 -5.704,3.169 -7.858,5.511 -2.155,2.34 -3.806,5.083 -4.953,8.231 -1.147,3.145 -1.72,6.533 -1.72,10.16 v 40.687 h 4.789 V 21.762 c 0,-3.069 0.457,-5.929 1.372,-8.579 0.914,-2.651 2.232,-4.953 3.952,-6.906 C -13.09,4.324 -10.982,2.79 -8.486,1.674 -5.991,0.558 -3.162,0 0,0"
       style="fill:#737474 icc-color(sRGB-IEC61966-2, 0.1, 0.45098877, 0.45498657, 0.45498657);fill-opacity:1;fill-rule:nonzero;stroke:none"
       transform="matrix(0.21897914,0,0,-0.21897914,182.60103,105.81374)"
       clip-path="url(#clipPath16)" />
    <path
       id="path17"
       d="m 0,0 c 2.914,0 5.525,0.349 7.835,1.046 2.31,0.698 4.263,1.697 5.859,3 1.597,1.302 2.814,2.866 3.651,4.696 0.837,1.829 1.256,3.89 1.256,6.185 0,4.68 -1.528,8.152 -4.581,10.416 -3.054,2.262 -7.51,3.393 -13.369,3.393 H -11.393 V 0 Z M 29.202,-33.294 H 25.11 c -0.527,0 -0.969,0.085 -1.325,0.256 -0.357,0.17 -0.69,0.488 -1,0.953 L 1.674,-5.394 c -0.248,0.341 -0.504,0.635 -0.767,0.883 -0.263,0.248 -0.558,0.443 -0.884,0.582 -0.325,0.139 -0.713,0.24 -1.162,0.302 -0.45,0.062 -1,0.093 -1.651,0.093 h -8.603 v -29.76 h -4.789 V 32.504 H 0.651 c 7.564,0 13.229,-1.465 16.995,-4.395 3.767,-2.929 5.651,-7.23 5.651,-12.904 0,-2.511 -0.435,-4.805 -1.303,-6.882 C 21.126,6.246 19.879,4.425 18.251,2.859 16.624,1.294 14.655,0.016 12.346,-0.977 10.036,-1.969 7.44,-2.635 4.557,-2.976 c 0.744,-0.465 1.411,-1.086 2,-1.86 z"
       style="fill:#737474 icc-color(sRGB-IEC61966-2, 0.1, 0.45098877, 0.45498657, 0.45498657);fill-opacity:1;fill-rule:nonzero;stroke:none"
       transform="matrix(0.21897914,0,0,-0.21897914,196.34712,99.266396)"
       clip-path="url(#clipPath18)" />
    <path
       id="path19"
       d="m 0,0 v -23.389 c -3.286,-2.325 -6.789,-4.108 -10.509,-5.347 -3.72,-1.24 -7.905,-1.861 -12.555,-1.861 -5.208,0 -9.889,0.798 -14.043,2.395 -4.155,1.597 -7.696,3.859 -10.625,6.789 -2.93,2.93 -5.178,6.471 -6.743,10.626 -1.566,4.153 -2.348,8.772 -2.348,13.856 0,5.084 0.767,9.696 2.302,13.834 1.534,4.139 3.735,7.673 6.603,10.603 2.866,2.929 6.331,5.191 10.393,6.789 4.06,1.596 8.632,2.394 13.716,2.394 2.512,0 4.829,-0.171 6.953,-0.511 2.123,-0.342 4.099,-0.846 5.928,-1.512 1.829,-0.667 3.534,-1.488 5.116,-2.465 1.581,-0.976 3.099,-2.099 4.556,-3.371 l -1.302,-2.045 c -0.434,-0.744 -1.086,-0.916 -1.953,-0.512 -0.465,0.186 -1.132,0.62 -1.999,1.302 -0.868,0.681 -2.062,1.395 -3.581,2.139 -1.519,0.744 -3.402,1.41 -5.649,1.999 -2.248,0.589 -4.984,0.885 -8.207,0.885 -4.279,0 -8.146,-0.684 -11.603,-2.047 -3.457,-1.364 -6.401,-3.318 -8.835,-5.86 -2.433,-2.541 -4.308,-5.641 -5.626,-9.299 -1.318,-3.659 -1.976,-7.766 -1.976,-12.323 0,-4.619 0.658,-8.773 1.976,-12.462 1.318,-3.689 3.224,-6.82 5.72,-9.392 2.494,-2.574 5.525,-4.542 9.091,-5.906 3.564,-1.365 7.579,-2.046 12.043,-2.046 1.953,0 3.759,0.124 5.417,0.372 1.658,0.248 3.239,0.596 4.743,1.047 1.503,0.448 2.96,1.006 4.371,1.673 1.41,0.666 2.844,1.418 4.302,2.255 v 17.717 h -12.602 c -0.342,0 -0.628,0.109 -0.86,0.325 -0.233,0.217 -0.349,0.465 -0.349,0.744 V 0 Z"
       style="fill:#737474 icc-color(sRGB-IEC61966-2, 0.1, 0.45098877, 0.45498657, 0.45498657);fill-opacity:1;fill-rule:nonzero;stroke:none"
       transform="matrix(0.21897914,0,0,-0.21897914,217.27224,100.02)"
       clip-path="url(#clipPath20)" />
    <path
       id="path21"
       d="m 0,0 c 0.467,0 0.864,-0.164 1.191,-0.491 l 2.802,-3.011 c -2.056,-2.195 -4.285,-4.167 -6.689,-5.918 -2.406,-1.751 -5.044,-3.247 -7.915,-4.484 -2.872,-1.237 -6.024,-2.194 -9.456,-2.871 -3.432,-0.676 -7.203,-1.016 -11.312,-1.016 -6.864,0 -13.157,1.202 -18.876,3.608 -5.72,2.404 -10.635,5.813 -14.744,10.226 -4.109,4.413 -7.296,9.747 -9.561,16.004 -2.265,6.257 -3.396,13.214 -3.396,20.873 0,7.517 1.166,14.381 3.502,20.592 2.334,6.209 5.603,11.545 9.805,16.004 4.203,4.459 9.246,7.915 15.13,10.367 5.883,2.451 12.373,3.677 19.471,3.677 6.77,0 12.771,-1.05 18.001,-3.152 5.229,-2.102 9.992,-5.067 14.289,-8.895 L 0.07,68.361 C -0.304,67.8 -0.887,67.52 -1.681,67.52 c -0.56,0 -1.471,0.514 -2.732,1.542 -1.26,1.026 -3.011,2.158 -5.253,3.396 -2.241,1.237 -5.032,2.37 -8.369,3.397 -3.34,1.027 -7.344,1.541 -12.013,1.541 -5.977,0 -11.452,-1.027 -16.425,-3.081 -4.972,-2.056 -9.245,-4.998 -12.817,-8.825 -3.572,-3.83 -6.363,-8.5 -8.37,-14.009 -2.008,-5.51 -3.012,-11.698 -3.012,-18.561 0,-7.004 1.016,-13.262 3.047,-18.771 2.031,-5.511 4.821,-10.169 8.37,-13.974 3.548,-3.806 7.739,-6.723 12.572,-8.755 4.833,-2.031 10.051,-3.047 15.655,-3.047 3.548,0 6.711,0.233 9.49,0.701 2.778,0.466 5.334,1.166 7.67,2.101 2.334,0.933 4.506,2.077 6.514,3.432 2.007,1.354 3.992,2.942 5.953,4.763 0.233,0.186 0.467,0.338 0.701,0.455 C -0.467,-0.059 -0.234,0 0,0"
       style="fill:#737474 icc-color(sRGB-IEC61966-2, 0.1, 0.45098877, 0.45498657, 0.45498657);fill-opacity:1;fill-rule:nonzero;stroke:none"
       transform="matrix(0.21897914,0,0,-0.21897914,36.668437,134.99259)"
       clip-path="url(#clipPath22)" />
    <path
       id="path23"
       d="m 0,0 c 0,6.91 -0.958,13.121 -2.872,18.631 -1.915,5.509 -4.623,10.179 -8.125,14.009 -3.502,3.827 -7.704,6.759 -12.607,8.79 -4.903,2.031 -10.321,3.046 -16.25,3.046 -5.884,0 -11.277,-1.015 -16.179,-3.046 -4.904,-2.031 -9.118,-4.963 -12.643,-8.79 -3.526,-3.83 -6.258,-8.5 -8.195,-14.009 C -78.809,13.121 -79.778,6.91 -79.778,0 c 0,-6.958 0.969,-13.18 2.907,-18.666 1.937,-5.487 4.669,-10.145 8.195,-13.974 3.525,-3.829 7.739,-6.747 12.643,-8.755 4.902,-2.008 10.295,-3.011 16.179,-3.011 5.929,0 11.347,1.003 16.25,3.011 4.903,2.008 9.105,4.926 12.607,8.755 3.502,3.829 6.21,8.487 8.125,13.974 C -0.958,-13.18 0,-6.958 0,0 m 7.424,0 c 0,-7.659 -1.144,-14.604 -3.432,-20.837 -2.288,-6.234 -5.51,-11.557 -9.665,-15.97 -4.157,-4.412 -9.141,-7.822 -14.955,-10.226 -5.813,-2.406 -12.222,-3.608 -19.226,-3.608 -7.004,0 -13.402,1.202 -19.191,3.608 -5.791,2.404 -10.764,5.814 -14.919,10.226 -4.157,4.413 -7.379,9.736 -9.666,15.97 -2.288,6.233 -3.432,13.178 -3.432,20.837 0,7.611 1.144,14.534 3.432,20.767 2.287,6.234 5.509,11.558 9.666,15.97 4.155,4.413 9.128,7.833 14.919,10.261 5.789,2.428 12.187,3.642 19.191,3.642 7.004,0 13.413,-1.202 19.226,-3.607 C -14.814,44.627 -9.83,41.207 -5.673,36.772 -1.518,32.335 1.704,27.001 3.992,20.767 6.28,14.534 7.424,7.611 7.424,0"
       style="fill:#737474 icc-color(sRGB-IEC61966-2, 0.1, 0.45098877, 0.45498657, 0.45498657);fill-opacity:1;fill-rule:nonzero;stroke:none"
       transform="matrix(0.21897914,0,0,-0.21897914,59.951091,127.78384)"
       clip-path="url(#clipPath24)" />
    <path
       id="path25"
       d="m 0,0 v -99.11 h -6.233 v 84.47 c 0,1.215 0.069,2.499 0.21,3.854 l -39.014,-69.272 c -0.654,-1.215 -1.588,-1.821 -2.801,-1.821 h -1.121 c -1.215,0 -2.148,0.606 -2.802,1.821 l -40.064,69.411 c 0.14,-1.401 0.211,-2.731 0.211,-3.993 v -84.47 h -6.304 V 0 h 4.973 c 0.653,0 1.167,-0.071 1.541,-0.21 0.373,-0.141 0.746,-0.515 1.12,-1.121 l 39.994,-68.921 c 0.701,-1.308 1.307,-2.709 1.821,-4.203 0.28,0.747 0.584,1.482 0.911,2.206 0.326,0.724 0.676,1.412 1.051,2.067 l 38.873,68.851 c 0.373,0.606 0.758,0.98 1.155,1.121 0.397,0.139 0.922,0.21 1.576,0.21 z"
       style="fill:#737474 icc-color(sRGB-IEC61966-2, 0.1, 0.45098877, 0.45498657, 0.45498657);fill-opacity:1;fill-rule:nonzero;stroke:none"
       transform="matrix(0.21897914,0,0,-0.21897914,88.938894,116.94003)"
       clip-path="url(#clipPath26)" />
    <path
       id="path27"
       d="m 0,0 v -99.11 h -6.233 v 84.47 c 0,1.215 0.069,2.499 0.21,3.854 l -39.014,-69.272 c -0.654,-1.215 -1.588,-1.821 -2.801,-1.821 h -1.121 c -1.215,0 -2.148,0.606 -2.802,1.821 l -40.064,69.411 c 0.14,-1.401 0.211,-2.731 0.211,-3.993 v -84.47 h -6.304 V 0 h 4.973 c 0.653,0 1.167,-0.071 1.541,-0.21 0.373,-0.141 0.746,-0.515 1.12,-1.121 l 39.994,-68.921 c 0.701,-1.308 1.307,-2.709 1.821,-4.203 0.28,0.747 0.584,1.482 0.911,2.206 0.326,0.724 0.676,1.412 1.051,2.067 l 38.873,68.851 c 0.373,0.606 0.758,0.98 1.155,1.121 0.397,0.139 0.922,0.21 1.576,0.21 z"
       style="fill:#737474 icc-color(sRGB-IEC61966-2, 0.1, 0.45098877, 0.45498657, 0.45498657);fill-opacity:1;fill-rule:nonzero;stroke:none"
       transform="matrix(0.21897914,0,0,-0.21897914,117.71206,116.94003)"
       clip-path="url(#clipPath28)" />
    <path
       id="path29"
       d="m 0,0 c 4.763,0 9.023,0.828 12.783,2.486 3.758,1.657 6.945,3.958 9.56,6.899 2.615,2.942 4.611,6.409 5.989,10.401 1.377,3.993 2.066,8.301 2.066,12.923 v 61.287 h 7.144 V 32.709 c 0,-5.463 -0.864,-10.565 -2.591,-15.304 C 33.223,12.665 30.736,8.533 27.491,5.008 24.245,1.481 20.3,-1.285 15.654,-3.293 11.008,-5.299 5.789,-6.304 0,-6.304 c -5.79,0 -11.009,1.005 -15.654,3.011 -4.647,2.008 -8.593,4.774 -11.837,8.301 -3.247,3.525 -5.733,7.657 -7.46,12.397 -1.728,4.739 -2.591,9.841 -2.591,15.304 v 61.287 h 7.214 V 32.779 c 0,-4.623 0.688,-8.93 2.066,-12.922 1.377,-3.993 3.362,-7.46 5.954,-10.402 2.591,-2.941 5.766,-5.253 9.525,-6.934 C -9.025,0.84 -4.763,0 0,0"
       style="fill:#737474 icc-color(sRGB-IEC61966-2, 0.1, 0.45098877, 0.45498657, 0.45498657);fill-opacity:1;fill-rule:nonzero;stroke:none"
       transform="matrix(0.21897914,0,0,-0.21897914,132.98817,137.5232)"
       clip-path="url(#clipPath30)" />
    <path
       id="path31"
       d="m 0,0 v -99.11 h -3.362 c -0.607,0 -1.109,0.105 -1.506,0.316 -0.397,0.21 -0.782,0.571 -1.155,1.085 l -64.369,86.012 c 0.14,-1.401 0.211,-2.732 0.211,-3.993 v -83.42 h -6.305 V 0 h 3.573 c 0.653,0 1.156,-0.082 1.506,-0.245 0.35,-0.164 0.735,-0.526 1.155,-1.086 l 64.229,-85.801 c -0.141,1.401 -0.21,2.731 -0.21,3.992 V 0 Z"
       style="fill:#737474 icc-color(sRGB-IEC61966-2, 0.1, 0.45098877, 0.45498657, 0.45498657);fill-opacity:1;fill-rule:nonzero;stroke:none"
       transform="matrix(0.21897914,0,0,-0.21897914,165.01295,116.94003)"
       clip-path="url(#clipPath32)" />
    <path
       id="path33"
       d="m 802.305,90.458 h -7.215 v 99.11 h 7.215 z"
       style="fill:#737474 icc-color(sRGB-IEC61966-2, 0.1, 0.45098877, 0.45498657, 0.45498657);fill-opacity:1;fill-rule:nonzero;stroke:none"
       transform="matrix(0.21897914,0,0,-0.21897914,-1.7641132,158.45145)"
       clip-path="url(#clipPath34)" />
    <path
       id="path35"
       d="m 0,0 h -34.811 v -93.016 h -7.214 V 0 H -77.046 V 6.094 H 0 Z"
       style="fill:#737474 icc-color(sRGB-IEC61966-2, 0.1, 0.45098877, 0.45498657, 0.45498657);fill-opacity:1;fill-rule:nonzero;stroke:none"
       transform="matrix(0.21897914,0,0,-0.21897914,195.36606,118.27442)"
       clip-path="url(#clipPath36)" />
    <path
       id="path37"
       d="M 0,0 V -40.834 H -7.144 V 0 l -36.702,58.275 h 6.303 c 0.654,0 1.191,-0.153 1.612,-0.456 0.419,-0.303 0.77,-0.735 1.051,-1.295 L -6.514,10.997 c 0.606,-1.076 1.167,-2.113 1.681,-3.117 0.514,-1.005 0.956,-1.997 1.331,-2.977 0.374,0.98 0.793,1.972 1.26,2.977 0.467,1.004 1.004,2.041 1.612,3.117 l 28.367,45.527 c 0.233,0.513 0.571,0.933 1.016,1.26 0.442,0.327 0.991,0.491 1.645,0.491 h 6.304 z"
       style="fill:#737474 icc-color(sRGB-IEC61966-2, 0.1, 0.45098877, 0.45498657, 0.45498657);fill-opacity:1;fill-rule:nonzero;stroke:none"
       transform="matrix(0.21897914,0,0,-0.21897914,206.63899,129.70105)"
       clip-path="url(#clipPath38)" />
    <path
       id="path39"
       d="m 0,0 h -34.811 v -93.016 h -7.214 V 0 H -77.046 V 6.094 H 0 Z"
       style="fill:#737474 icc-color(sRGB-IEC61966-2, 0.1, 0.45098877, 0.45498657, 0.45498657);fill-opacity:1;fill-rule:nonzero;stroke:none"
       transform="matrix(0.21897914,0,0,-0.21897914,240.39718,118.27442)"
       clip-path="url(#clipPath40)" />
    <path
       id="path41"
       d="m 0,0 v -99.11 h -7.214 v 47.489 H -69.271 V -99.11 h -7.214 V 0 h 7.214 V -46.228 H -7.214 V 0 Z"
       style="fill:#737474 icc-color(sRGB-IEC61966-2, 0.1, 0.45098877, 0.45498657, 0.45498657);fill-opacity:1;fill-rule:nonzero;stroke:none"
       transform="matrix(0.21897914,0,0,-0.21897914,261.71625,116.94003)"
       clip-path="url(#clipPath42)" />
    <path
       id="path43"
       d="M 0,0 -0.14,-5.953 H -59.536 V 93.156 H -0.14 V 87.202 H -52.321 V 47.139 H -8.895 V 41.325 H -52.321 V 0 Z"
       style="fill:#737474 icc-color(sRGB-IEC61966-2, 0.1, 0.45098877, 0.45498657, 0.45498657);fill-opacity:1;fill-rule:nonzero;stroke:none"
       transform="matrix(0.21897914,0,0,-0.21897914,282.08458,137.33932)"
       clip-path="url(#clipPath44)" />
    <path
       id="path45"
       d="m 0,0 -20.172,50.08 c -0.7,1.634 -1.377,3.596 -2.031,5.884 -0.28,-1.121 -0.584,-2.184 -0.911,-3.187 -0.327,-1.005 -0.677,-1.926 -1.051,-2.767 L -44.337,0 Z M 21.923,-36.001 H 16.39 c -0.654,0 -1.191,0.175 -1.611,0.525 -0.421,0.35 -0.747,0.806 -0.98,1.366 L 2.172,-5.323 H -46.507 L -58.135,-34.11 c -0.186,-0.515 -0.514,-0.958 -0.98,-1.331 -0.468,-0.374 -1.028,-0.56 -1.681,-0.56 h -5.464 l 40.555,99.109 h 7.074 z"
       style="fill:#737474 icc-color(sRGB-IEC61966-2, 0.1, 0.45098877, 0.45498657, 0.45498657);fill-opacity:1;fill-rule:nonzero;stroke:none"
       transform="matrix(0.21897914,0,0,-0.21897914,299.46158,130.75944)"
       clip-path="url(#clipPath46)" />
    <path
       id="path47"
       d="m 0,0 h -34.811 v -93.016 h -7.214 V 0 H -77.046 V 6.094 H 0 Z"
       style="fill:#737474 icc-color(sRGB-IEC61966-2, 0.1, 0.45098877, 0.45498657, 0.45498657);fill-opacity:1;fill-rule:nonzero;stroke:none"
       transform="matrix(0.21897914,0,0,-0.21897914,320.75048,118.27442)"
       clip-path="url(#clipPath48)" />
    <path
       id="path49"
       d="m 0,0 c 4.388,0 8.322,0.526 11.802,1.576 3.478,1.051 6.42,2.556 8.825,4.518 2.405,1.96 4.238,4.318 5.498,7.074 1.261,2.755 1.892,5.86 1.892,9.315 0,7.051 -2.301,12.28 -6.9,15.69 C 16.518,41.581 9.805,43.286 0.98,43.286 H -17.16 V 0 Z m 43.986,-50.15 h -6.164 c -0.794,0 -1.459,0.128 -1.996,0.385 -0.537,0.256 -1.04,0.736 -1.506,1.436 L 2.521,-8.125 c -0.374,0.513 -0.76,0.957 -1.156,1.331 -0.397,0.373 -0.84,0.665 -1.33,0.876 -0.491,0.209 -1.075,0.36 -1.751,0.454 -0.678,0.094 -1.506,0.141 -2.487,0.141 H -17.16 V -50.15 h -7.215 V 48.959 H 0.98 c 11.393,0 19.927,-2.206 25.601,-6.619 5.673,-4.412 8.51,-10.891 8.51,-19.437 0,-3.782 -0.655,-7.238 -1.962,-10.365 C 31.822,9.408 29.942,6.665 27.491,4.308 25.039,1.949 22.074,0.023 18.595,-1.471 15.117,-2.966 11.206,-3.969 6.864,-4.483 c 1.12,-0.7 2.124,-1.635 3.012,-2.801 z"
       style="fill:#737474 icc-color(sRGB-IEC61966-2, 0.1, 0.45098877, 0.45498657, 0.45498657);fill-opacity:1;fill-rule:nonzero;stroke:none"
       transform="matrix(0.21897914,0,0,-0.21897914,330.6584,127.66112)"
       clip-path="url(#clipPath50)" />
    <path
       id="path51"
       d="M 0,0 -0.14,-5.953 H -59.536 V 93.156 H -0.14 V 87.202 H -52.321 V 47.139 H -8.895 V 41.325 H -52.321 V 0 Z"
       style="fill:#737474 icc-color(sRGB-IEC61966-2, 0.1, 0.45098877, 0.45498657, 0.45498657);fill-opacity:1;fill-rule:nonzero;stroke:none"
       transform="matrix(0.21897914,0,0,-0.21897914,357.8979,137.33932)"
       clip-path="url(#clipPath52)" />
    <path
       id="path53"
       d="m 0,0 -38.83,8.072 -28.662,-27.412 -4.323,39.424 -34.927,18.789 36.159,16.294 7.076,39.023 26.67,-29.353 39.3,5.328 -19.676,-34.435 z"
       style="fill:#652f90 icc-color(sRGB-IEC61966-2, 0.1, 0.39599609, 0.18399048, 0.56498718);fill-opacity:1;fill-rule:nonzero;stroke:none"
       transform="matrix(0.21897914,0,0,-0.21897914,136.90593,34.390576)"
       clip-path="url(#clipPath54)" />
    <path
       id="path55"
       d="m 0,0 -12.691,2.812 -9.511,-8.86 -1.247,12.938 -11.366,6.308 11.92,5.184 2.487,12.759 8.614,-9.735 12.903,1.578 -6.596,-11.201 z"
       style="fill:#652f90 icc-color(sRGB-IEC61966-2, 0.1, 0.39599609, 0.18399048, 0.56498718);fill-opacity:1;fill-rule:nonzero;stroke:none"
       transform="matrix(0.21897914,0,0,-0.21897914,113.60482,40.699616)"
       clip-path="url(#clipPath56)" />
    <path
       id="path57"
       d="m 0,0 -8.515,2.94 -7.249,-5.347 0.165,9.007 -7.326,5.242 8.617,2.626 2.722,8.588 5.16,-7.384 9.008,0.065 -5.427,-7.19 z"
       style="fill:#652f90 icc-color(sRGB-IEC61966-2, 0.1, 0.39599609, 0.18399048, 0.56498718);fill-opacity:1;fill-rule:nonzero;stroke:none"
       transform="matrix(0.21897914,0,0,-0.21897914,105.44432,26.915426)"
       clip-path="url(#clipPath58)" />
    <path
       id="path59"
       d="m 0,0 -8.19,0.716 -5.234,-6.341 -1.849,8.011 -7.648,3.017 7.047,4.235 0.506,8.206 6.206,-5.393 7.96,2.054 -3.212,-7.568 z"
       style="fill:#652f90 icc-color(sRGB-IEC61966-2, 0.1, 0.39599609, 0.18399048, 0.56498718);fill-opacity:1;fill-rule:nonzero;stroke:none"
       transform="matrix(0.21897914,0,0,-0.21897914,79.096855,41.184696)"
       clip-path="url(#clipPath60)" />
    <path
       id="path61"
       d="m 0,0 -9.553,1.618 -6.749,-6.952 -1.413,9.586 -8.697,4.27 8.68,4.306 1.373,9.591 6.777,-6.924 9.547,1.657 -4.491,-8.585 z"
       style="fill:#652f90 icc-color(sRGB-IEC61966-2, 0.1, 0.39599609, 0.18399048, 0.56498718);fill-opacity:1;fill-rule:nonzero;stroke:none"
       transform="matrix(0.21897914,0,0,-0.21897914,65.129313,56.592086)"
       clip-path="url(#clipPath62)" />
    <path
       id="path63"
       d="m 0,0 -7.288,-0.26 -3.917,-6.152 -2.5,6.851 -7.061,1.825 5.744,4.494 -0.447,7.279 6.049,-4.073 6.785,2.674 -2.005,-7.012 z"
       style="fill:#652f90 icc-color(sRGB-IEC61966-2, 0.1, 0.39599609, 0.18399048, 0.56498718);fill-opacity:1;fill-rule:nonzero;stroke:none"
       transform="matrix(0.21897914,0,0,-0.21897914,63.876949,65.250456)"
       clip-path="url(#clipPath64)" />
    <path
       id="path65"
       d="m 0,0 -7.231,0.946 -4.878,-5.421 -1.336,7.169 -6.662,2.965 6.405,3.485 0.761,7.253 5.294,-5.015 7.133,1.518 -3.134,-6.585 z"
       style="fill:#652f90 icc-color(sRGB-IEC61966-2, 0.1, 0.39599609, 0.18399048, 0.56498718);fill-opacity:1;fill-rule:nonzero;stroke:none"
       transform="matrix(0.21897914,0,0,-0.21897914,54.014587,61.673236)"
       clip-path="url(#clipPath66)" />
    <path
       id="path67"
       d="m 0,0 -7.837,0.091 -4.517,-6.405 -2.336,7.482 -7.487,2.317 6.394,4.533 -0.11,7.837 6.287,-4.68 7.419,2.526 -2.508,-7.425 z"
       style="fill:#652f90 icc-color(sRGB-IEC61966-2, 0.1, 0.39599609, 0.18399048, 0.56498718);fill-opacity:1;fill-rule:nonzero;stroke:none"
       transform="matrix(0.21897914,0,0,-0.21897914,44.278137,70.491356)"
       clip-path="url(#clipPath68)" />
    <path
       id="path69"
       d="m 0,0 -9.064,2.868 -7.501,-5.84 -0.073,9.507 -7.872,5.329 9.019,3.007 2.635,9.134 5.647,-7.648 9.502,0.316 -5.529,-7.734 z"
       style="fill:#652f90 icc-color(sRGB-IEC61966-2, 0.1, 0.39599609, 0.18399048, 0.56498718);fill-opacity:1;fill-rule:nonzero;stroke:none"
       transform="matrix(0.21897914,0,0,-0.21897914,78.993802,50.763656)"
       clip-path="url(#clipPath70)" />
    <path
       id="path71"
       d="m 0,0 -9.435,0.297 -5.594,-7.604 -2.633,9.066 -8.96,2.97 7.808,5.306 0.056,9.439 7.458,-5.786 8.995,2.863 -3.198,-8.881 z"
       style="fill:#652f90 icc-color(sRGB-IEC61966-2, 0.1, 0.39599609, 0.18399048, 0.56498718);fill-opacity:1;fill-rule:nonzero;stroke:none"
       transform="matrix(0.21897914,0,0,-0.21897914,94.364452,49.937466)"
       clip-path="url(#clipPath72)" />
    <path
       id="path73"
       d="m 0,0 -11.657,7.446 -12.742,-5.381 3.48,13.387 -9.056,10.456 13.808,0.828 7.145,11.843 L -3.968,25.703 9.504,22.567 -1.18,13.781 Z"
       style="fill:#652f90 icc-color(sRGB-IEC61966-2, 0.1, 0.39599609, 0.18399048, 0.56498718);fill-opacity:1;fill-rule:nonzero;stroke:none"
       transform="matrix(0.21897914,0,0,-0.21897914,69.777451,47.432606)"
       clip-path="url(#clipPath74)" />
    <path
       id="path75"
       d="m 0,0 -16.181,3.688 -12.211,-11.238 -1.492,16.528 -14.462,8.141 15.258,6.527 3.274,16.269 10.922,-12.494 16.485,1.914 -8.508,-14.249 z"
       style="fill:#652f90 icc-color(sRGB-IEC61966-2, 0.1, 0.39599609, 0.18399048, 0.56498718);fill-opacity:1;fill-rule:nonzero;stroke:none"
       transform="matrix(0.21897914,0,0,-0.21897914,95.584298,35.534686)"
       clip-path="url(#clipPath76)" />
  </g>
</svg>
